<svg id="svg" version="1.1" xmlns="http://www.w3.org/2000/svg" xmlns:xlink="http://www.w3.org/1999/xlink" width="400" height="396.6426858513189" viewBox="0, 0, 400,396.6426858513189"><g id="svgg"><path id="path0" d="M181.535 1.445 C 176.523 2.190,172.403 2.818,172.380 2.839 C 172.356 2.860,172.198 11.888,172.028 22.902 C 171.744 41.294,170.378 92.813,170.130 94.478 C 170.035 95.116,174.825 96.797,175.322 96.301 C 175.410 96.213,176.801 89.132,178.415 80.565 C 180.028 71.998,183.395 54.305,185.896 41.247 C 188.397 28.189,191.098 14.053,191.898 9.832 C 192.698 5.612,193.469 1.673,193.611 1.079 C 193.947 -0.326,193.319 -0.307,181.535 1.445 M158.034 5.125 C 147.607 7.487,142.177 8.761,142.056 8.874 C 141.973 8.951,143.209 14.486,144.801 21.173 C 147.627 33.039,153.383 57.742,159.340 83.573 C 161.865 94.524,162.425 96.403,163.164 96.403 C 164.275 96.403,164.297 92.798,163.322 70.001 C 162.934 60.913,162.396 46.679,162.127 38.369 C 160.944 1.848,161.258 4.394,158.034 5.125 M246.714 17.931 C 228.921 47.966,207.702 83.515,201.051 94.432 L 193.631 106.609 194.777 107.493 C 195.920 108.375,195.927 108.372,197.362 106.593 C 204.342 97.937,235.755 60.624,260.786 31.256 C 276.685 12.601,275.521 14.386,272.542 13.239 C 266.541 10.930,261.050 9.033,257.349 7.990 L 253.281 6.845 246.714 17.931 M286.350 25.573 C 283.590 28.522,275.598 36.871,268.589 44.125 C 261.580 51.379,249.608 63.789,241.986 71.703 C 234.364 79.616,221.801 92.458,214.069 100.240 L 200.010 114.388 201.084 115.731 L 202.158 117.073 208.393 112.347 C 211.823 109.748,221.211 102.688,229.257 96.659 C 247.960 82.643,257.989 75.119,284.892 54.922 C 296.894 45.911,308.010 37.603,309.592 36.460 C 311.175 35.316,312.555 34.312,312.658 34.228 C 313.089 33.880,311.366 32.422,307.574 29.924 C 303.739 27.399,291.694 20.107,291.472 20.177 C 291.414 20.195,289.109 22.623,286.350 25.573 M102.491 25.882 C 94.927 30.340,90.168 33.534,90.168 34.156 C 90.168 34.602,94.308 39.825,109.036 57.960 C 112.116 61.753,143.163 100.374,145.864 103.773 C 146.639 104.749,146.661 104.743,149.305 102.922 C 151.910 101.128,152.167 100.559,151.060 99.041 C 150.868 98.777,145.754 89.496,139.697 78.417 C 133.639 67.338,125.607 52.662,121.847 45.803 C 118.088 38.945,113.684 30.908,112.062 27.943 C 108.570 21.561,109.489 21.758,102.491 25.882 M58.211 59.592 C 52.933 65.020,44.874 74.304,45.188 74.594 C 45.263 74.663,51.367 77.364,58.753 80.596 C 66.139 83.829,74.988 87.705,78.417 89.210 C 93.575 95.862,123.327 108.851,132.270 112.721 L 138.641 115.478 139.344 114.118 C 140.424 112.031,140.245 111.700,136.544 108.907 C 110.538 89.285,94.821 77.250,76.524 62.950 C 70.027 57.872,64.535 53.717,64.318 53.717 C 64.102 53.717,61.353 56.361,58.211 59.592 M349.400 78.191 C 342.769 80.602,321.923 87.926,260.432 109.446 C 252.914 112.077,240.935 116.242,233.813 118.700 C 211.724 126.325,205.991 128.398,206.115 128.713 C 206.181 128.880,206.235 129.577,206.235 130.261 C 206.235 131.465,206.307 131.496,208.513 131.218 C 249.876 126.011,304.311 117.965,355.055 109.555 C 366.871 107.597,376.745 105.995,376.997 105.995 C 377.655 105.995,371.912 95.233,367.236 87.703 C 362.849 80.640,358.800 75.293,357.881 75.350 C 357.438 75.377,353.621 76.656,349.400 78.191 M23.879 105.428 C 22.464 107.128,15.003 124.173,14.131 127.698 L 13.805 129.017 19.732 129.020 C 22.992 129.023,32.134 129.230,40.048 129.482 C 90.876 131.100,101.363 131.464,117.240 132.157 C 134.772 132.922,133.793 133.071,133.806 129.633 C 133.817 126.549,142.444 128.614,59.952 111.960 C 41.091 108.152,25.410 104.943,25.105 104.829 C 24.800 104.715,24.248 104.984,23.879 105.428 M162.830 108.424 C 150.659 112.720,147.065 124.333,151.186 146.043 C 152.137 151.055,153.576 158.825,154.383 163.309 C 155.191 167.794,157.597 181.175,159.732 193.046 C 161.866 204.916,165.342 224.125,167.456 235.731 C 172.028 260.837,171.904 260.043,171.503 261.643 C 171.064 263.390,168.952 265.228,167.381 265.228 C 165.682 265.228,165.128 264.777,153.147 253.645 C 139.295 240.775,136.103 238.126,132.019 236.107 C 117.164 228.766,99.015 242.440,102.354 258.457 C 103.908 265.910,106.080 268.537,122.779 283.159 C 158.299 314.264,164.307 319.645,170.991 326.349 C 187.926 343.333,198.556 362.070,206.204 388.418 L 208.522 396.403 215.412 396.358 C 238.332 396.210,269.801 387.604,294.440 374.747 C 309.932 366.663,326.508 355.381,325.945 353.304 C 323.833 345.499,324.411 335.528,327.758 322.062 C 334.797 293.739,335.317 283.941,331.183 257.554 C 324.646 215.835,321.167 196.316,319.470 191.850 C 315.585 181.626,307.244 177.206,297.370 180.138 C 291.222 181.964,290.852 183.725,293.506 198.511 C 297.286 219.572,297.208 221.103,292.363 221.103 C 288.270 221.103,287.717 219.632,284.168 199.281 C 280.621 178.937,280.474 178.448,276.653 174.303 C 272.019 169.276,262.762 167.648,255.950 170.661 C 250.789 172.944,250.582 175.337,253.864 194.724 C 256.949 212.953,256.691 215.348,251.639 215.348 C 247.010 215.348,246.716 214.456,241.740 185.322 C 239.233 170.646,237.622 166.753,232.530 163.064 C 225.456 157.939,211.463 159.786,208.396 166.249 C 206.738 169.742,206.925 172.320,210.267 192.053 C 214.277 215.732,214.272 216.544,210.105 217.793 C 205.280 219.238,203.638 216.201,201.003 200.959 C 199.931 194.760,198.197 184.724,197.150 178.657 C 188.760 130.043,188.377 127.975,186.978 123.766 C 182.849 111.345,172.743 104.924,162.830 108.424 M206.810 139.614 C 207.064 140.378,207.535 140.486,225.420 143.903 C 245.235 147.690,296.724 158.009,325.420 163.946 C 402.659 179.926,400.077 179.451,399.756 177.639 C 397.478 164.809,393.027 146.250,392.008 145.334 C 391.617 144.983,381.850 144.586,338.369 143.154 C 311.330 142.263,291.692 141.591,276.019 141.019 C 269.161 140.768,258.801 140.439,252.998 140.287 C 247.194 140.135,241.475 139.923,240.288 139.816 C 232.812 139.140,206.599 138.982,206.810 139.614 M125.180 147.765 C 120.827 149.067,115.863 150.537,114.149 151.032 C 112.434 151.526,99.916 155.274,86.331 159.362 C 72.746 163.449,57.206 168.099,51.799 169.696 C 46.391 171.292,36.031 174.359,28.777 176.513 C 21.523 178.666,12.269 181.382,8.214 182.549 C 4.158 183.715,0.651 184.786,0.420 184.929 C -0.652 185.592,0.319 206.959,1.950 218.574 C 2.808 224.689,5.069 236.883,5.406 237.221 C 5.474 237.289,10.644 233.960,16.896 229.823 C 23.147 225.687,33.058 219.173,38.921 215.348 C 44.784 211.523,54.180 205.372,59.801 201.679 C 65.422 197.986,73.529 192.669,77.816 189.863 C 82.104 187.057,91.007 181.211,97.602 176.870 C 104.197 172.530,115.420 165.145,122.542 160.460 C 129.664 155.774,135.670 151.774,135.887 151.570 C 136.105 151.366,136.023 149.877,135.705 148.261 C 134.993 144.644,135.525 144.669,125.180 147.765 M137.354 163.208 C 136.534 164.098,125.944 173.950,122.036 177.458 C 120.126 179.173,113.193 185.432,106.629 191.367 C 100.065 197.302,90.824 205.612,86.094 209.832 C 81.364 214.053,73.167 221.391,67.879 226.139 C 50.357 241.873,37.296 253.409,26.619 262.583 C 20.815 267.569,16.002 271.905,15.923 272.218 C 15.423 274.195,32.446 304.169,34.946 305.715 C 35.418 306.007,40.727 299.167,87.770 237.650 C 93.419 230.264,102.480 218.501,107.908 211.511 C 113.335 204.520,120.251 195.585,123.276 191.655 C 126.302 187.724,131.340 181.267,134.472 177.305 L 140.168 170.102 139.310 166.346 C 138.426 162.476,138.265 162.218,137.354 163.208 M342.191 232.109 C 342.605 232.779,346.952 261.437,348.679 274.879 C 349.500 281.275,350.281 286.684,350.415 286.899 C 351.203 288.175,369.175 303.408,369.502 303.078 C 373.415 299.118,383.725 278.307,388.531 264.665 L 390.842 258.107 379.714 252.131 C 362.908 243.107,343.702 232.565,343.189 232.083 C 342.584 231.514,341.835 231.533,342.191 232.109 M125.511 307.039 C 123.862 312.909,119.952 327.266,114.171 348.681 C 108.132 371.052,108.037 371.478,108.951 372.279 C 113.601 376.358,137.753 386.238,152.088 389.924 L 159.091 391.726 159.697 377.757 C 160.030 370.075,160.577 358.285,160.912 351.559 L 161.521 339.329 154.981 332.862 C 151.384 329.306,143.443 321.466,137.335 315.441 L 126.228 304.485 125.511 307.039 " stroke="none" fill="#000000" fill-rule="evenodd"></path></g></svg>