<svg id="svg" xmlns="http://www.w3.org/2000/svg" xmlns:xlink="http://www.w3.org/1999/xlink" width="400" height="436.72787979966614" viewBox="0, 0, 400,436.72787979966614"><g id="svgg"><path id="path0" d="M188.648 3.346 C 183.506 5.147,172.688 8.913,164.608 11.715 C 119.097 27.496,54.337 54.925,9.182 77.546 L 0.000 82.146 0.005 89.988 C 0.042 154.518,8.316 218.197,22.142 260.356 C 33.497 294.982,46.497 314.611,77.376 343.749 L 85.836 351.732 99.501 333.295 C 202.841 193.866,225.789 162.795,225.581 162.587 C 225.446 162.452,208.517 160.229,187.960 157.646 C 167.403 155.063,149.556 152.770,148.300 152.550 L 146.016 152.150 209.401 88.763 C 244.262 53.900,272.609 25.376,272.392 25.376 C 272.176 25.376,264.214 22.484,254.698 18.951 C 235.699 11.896,200.618 -0.021,199.012 0.035 C 198.453 0.055,193.790 1.544,188.648 3.346 M307.846 60.957 C 299.950 67.522,279.254 84.661,261.856 99.046 C 230.339 125.103,230.231 125.201,232.474 125.678 C 233.712 125.941,246.444 127.380,260.768 128.877 C 275.092 130.373,294.465 132.423,303.820 133.433 L 320.829 135.268 262.429 196.014 C 230.309 229.425,181.186 280.515,153.266 309.548 C 125.347 338.580,101.968 362.955,101.314 363.714 C 98.392 367.102,150.369 406.821,187.595 429.647 C 193.947 433.541,199.454 436.728,199.833 436.728 C 202.239 436.728,240.108 411.809,258.765 397.949 C 297.398 369.249,341.515 327.600,355.804 306.339 C 383.713 264.814,397.127 199.855,399.591 94.299 L 399.876 82.087 393.287 78.780 C 378.014 71.116,353.334 60.540,334.224 53.469 L 322.204 49.022 307.846 60.957 " stroke="none" fill="#000000" fill-rule="evenodd"></path></g></svg>