<svg id="svg" version="1.1" xmlns="http://www.w3.org/2000/svg" xmlns:xlink="http://www.w3.org/1999/xlink" width="400" height="400" viewBox="0, 0, 400,400"><g id="svgg"><path id="path0" d="M191.797 65.265 C 140.389 70.925,112.503 104.640,112.503 161.133 C 112.503 205.949,128.149 238.827,159.180 259.214 C 185.169 276.289,209.576 277.541,234.245 263.064 C 264.714 245.184,280.724 220.357,285.521 183.550 C 293.904 119.226,268.282 75.016,217.383 65.979 C 212.020 65.027,197.612 64.625,191.797 65.265 M232.271 100.098 C 231.131 102.515,228.207 108.623,225.773 113.672 C 223.340 118.721,218.228 129.443,214.412 137.500 L 207.475 152.148 225.222 152.250 C 234.983 152.306,242.969 152.441,242.969 152.551 C 242.969 152.661,239.606 157.273,235.496 162.801 C 231.386 168.329,226.156 175.378,223.875 178.465 C 221.593 181.553,218.151 186.211,216.226 188.817 C 204.020 205.338,174.983 244.141,174.826 244.141 C 174.759 244.141,175.919 240.142,177.404 235.254 C 178.889 230.366,183.460 215.206,187.561 201.566 C 191.663 187.925,195.104 176.543,195.208 176.273 C 195.357 175.883,192.266 175.781,180.289 175.781 C 166.087 175.781,165.193 175.740,165.376 175.098 C 165.483 174.722,166.714 170.547,168.112 165.820 C 171.408 154.673,173.097 148.925,175.401 141.016 C 180.059 125.028,187.953 98.124,188.324 96.973 L 188.732 95.703 211.539 95.703 L 234.346 95.703 232.271 100.098 M253.779 265.928 C 252.429 268.016,236.610 278.774,230.664 281.649 C 204.619 294.237,177.069 290.130,149.866 269.603 C 144.874 265.836,145.313 265.971,145.313 268.200 C 145.312 275.131,141.026 286.593,136.198 292.572 C 131.046 298.953,125.917 302.115,110.930 308.154 C 100.651 312.296,96.314 314.142,82.314 320.331 L 78.494 322.019 80.165 323.738 C 81.084 324.683,83.770 327.168,86.133 329.260 C 147.664 383.728,237.240 387.175,303.379 337.618 C 309.745 332.848,321.509 322.577,321.094 322.151 C 320.697 321.746,298.289 311.886,287.624 307.424 C 281.570 304.891,275.171 301.965,273.404 300.921 C 262.431 294.436,255.277 281.723,254.200 266.797 C 254.136 265.912,253.988 265.605,253.779 265.928 " stroke="none" fill="#a4a4ab" fill-rule="evenodd"></path><path id="path1" d="M188.324 96.973 C 187.953 98.124,180.059 125.028,175.401 141.016 C 173.097 148.925,171.408 154.673,168.112 165.820 C 166.714 170.547,165.483 174.722,165.376 175.098 C 165.193 175.740,166.087 175.781,180.289 175.781 C 192.266 175.781,195.357 175.883,195.208 176.273 C 195.104 176.543,191.663 187.925,187.561 201.566 C 183.460 215.206,178.889 230.366,177.404 235.254 C 175.919 240.142,174.759 244.141,174.826 244.141 C 174.983 244.141,204.020 205.338,216.226 188.817 C 218.151 186.211,221.593 181.553,223.875 178.465 C 226.156 175.378,231.386 168.329,235.496 162.801 C 239.606 157.273,242.969 152.661,242.969 152.551 C 242.969 152.441,234.983 152.306,225.222 152.250 L 207.475 152.148 214.412 137.500 C 218.228 129.443,223.340 118.721,225.773 113.672 C 228.207 108.623,231.131 102.515,232.271 100.098 L 234.346 95.703 211.539 95.703 L 188.732 95.703 188.324 96.973 " stroke="none" fill="#fbd82b" fill-rule="evenodd"></path></g></svg>