<svg version="1.1" id="Layer_1" xmlns="http://www.w3.org/2000/svg" xmlns:xlink="http://www.w3.org/1999/xlink" x="0px" y="0px"
	 width="100%" viewBox="0 0 1024 1024" enable-background="new 0 0 1024 1024" xml:space="preserve">
<path fill="#000000" opacity="1.000000" stroke="none" 
	d="
M681.000000,1025.000000 
	C454.000000,1025.000000 227.500000,1025.000000 1.000000,1025.000000 
	C1.000000,683.666687 1.000000,342.333344 1.000000,1.000000 
	C342.333344,1.000000 683.666687,1.000000 1025.000000,1.000000 
	C1025.000000,342.333344 1025.000000,683.666687 1025.000000,1025.000000 
	C910.500000,1025.000000 796.000000,1025.000000 681.000000,1025.000000 
M454.276093,174.976990 
	C453.527985,175.032974 452.779907,175.088974 451.264038,175.250427 
	C429.843536,180.772415 409.331696,188.480591 390.350159,200.043213 
	C370.414948,212.186768 353.693512,227.833618 338.662567,245.595047 
	C324.209686,262.673370 312.931335,281.564453 306.147217,302.747650 
	C300.838745,319.323181 296.665283,336.339691 293.224640,353.409576 
	C290.807434,365.401886 290.469482,377.813232 289.062347,390.768311 
	C289.089325,391.510406 289.116302,392.252502 288.986145,393.659912 
	C289.035126,394.110199 289.084137,394.560516 289.009521,395.940613 
	C289.049835,408.285858 289.090149,420.631073 288.981262,433.647980 
	C289.035309,434.100403 289.089386,434.552826 289.034943,435.878723 
	C289.752167,443.900452 290.469421,451.922211 291.070526,460.506195 
	C291.130371,460.687988 291.190186,460.869751 291.408020,461.759125 
	C291.647675,463.166931 291.887299,464.574707 291.992889,466.815918 
	C292.306335,468.238159 292.735535,469.645935 292.915710,471.084869 
	C295.313599,490.236267 299.301178,509.025391 304.897797,527.518494 
	C317.167847,568.062927 338.870758,602.738525 368.835632,632.520752 
	C385.523346,649.106628 404.156891,662.894409 424.640961,674.418884 
	C448.807465,688.015076 474.232239,697.457764 502.954956,699.980530 
	C509.960022,699.941101 516.965088,699.901672 524.656860,700.008911 
	C525.116821,699.943848 525.576721,699.878784 526.837952,699.910828 
	C529.211548,699.556885 531.585144,699.202942 534.567932,698.984070 
	C535.054871,698.690979 535.541809,698.397888 536.837097,698.021851 
	C538.595886,697.700745 540.354675,697.379639 542.005249,697.012268 
	C542.005249,697.012268 541.959473,697.120728 542.754822,697.028137 
	C544.207275,696.705322 545.659790,696.382446 547.014526,696.024597 
	C547.014526,696.024597 546.980103,696.122498 547.737061,696.029785 
	C548.864441,695.707397 549.991760,695.385071 551.005737,695.016724 
	C551.005737,695.016724 550.960327,695.130249 551.718140,695.029724 
	C552.851074,694.706848 553.984070,694.383972 555.016418,694.028442 
	C555.016418,694.028442 554.984497,694.129333 555.694336,694.033752 
	C556.503174,693.710449 557.312073,693.387146 558.001953,693.024841 
	C558.001953,693.024841 557.963501,693.143982 558.747986,693.029846 
	C560.479431,692.622253 562.210876,692.214661 564.667175,691.720215 
	C577.846130,685.283875 591.661987,679.869873 604.044861,672.155701 
	C619.992432,662.220825 635.655151,651.449402 649.893860,639.235229 
	C674.521912,618.108948 692.506409,591.679016 706.422485,562.357666 
	C720.056702,533.630310 728.055908,503.421417 731.998596,471.114807 
	C733.014771,459.445282 734.030945,447.775757 735.692261,435.665405 
	C735.736267,434.113953 735.780273,432.562531 735.963074,430.214142 
	C735.919556,429.140442 735.876099,428.066711 735.974976,426.066132 
	C735.935181,416.389069 735.895386,406.712036 736.010437,396.151855 
	C735.694397,393.048462 735.363831,389.946472 735.064880,386.841431 
	C734.024658,376.036713 733.790100,365.081696 731.795410,354.456787 
	C727.703857,332.663025 722.348816,311.204712 713.484192,290.666290 
	C697.676514,254.041534 673.540527,224.422577 640.683350,201.960205 
	C621.524536,188.862549 600.574280,179.268448 577.951904,174.220871 
	C562.852539,170.851837 547.317627,169.434921 531.049683,167.020416 
	C522.381592,167.066864 513.713501,167.113297 504.266907,167.002594 
	C502.810242,167.320160 501.353607,167.637726 498.995514,167.979706 
	C490.960571,168.967072 482.925659,169.954453 474.995209,170.988297 
	C474.995209,170.988297 475.041443,170.883652 474.215363,170.977386 
	C472.439667,171.299133 470.663971,171.620865 468.992676,171.985596 
	C468.992676,171.985596 469.035339,171.881042 468.238861,171.972885 
	C466.788788,172.295929 465.338715,172.618973 463.996155,172.988907 
	C463.996155,172.988907 464.042786,172.881256 463.246582,172.977188 
	C461.794220,173.299179 460.341888,173.621155 458.990143,173.980850 
	C458.990143,173.980850 459.027313,173.880081 458.266418,173.971634 
	C457.140106,174.294571 456.013763,174.617493 454.994659,174.971146 
	C454.994659,174.971146 455.024719,174.863754 454.276093,174.976990 
M648.475281,684.031860 
	C648.252197,684.340515 648.029114,684.649170 647.178711,685.213318 
	C633.590698,694.820312 620.335693,704.947449 606.335693,713.910950 
	C585.915466,726.984985 563.392700,734.819885 539.297913,737.997070 
	C535.153564,738.543579 531.037170,739.302246 525.983276,740.000366 
	C517.349915,739.989563 508.716522,739.978699 499.606415,739.264832 
	C450.668457,736.029541 410.567261,712.792725 373.097107,682.114014 
	C373.069641,698.194519 369.504028,712.279785 363.851135,725.785950 
	C357.820862,740.193604 349.256317,752.770142 336.906189,762.838257 
	C325.070770,772.486755 311.901581,779.235718 297.799042,784.761658 
	C276.869385,792.962952 256.116852,801.627014 235.405640,810.370544 
	C224.249161,815.080383 213.335754,820.365906 201.822083,825.615417 
	C264.385956,887.585815 338.042847,927.992249 423.703278,945.829529 
	C509.119965,963.616150 592.594543,955.567078 673.679199,923.904358 
	C730.276794,901.803589 779.853760,868.630432 823.732849,825.709961 
	C814.664917,821.707886 806.235718,817.931152 797.761475,814.258118 
	C770.072998,802.256958 742.441833,790.119385 714.646484,778.370300 
	C692.063110,768.824280 675.071106,753.408081 664.319641,731.432373 
	C660.639709,723.910706 658.153809,715.804932 655.030579,707.224609 
	C654.708252,706.109741 654.385986,704.994873 654.028259,703.991760 
	C654.028259,703.991760 654.140198,704.026550 654.031677,703.155396 
	C653.158325,695.915710 652.284912,688.675964 651.377747,681.155640 
	C650.413391,682.215149 649.640259,683.064636 648.979248,683.967529 
	C648.979248,683.967529 649.031799,683.854919 648.475281,684.031860 
z"/>
<path fill="#A4A5AB" opacity="1.000000" stroke="none" 
	d="
M531.977600,167.144409 
	C547.317627,169.434921 562.852539,170.851837 577.951904,174.220871 
	C600.574280,179.268448 621.524536,188.862549 640.683350,201.960205 
	C673.540527,224.422577 697.676514,254.041534 713.484192,290.666290 
	C722.348816,311.204712 727.703857,332.663025 731.795410,354.456787 
	C733.790100,365.081696 734.024658,376.036713 735.064880,386.841431 
	C735.363831,389.946472 735.694397,393.048462 735.738770,396.953674 
	C735.324158,407.497620 735.181335,417.239685 734.944946,427.390503 
	C734.581970,429.259094 734.196960,430.708313 734.061218,432.180542 
	C733.046631,443.183258 732.008545,454.184875 731.161621,465.200989 
	C730.990295,467.429230 731.600098,469.717468 731.849731,471.978058 
	C728.055908,503.421417 720.056702,533.630310 706.422485,562.357666 
	C692.506409,591.679016 674.521912,618.108948 649.893860,639.235229 
	C635.655151,651.449402 619.992432,662.220825 604.044861,672.155701 
	C591.661987,679.869873 577.846130,685.283875 564.029053,691.601074 
	C561.581726,692.035889 559.772644,692.589966 557.963501,693.143982 
	C557.963501,693.143982 558.001953,693.024841 557.718750,693.051758 
	C556.618591,693.428894 555.801514,693.779114 554.984497,694.129333 
	C554.984497,694.129333 555.016418,694.028442 554.695923,694.041443 
	C553.237122,694.413025 552.098694,694.771667 550.960327,695.130249 
	C550.960327,695.130249 551.005737,695.016724 550.692627,695.032837 
	C549.246399,695.406738 548.113220,695.764648 546.980103,696.122498 
	C546.980103,696.122498 547.014526,696.024597 546.671997,696.033569 
	C544.872864,696.401917 543.416138,696.761292 541.959473,697.120728 
	C541.959473,697.120728 542.005249,697.012268 541.652283,697.024902 
	C539.542480,697.393311 537.785583,697.749023 536.028748,698.104797 
	C535.541809,698.397888 535.054871,698.690979 533.938416,698.727295 
	C530.884827,698.918274 528.460754,699.366028 526.036682,699.813782 
	C525.576721,699.878784 525.116821,699.943848 523.956055,699.733948 
	C516.180359,699.586121 509.105499,699.713318 502.030670,699.840454 
	C474.232239,697.457764 448.807465,688.015076 424.640961,674.418884 
	C404.156891,662.894409 385.523346,649.106628 368.835632,632.520752 
	C338.870758,602.738525 317.167847,568.062927 304.897797,527.518494 
	C299.301178,509.025391 295.313599,490.236267 292.915710,471.084869 
	C292.735535,469.645935 292.306335,468.238159 292.246277,466.123413 
	C292.083099,463.971130 291.666565,462.511322 291.250031,461.051544 
	C291.190186,460.869751 291.130371,460.687988 291.310272,459.870117 
	C291.278625,451.746338 291.042847,444.256866 290.669800,436.774231 
	C290.639221,436.160736 289.674286,435.593811 289.143463,435.005249 
	C289.089386,434.552826 289.035309,434.100403 289.255951,432.953308 
	C289.691528,423.452728 289.954224,414.646942 289.964111,405.840881 
	C289.968201,402.231171 289.426544,398.620850 289.133118,395.010803 
	C289.084137,394.560516 289.035126,394.110199 289.324097,393.224609 
	C289.509064,391.872009 289.356079,390.954742 289.203094,390.037476 
	C290.469482,377.813232 290.807434,365.401886 293.224640,353.409576 
	C296.665283,336.339691 300.838745,319.323181 306.147217,302.747650 
	C312.931335,281.564453 324.209686,262.673370 338.662567,245.595047 
	C353.693512,227.833618 370.414948,212.186768 390.350159,200.043213 
	C409.331696,188.480591 429.843536,180.772415 451.877533,175.364014 
	C453.335602,175.272995 454.180145,175.068375 455.024719,174.863770 
	C455.024719,174.863754 454.994659,174.971146 455.310486,174.962646 
	C456.760010,174.596115 457.893646,174.238113 459.027313,173.880096 
	C459.027313,173.880081 458.990143,173.980850 459.330872,173.967422 
	C461.128662,173.596405 462.585724,173.238831 464.042786,172.881256 
	C464.042786,172.881256 463.996155,172.988907 464.333282,172.973663 
	C466.125397,172.599304 467.580353,172.240173 469.035339,171.881042 
	C469.035339,171.881042 468.992676,171.985596 469.348633,171.972290 
	C471.483521,171.600540 473.262482,171.242096 475.041443,170.883652 
	C475.041443,170.883652 474.995209,170.988297 475.398071,170.976532 
	C481.068146,170.508102 486.334747,170.043930 491.602844,169.597641 
	C494.730560,169.332687 497.860657,169.095901 500.989685,168.846466 
	C500.788971,168.576523 500.611389,168.283524 500.376312,168.047928 
	C500.281158,167.952530 500.060516,167.982407 499.896942,167.955292 
	C501.353607,167.637726 502.810242,167.320160 505.018158,167.270020 
	C514.505493,167.406433 523.241516,167.275421 531.977600,167.144409 
M622.301086,390.556732 
	C621.161743,390.373779 620.022644,390.032501 618.883118,390.031128 
	C592.729370,389.999359 566.575684,389.991150 540.421997,390.039215 
	C538.974609,390.041870 537.528076,390.567810 535.387451,390.982544 
	C534.918823,390.954193 534.450195,390.925842 533.996521,390.070435 
	C533.978577,389.519073 533.960693,388.967712 533.838074,387.718964 
	C534.787476,385.421295 535.642822,383.079254 536.701538,380.833130 
	C544.281311,364.752625 551.872559,348.677429 559.517029,332.627594 
	C573.091309,304.127716 586.705872,275.646973 600.607483,246.819260 
	C600.397461,246.465225 600.187500,246.111191 599.574463,245.123062 
	C598.017700,244.750000 596.461487,244.054047 594.904114,244.051254 
	C559.645264,243.988327 524.386169,243.972534 489.127625,244.087799 
	C487.421814,244.093369 485.720184,245.376846 483.910187,246.803726 
	C483.897888,247.531601 483.885559,248.259476 483.926392,248.930618 
	C483.926392,248.930618 483.868561,248.878693 483.322388,249.128220 
	C483.187561,249.709778 483.052734,250.291336 482.460083,251.460632 
	C469.770294,294.675110 457.067932,337.885864 444.395752,381.105499 
	C437.572784,404.375824 430.801636,427.661255 424.695435,451.400482 
	C426.827545,451.605652 428.959290,451.984589 431.091827,451.989014 
	C451.721466,452.031616 472.351654,451.950714 492.980377,452.093903 
	C495.280334,452.109833 497.572174,453.297424 499.852295,454.706055 
	C482.886871,511.206604 465.921448,567.707153 448.956024,624.207642 
	C451.000183,622.761780 452.429749,620.990723 453.789398,619.167480 
	C491.913208,568.045532 530.058044,516.939270 568.135193,465.782562 
	C585.427612,442.550140 602.583679,419.216217 620.261780,395.446991 
	C621.174500,393.964691 622.087280,392.482391 622.301086,390.556732 
z"/>
<path fill="#A4A5AB" opacity="1.000000" stroke="none" 
	d="
M526.907898,739.962952 
	C531.037170,739.302246 535.153564,738.543579 539.297913,737.997070 
	C563.392700,734.819885 585.915466,726.984985 606.335693,713.910950 
	C620.335693,704.947449 633.590698,694.820312 647.697144,684.902832 
	C648.487671,684.346497 648.759705,684.100708 649.031799,683.854919 
	C649.031799,683.854919 648.979248,683.967529 649.271118,684.124512 
	C650.034119,686.105835 650.549988,687.919922 650.967712,689.756470 
	C652.048279,694.507935 653.085632,699.269165 654.140198,704.026550 
	C654.140198,704.026550 654.028259,703.991760 654.039795,704.304016 
	C654.408264,705.732849 654.765320,706.849426 655.122314,707.966003 
	C658.153809,715.804932 660.639709,723.910706 664.319641,731.432373 
	C675.071106,753.408081 692.063110,768.824280 714.646484,778.370300 
	C742.441833,790.119385 770.072998,802.256958 797.761475,814.258118 
	C806.235718,817.931152 814.664917,821.707886 823.732849,825.709961 
	C779.853760,868.630432 730.276794,901.803589 673.679199,923.904358 
	C592.594543,955.567078 509.119965,963.616150 423.703278,945.829529 
	C338.042847,927.992249 264.385956,887.585815 201.822083,825.615417 
	C213.335754,820.365906 224.249161,815.080383 235.405640,810.370544 
	C256.116852,801.627014 276.869385,792.962952 297.799042,784.761658 
	C311.901581,779.235718 325.070770,772.486755 336.906189,762.838257 
	C349.256317,752.770142 357.820862,740.193604 363.851135,725.785950 
	C369.504028,712.279785 373.069641,698.194519 373.097107,682.114014 
	C410.567261,712.792725 450.668457,736.029541 499.679565,739.740540 
	C499.721558,740.360352 499.622162,740.543152 499.676453,740.638733 
	C499.744965,740.759399 499.938568,740.878662 500.078644,740.879150 
	C508.845062,740.912537 517.611511,740.939453 526.377869,740.914307 
	C526.555481,740.913818 526.731262,740.293884 526.907898,739.962952 
z"/>
<path fill="#B3BCB3" opacity="1.000000" stroke="none" 
	d="
M731.924194,471.546448 
	C731.600098,469.717468 730.990295,467.429230 731.161621,465.200989 
	C732.008545,454.184875 733.046631,443.183258 734.061218,432.180542 
	C734.196960,430.708313 734.581970,429.259094 735.143311,427.393951 
	C735.435120,426.988708 735.832642,426.993011 735.832642,426.993011 
	C735.876099,428.066711 735.919556,429.140442 735.715576,430.937378 
	C735.327820,433.142517 735.187439,434.624359 735.047119,436.106232 
	C734.030945,447.775757 733.014771,459.445282 731.924194,471.546448 
z"/>
<path fill="#B5BFB4" opacity="1.000000" stroke="none" 
	d="
M289.071320,395.475708 
	C289.426544,398.620850 289.968201,402.231171 289.964111,405.840881 
	C289.954224,414.646942 289.691528,423.452728 289.330566,432.617462 
	C289.090149,420.631073 289.049835,408.285858 289.071320,395.475708 
z"/>
<path fill="#B5BFB4" opacity="1.000000" stroke="none" 
	d="
M289.089203,435.441986 
	C289.674286,435.593811 290.639221,436.160736 290.669800,436.774231 
	C291.042847,444.256866 291.278625,451.746338 291.368347,459.588989 
	C290.469421,451.922211 289.752167,443.900452 289.089203,435.441986 
z"/>
<path fill="#B4BFB4" opacity="1.000000" stroke="none" 
	d="
M499.446228,167.967499 
	C500.060516,167.982407 500.281158,167.952530 500.376312,168.047928 
	C500.611389,168.283524 500.788971,168.576523 500.989685,168.846466 
	C497.860657,169.095901 494.730560,169.332687 491.602844,169.597641 
	C486.334747,170.043930 481.068146,170.508102 475.345825,170.953278 
	C482.925659,169.954453 490.960571,168.967072 499.446228,167.967499 
z"/>
<path fill="#BAC5B7" opacity="1.000000" stroke="none" 
	d="
M526.445557,739.981689 
	C526.731262,740.293884 526.555481,740.913818 526.377869,740.914307 
	C517.611511,740.939453 508.845062,740.912537 500.078644,740.879150 
	C499.938568,740.878662 499.744965,740.759399 499.676453,740.638733 
	C499.622162,740.543152 499.721558,740.360352 499.917908,740.092041 
	C508.716522,739.978699 517.349915,739.989563 526.445557,739.981689 
z"/>
<path fill="#B4BFB4" opacity="1.000000" stroke="none" 
	d="
M654.085938,703.590942 
	C653.085632,699.269165 652.048279,694.507935 650.967712,689.756470 
	C650.549988,687.919922 650.034119,686.105835 649.215027,684.097778 
	C649.640259,683.064636 650.413391,682.215149 651.377747,681.155640 
	C652.284912,688.675964 653.158325,695.915710 654.085938,703.590942 
z"/>
<path fill="#BAC5B7" opacity="1.000000" stroke="none" 
	d="
M735.903809,426.529572 
	C735.832642,426.993011 735.435120,426.988708 735.236816,426.985229 
	C735.181335,417.239685 735.324158,407.497620 735.661377,397.395264 
	C735.895386,406.712036 735.935181,416.389069 735.903809,426.529572 
z"/>
<path fill="#BAC5B7" opacity="1.000000" stroke="none" 
	d="
M531.513672,167.082413 
	C523.241516,167.275421 514.505493,167.406433 505.407410,167.348587 
	C513.713501,167.113297 522.381592,167.066864 531.513672,167.082413 
z"/>
<path fill="#BAC5B7" opacity="1.000000" stroke="none" 
	d="
M502.492798,699.910522 
	C509.105499,699.713318 516.180359,699.586121 523.612671,699.660645 
	C516.965088,699.901672 509.960022,699.941101 502.492798,699.910522 
z"/>
<path fill="#BAC5B7" opacity="1.000000" stroke="none" 
	d="
M526.437317,699.862305 
	C528.460754,699.366028 530.884827,698.918274 533.633789,698.659790 
	C531.585144,699.202942 529.211548,699.556885 526.437317,699.862305 
z"/>
<path fill="#B4BFB4" opacity="1.000000" stroke="none" 
	d="
M558.355713,693.086914 
	C559.772644,692.589966 561.581726,692.035889 563.666626,691.644470 
	C562.210876,692.214661 560.479431,692.622253 558.355713,693.086914 
z"/>
<path fill="#B5BFB4" opacity="1.000000" stroke="none" 
	d="
M291.329041,461.405334 
	C291.666565,462.511322 292.083099,463.971130 292.313293,465.706726 
	C291.887299,464.574707 291.647675,463.166931 291.329041,461.405334 
z"/>
<path fill="#B4BFB4" opacity="1.000000" stroke="none" 
	d="
M536.432922,698.063293 
	C537.785583,697.749023 539.542480,697.393311 541.706421,697.048035 
	C540.354675,697.379639 538.595886,697.700745 536.432922,698.063293 
z"/>
<path fill="#B4BFB4" opacity="1.000000" stroke="none" 
	d="
M474.628418,170.930511 
	C473.262482,171.242096 471.483521,171.600540 469.296417,171.950790 
	C470.663971,171.620865 472.439667,171.299133 474.628418,170.930511 
z"/>
<path fill="#B5BFB4" opacity="1.000000" stroke="none" 
	d="
M289.132721,390.402893 
	C289.356079,390.954742 289.509064,391.872009 289.402649,392.891937 
	C289.116302,392.252502 289.089325,391.510406 289.132721,390.402893 
z"/>
<path fill="#A4A5AB" opacity="1.000000" stroke="none" 
	d="
M735.369690,435.885803 
	C735.187439,434.624359 735.327820,433.142517 735.646179,431.335876 
	C735.780273,432.562531 735.736267,434.113953 735.369690,435.885803 
z"/>
<path fill="#B4BFB4" opacity="1.000000" stroke="none" 
	d="
M468.637085,171.926971 
	C467.580353,172.240173 466.125397,172.599304 464.279541,172.950226 
	C465.338715,172.618973 466.788788,172.295929 468.637085,171.926971 
z"/>
<path fill="#B4BFB4" opacity="1.000000" stroke="none" 
	d="
M463.644684,172.929214 
	C462.585724,173.238831 461.128662,173.596405 459.280579,173.948578 
	C460.341888,173.621155 461.794220,173.299179 463.644684,172.929214 
z"/>
<path fill="#B4BFB4" opacity="1.000000" stroke="none" 
	d="
M542.357178,697.074463 
	C543.416138,696.761292 544.872864,696.401917 546.720886,696.051086 
	C545.659790,696.382446 544.207275,696.705322 542.357178,697.074463 
z"/>
<path fill="#B4BFB4" opacity="1.000000" stroke="none" 
	d="
M551.339233,695.079956 
	C552.098694,694.771667 553.237122,694.413025 554.746216,694.057800 
	C553.984070,694.383972 552.851074,694.706848 551.339233,695.079956 
z"/>
<path fill="#B4BFB4" opacity="1.000000" stroke="none" 
	d="
M547.358582,696.076172 
	C548.113220,695.764648 549.246399,695.406738 550.749268,695.055786 
	C549.991760,695.385071 548.864441,695.707397 547.358582,696.076172 
z"/>
<path fill="#B4BFB4" opacity="1.000000" stroke="none" 
	d="
M458.646851,173.925873 
	C457.893646,174.238113 456.760010,174.596115 455.256897,174.947281 
	C456.013763,174.617493 457.140106,174.294571 458.646851,173.925873 
z"/>
<path fill="#B4BFB4" opacity="1.000000" stroke="none" 
	d="
M655.076416,707.595337 
	C654.765320,706.849426 654.408264,705.732849 654.057495,704.248169 
	C654.385986,704.994873 654.708252,706.109741 655.076416,707.595337 
z"/>
<path fill="#B4BFB4" opacity="1.000000" stroke="none" 
	d="
M555.339417,694.081543 
	C555.801514,693.779114 556.618591,693.428894 557.778259,693.071167 
	C557.312073,693.387146 556.503174,693.710449 555.339417,694.081543 
z"/>
<path fill="#B4BFB4" opacity="1.000000" stroke="none" 
	d="
M454.650391,174.920380 
	C454.180145,175.068375 453.335602,175.272995 452.261414,175.311279 
	C452.779907,175.088974 453.527985,175.032974 454.650391,174.920380 
z"/>
<path fill="#B4BFB4" opacity="1.000000" stroke="none" 
	d="
M648.753540,683.943359 
	C648.759705,684.100708 648.487671,684.346497 648.010864,684.775146 
	C648.029114,684.649170 648.252197,684.340515 648.753540,683.943359 
z"/>
<path fill="#FFD82C" opacity="1.000000" stroke="none" 
	d="
M600.303589,247.158249 
	C586.705872,275.646973 573.091309,304.127716 559.517029,332.627594 
	C551.872559,348.677429 544.281311,364.752625 536.701538,380.833130 
	C535.642822,383.079254 534.787476,385.421295 533.610107,388.183777 
	C533.581909,389.398224 533.781738,390.147858 533.981567,390.897491 
	C534.450195,390.925842 534.918823,390.954193 535.761108,391.006042 
	C536.134705,391.029541 535.975464,391.127930 536.340027,391.322723 
	C537.517761,391.673187 538.330750,391.964020 539.144043,391.964874 
	C563.467041,391.989777 587.790100,391.998718 612.113037,391.951050 
	C613.397278,391.948517 614.680481,391.428223 616.342773,391.078339 
	C617.486328,391.058167 618.251404,391.108582 619.062988,391.437286 
	C619.340271,393.119812 619.570984,394.524109 619.801636,395.928345 
	C602.583679,419.216217 585.427612,442.550140 568.135193,465.782562 
	C530.058044,516.939270 491.913208,568.045532 453.789398,619.167480 
	C452.429749,620.990723 451.000183,622.761780 448.956024,624.207642 
	C465.921448,567.707153 482.886871,511.206604 499.983307,453.975159 
	C501.062439,448.967712 497.547607,451.114258 496.445343,451.106262 
	C472.300110,450.931549 448.153473,450.954651 424.007080,450.939880 
	C430.801636,427.661255 437.572784,404.375824 444.395752,381.105499 
	C457.067932,337.885864 469.770294,294.675110 482.782227,251.344711 
	C483.359100,250.445435 483.613831,249.662064 483.868591,248.878693 
	C483.868561,248.878693 483.926392,248.930618 484.206055,248.714264 
	C486.020996,248.000427 487.555908,247.070145 489.091583,247.068893 
	C526.162231,247.038498 563.232910,247.107330 600.303589,247.158249 
z"/>
<path fill="#969BBB" opacity="1.000000" stroke="none" 
	d="
M484.016602,246.065216 
	C485.720184,245.376846 487.421814,244.093369 489.127625,244.087799 
	C524.386169,243.972534 559.645264,243.988327 594.904114,244.051254 
	C596.461487,244.054047 598.017700,244.750000 599.313110,245.507904 
	C597.391846,245.906082 595.731934,245.929276 594.072083,245.931351 
	C557.386902,245.977386 520.701782,246.021072 484.016602,246.065216 
z"/>
<path fill="#FFE712" opacity="1.000000" stroke="none" 
	d="
M483.963379,246.434479 
	C520.701782,246.021072 557.386902,245.977386 594.072083,245.931351 
	C595.731934,245.929276 597.391846,245.906082 599.514648,245.824951 
	C600.187500,246.111191 600.397461,246.465225 600.455566,246.988770 
	C563.232910,247.107330 526.162231,247.038498 489.091583,247.068893 
	C487.555908,247.070145 486.020996,248.000427 484.179504,248.742630 
	C483.885559,248.259476 483.897888,247.531601 483.963379,246.434479 
z"/>
<path fill="#8B93C7" opacity="1.000000" stroke="none" 
	d="
M619.016418,391.159027 
	C618.251404,391.108582 617.486328,391.058167 615.879150,391.021240 
	C588.683167,391.065826 562.329285,391.096893 535.975464,391.127930 
	C535.975464,391.127930 536.134705,391.029541 536.107910,390.939880 
	C537.528076,390.567810 538.974609,390.041870 540.421997,390.039215 
	C566.575684,389.991150 592.729370,389.999359 618.883118,390.031128 
	C620.022644,390.032501 621.161743,390.373779 622.251465,390.771576 
	C621.140015,391.043945 620.078247,391.101501 619.016418,391.159027 
z"/>
<path fill="#8C95C4" opacity="1.000000" stroke="none" 
	d="
M424.351257,451.170166 
	C448.153473,450.954651 472.300110,450.931549 496.445343,451.106262 
	C497.547607,451.114258 501.062439,448.967712 499.991028,453.592957 
	C497.572174,453.297424 495.280334,452.109833 492.980377,452.093903 
	C472.351654,451.950714 451.721466,452.031616 431.091827,451.989014 
	C428.959290,451.984589 426.827545,451.605652 424.351257,451.170166 
z"/>
<path fill="#FFE716" opacity="1.000000" stroke="none" 
	d="
M619.062988,391.437286 
	C620.078247,391.101501 621.140015,391.043945 622.600952,390.993256 
	C622.087280,392.482391 621.174500,393.964691 620.031738,395.687683 
	C619.570984,394.524109 619.340271,393.119812 619.062988,391.437286 
z"/>
<path fill="#FFE712" opacity="1.000000" stroke="none" 
	d="
M483.595490,249.003448 
	C483.613831,249.662064 483.359100,250.445435 483.011139,251.050842 
	C483.052734,250.291336 483.187561,249.709778 483.595490,249.003448 
z"/>
<path fill="#8B93C7" opacity="1.000000" stroke="none" 
	d="
M533.989014,390.483948 
	C533.781738,390.147858 533.581909,389.398224 533.662476,388.532471 
	C533.960693,388.967712 533.978577,389.519073 533.989014,390.483948 
z"/>
<path fill="#FFE716" opacity="1.000000" stroke="none" 
	d="
M536.340027,391.322754 
	C562.329285,391.096893 588.683167,391.065826 615.500610,391.091858 
	C614.680481,391.428223 613.397278,391.948517 612.113037,391.951050 
	C587.790100,391.998718 563.467041,391.989777 539.144043,391.964874 
	C538.330750,391.964020 537.517761,391.673187 536.340027,391.322754 
z"/>
</svg>