<svg id="svg" xmlns="http://www.w3.org/2000/svg" xmlns:xlink="http://www.w3.org/1999/xlink" width="400" height="400" viewBox="0, 0, 400,400" version="1.1"><g id="svgg"><path id="path1" d="M187.700 0.494 C 187.773 0.853,186.107 1.118,181.600 1.464 C 174.909 1.979,165.771 3.051,164.800 3.436 C 164.470 3.567,162.760 3.915,161.000 4.210 C 156.527 4.959,152.380 5.998,139.400 9.620 C 130.236 12.177,113.738 19.286,102.800 25.389 C 96.834 28.719,85.694 35.748,83.000 37.883 C 82.340 38.406,81.440 39.102,81.000 39.429 C 77.278 42.198,74.474 44.383,71.443 46.875 C 66.785 50.705,51.400 66.100,47.694 70.640 C 39.622 80.526,36.821 84.417,30.587 94.400 C 26.784 100.491,22.083 109.267,19.231 115.600 C 18.290 117.690,17.066 120.390,16.511 121.600 C 14.785 125.366,11.403 135.034,9.236 142.400 C 8.556 144.710,7.731 147.500,7.403 148.600 C 7.075 149.700,6.443 152.220,6.000 154.200 C 5.557 156.180,5.026 158.430,4.821 159.200 C 4.616 159.970,4.242 161.950,3.991 163.600 C 3.739 165.250,3.450 167.050,3.348 167.600 C 3.245 168.150,3.059 169.638,2.932 170.906 C 2.806 172.175,2.557 173.303,2.378 173.414 C 2.199 173.524,2.156 174.251,2.282 175.029 C 2.408 175.807,2.310 176.839,2.064 177.322 C 1.815 177.811,1.480 181.743,1.308 186.200 C 1.075 192.258,0.879 194.176,0.500 194.100 C 0.121 194.024,-0.000 195.213,-0.000 199.000 C -0.000 202.787,0.121 203.976,0.500 203.900 C 0.879 203.824,1.007 205.125,1.030 209.297 C 1.047 212.320,1.182 214.915,1.330 215.063 C 1.479 215.212,1.600 216.527,1.600 217.987 C 1.600 219.446,1.755 220.811,1.945 221.020 C 2.134 221.229,2.512 223.816,2.785 226.769 C 3.057 229.722,3.429 232.422,3.611 232.769 C 3.793 233.116,4.134 234.570,4.370 236.000 C 4.919 239.335,5.833 243.809,6.331 245.600 C 6.545 246.370,7.179 248.710,7.739 250.800 C 10.968 262.852,16.726 278.183,21.485 287.400 C 25.322 294.831,26.698 297.336,29.395 301.800 C 46.279 329.748,71.076 354.521,98.973 371.310 C 109.334 377.546,120.908 383.059,132.000 387.042 C 134.750 388.030,137.450 389.031,138.000 389.268 C 138.550 389.504,139.900 389.934,141.000 390.223 C 142.100 390.511,144.260 391.117,145.800 391.568 C 151.316 393.185,161.230 395.482,164.200 395.831 C 165.300 395.960,166.650 396.229,167.200 396.428 C 169.338 397.201,183.381 398.697,189.113 398.762 C 191.663 398.791,192.478 398.938,192.655 399.400 C 192.910 400.064,195.401 400.246,195.783 399.628 C 196.018 399.247,199.733 399.349,203.519 399.841 C 205.223 400.062,205.615 400.007,205.519 399.558 C 205.422 399.105,206.787 398.945,212.800 398.705 C 216.870 398.543,220.830 398.239,221.600 398.030 C 222.370 397.821,225.430 397.381,228.400 397.053 C 255.220 394.090,285.616 382.573,310.800 365.832 C 323.825 357.173,346.682 336.767,351.578 329.426 C 351.920 328.913,353.550 326.874,355.200 324.894 C 362.868 315.692,370.923 303.405,376.503 292.400 C 377.562 290.310,378.598 288.330,378.805 288.000 C 379.345 287.137,380.984 283.582,382.854 279.215 C 383.746 277.134,384.791 274.704,385.178 273.815 C 388.086 267.124,393.244 250.451,394.772 242.800 C 395.014 241.590,395.489 239.340,395.827 237.800 C 396.766 233.530,397.997 224.854,398.581 218.400 C 399.175 211.835,399.103 212.293,399.500 212.538 C 399.665 212.640,399.800 206.756,399.800 199.462 C 399.800 189.290,399.684 186.125,399.300 185.880 C 398.985 185.679,398.792 184.567,398.779 182.880 C 398.768 181.406,398.590 178.940,398.383 177.400 C 398.177 175.860,397.822 172.980,397.594 171.000 C 397.366 169.020,396.984 166.410,396.746 165.200 C 396.507 163.990,396.071 161.650,395.776 160.000 C 391.854 138.040,380.775 110.497,368.464 92.100 C 365.853 88.198,365.946 88.219,363.286 90.913 C 360.552 93.681,360.431 92.906,364.613 99.400 C 371.430 109.988,380.457 129.850,383.853 141.733 C 386.493 150.969,387.168 153.521,387.838 156.800 C 388.176 158.450,388.720 161.060,389.047 162.600 C 389.374 164.140,389.727 166.120,389.830 167.000 C 389.934 167.880,390.298 170.490,390.640 172.800 C 390.982 175.110,391.325 178.301,391.402 179.891 C 391.479 181.481,391.663 182.979,391.812 183.219 C 391.960 183.459,392.024 185.848,391.954 188.528 C 391.868 191.828,391.984 193.682,392.313 194.274 C 393.060 195.615,392.961 203.192,392.182 204.304 C 391.755 204.913,391.679 205.405,391.934 205.893 C 392.368 206.724,391.782 219.078,391.208 221.200 C 390.999 221.970,390.625 224.760,390.376 227.400 C 390.127 230.040,389.824 232.361,389.702 232.557 C 389.581 232.754,389.237 234.194,388.937 235.757 C 383.588 263.656,371.332 291.760,354.992 313.600 C 347.110 324.134,344.746 326.862,335.755 335.800 C 321.719 349.752,306.646 361.293,293.400 368.231 C 290.980 369.498,288.550 370.838,288.000 371.208 C 283.912 373.960,260.824 383.001,252.800 384.992 C 251.590 385.293,249.340 385.899,247.800 386.339 C 244.171 387.376,234.734 389.252,229.400 389.995 C 227.860 390.210,225.250 390.574,223.600 390.803 C 214.554 392.062,185.295 392.371,180.800 391.256 C 179.810 391.010,176.660 390.546,173.800 390.224 C 167.395 389.503,159.223 387.998,157.400 387.204 C 156.960 387.012,155.700 386.735,154.600 386.589 C 153.500 386.442,151.160 385.857,149.400 385.287 C 147.640 384.718,145.962 384.297,145.670 384.351 C 145.379 384.405,144.929 384.278,144.670 384.070 C 144.412 383.862,141.950 382.962,139.200 382.069 C 134.740 380.622,130.160 378.898,125.410 376.877 C 119.944 374.551,106.272 367.515,101.800 364.725 C 92.442 358.889,86.036 354.233,78.667 347.911 C 76.430 345.992,73.997 343.922,73.259 343.311 C 70.606 341.113,60.315 330.968,59.269 329.520 C 58.681 328.706,56.220 325.793,53.800 323.047 C 51.380 320.300,48.625 317.006,47.678 315.727 C 46.731 314.447,45.196 312.395,44.267 311.166 C 38.160 303.091,27.992 285.581,24.838 277.706 C 24.418 276.658,23.498 274.450,22.793 272.800 C 19.572 265.260,15.289 252.392,14.604 248.200 C 14.460 247.320,14.194 246.240,14.012 245.800 C 13.620 244.850,12.592 240.683,11.991 237.600 C 11.754 236.390,11.290 234.050,10.959 232.400 C 10.628 230.750,10.356 228.686,10.355 227.812 C 10.353 226.939,10.179 226.016,9.967 225.761 C 9.756 225.506,9.496 223.193,9.390 220.621 C 9.285 218.049,9.010 215.592,8.779 215.160 C 8.548 214.728,8.343 213.076,8.323 211.488 C 8.304 209.899,8.216 204.563,8.129 199.628 C 8.041 194.694,8.096 190.374,8.250 190.028 C 8.404 189.683,8.570 187.870,8.619 186.000 C 8.734 181.593,9.535 173.626,9.966 172.600 C 10.151 172.160,10.584 169.550,10.928 166.800 C 11.272 164.050,11.844 160.630,12.199 159.200 C 12.554 157.770,13.023 155.700,13.242 154.600 C 13.460 153.500,13.883 151.790,14.182 150.800 C 14.481 149.810,15.220 147.200,15.823 145.000 C 16.896 141.094,18.168 137.253,20.129 132.000 C 20.663 130.570,21.233 129.040,21.396 128.600 C 21.721 127.720,23.402 123.850,25.998 118.000 C 33.976 100.027,47.446 80.616,62.748 65.044 C 71.507 56.131,79.414 49.307,87.400 43.771 C 88.060 43.314,90.130 41.870,92.000 40.563 C 93.870 39.256,96.750 37.399,98.400 36.437 C 100.050 35.474,101.670 34.456,102.000 34.173 C 102.894 33.407,118.426 25.516,122.800 23.605 C 124.890 22.692,126.960 21.781,127.400 21.580 C 131.990 19.485,147.180 14.519,151.927 13.562 C 152.876 13.371,153.830 13.105,154.046 12.972 C 154.261 12.839,155.824 12.490,157.519 12.198 C 160.290 11.720,162.737 11.246,169.000 9.975 C 171.853 9.396,178.122 8.722,181.400 8.642 C 182.940 8.604,184.380 8.465,184.600 8.332 C 185.356 7.877,219.715 8.224,221.200 8.702 C 221.970 8.949,224.490 9.337,226.800 9.563 C 230.980 9.971,235.189 10.647,239.000 11.522 C 240.100 11.774,242.800 12.366,245.000 12.837 C 261.895 16.454,286.821 26.816,301.597 36.367 C 304.777 38.422,304.583 38.446,307.351 35.650 L 309.677 33.299 308.338 32.297 C 307.602 31.746,306.460 30.997,305.800 30.633 C 305.140 30.269,303.790 29.449,302.800 28.810 C 301.810 28.172,299.560 26.824,297.800 25.815 C 296.040 24.806,294.330 23.806,294.000 23.593 C 292.854 22.853,280.583 17.103,277.700 15.955 C 276.105 15.320,273.405 14.246,271.700 13.568 C 266.114 11.349,256.722 8.413,250.000 6.784 C 246.370 5.905,242.680 5.009,241.800 4.794 C 240.920 4.578,239.120 4.222,237.800 4.002 C 236.480 3.782,234.500 3.425,233.400 3.210 C 230.585 2.657,225.112 2.034,218.800 1.548 C 215.690 1.309,213.230 0.935,213.000 0.666 C 212.730 0.352,211.166 0.231,208.200 0.296 C 195.802 0.568,188.895 0.569,189.061 0.300 C 189.164 0.135,188.877 -0.000,188.424 -0.000 C 187.971 -0.000,187.645 0.222,187.700 0.494 M187.117 22.300 C 186.869 22.599,185.715 22.803,184.251 22.808 C 182.903 22.812,180.540 23.006,179.000 23.238 C 177.460 23.470,175.570 23.721,174.800 23.795 C 172.959 23.974,167.315 25.014,163.800 25.822 C 162.260 26.176,159.830 26.708,158.400 27.003 C 137.496 31.325,108.094 45.800,90.200 60.577 C 89.100 61.485,87.700 62.544,87.090 62.930 C 85.499 63.936,70.234 78.995,67.500 82.256 C 57.956 93.641,54.406 98.623,46.600 111.588 C 38.601 124.874,29.789 147.908,26.930 163.000 C 26.597 164.760,26.058 167.460,25.733 169.000 C 25.121 171.897,24.210 179.528,23.728 185.800 C 23.222 192.387,23.484 215.016,24.083 216.400 C 24.226 216.730,24.529 218.890,24.756 221.200 C 25.287 226.601,26.959 235.883,28.541 242.200 C 28.871 243.520,29.423 245.726,29.767 247.103 C 35.034 268.185,49.319 294.688,65.000 312.474 C 66.760 314.470,69.389 317.475,70.842 319.152 C 73.537 322.262,74.954 323.623,83.651 331.459 C 88.513 335.840,89.785 336.880,97.000 342.367 C 115.144 356.167,137.688 366.546,161.800 372.201 C 163.340 372.562,165.230 373.028,166.000 373.237 C 176.411 376.060,206.346 377.729,215.907 376.018 C 217.168 375.793,220.180 375.435,222.600 375.222 C 228.163 374.735,234.178 373.841,237.568 372.997 C 239.016 372.637,240.830 372.189,241.600 372.002 C 249.576 370.060,254.928 368.539,258.600 367.170 C 275.810 360.753,286.904 355.188,299.555 346.625 C 302.500 344.631,305.581 342.550,306.400 342.000 C 307.220 341.450,308.500 340.501,309.245 339.891 C 318.598 332.235,326.258 325.257,329.600 321.350 C 330.590 320.192,333.001 317.480,334.958 315.323 C 339.558 310.252,343.604 304.975,348.239 298.000 C 349.481 296.130,350.994 293.880,351.600 293.000 C 352.500 291.692,355.887 285.563,359.336 279.000 C 363.061 271.912,369.234 255.954,371.404 247.800 C 373.221 240.973,373.618 239.358,374.220 236.346 C 374.587 234.506,375.152 231.740,375.474 230.200 C 378.012 218.077,379.230 190.604,377.624 181.739 C 377.390 180.453,376.943 176.970,376.628 174.000 C 376.048 168.514,375.603 165.996,374.014 159.200 C 373.525 157.110,372.897 154.410,372.617 153.200 C 371.895 150.069,368.876 140.677,367.282 136.600 C 366.852 135.500,365.992 133.250,365.372 131.600 C 364.069 128.134,356.680 113.207,354.724 110.090 C 348.974 100.926,348.807 100.704,347.887 100.976 C 330.780 106.028,314.214 101.105,304.014 87.939 C 296.673 78.462,293.686 64.469,296.728 53.800 L 297.640 50.600 296.183 49.400 C 293.789 47.428,283.963 42.146,273.800 37.367 C 268.302 34.782,258.789 31.378,251.000 29.207 C 249.240 28.717,247.305 28.133,246.699 27.909 C 246.094 27.685,244.384 27.247,242.899 26.934 C 241.415 26.622,238.940 26.101,237.400 25.776 C 235.860 25.452,233.070 24.933,231.200 24.624 C 229.330 24.315,227.260 23.945,226.600 23.803 C 224.458 23.342,219.464 22.844,216.760 22.822 C 215.308 22.810,213.598 22.623,212.960 22.407 C 211.116 21.783,187.626 21.685,187.117 22.300 M331.168 37.723 C 312.510 42.130,303.908 59.030,311.978 75.427 C 322.444 96.691,355.028 93.082,360.761 70.024 C 362.294 63.854,361.962 59.635,359.468 53.600 C 354.850 42.427,341.933 35.181,331.168 37.723 M207.800 90.421 C 219.888 91.715,224.716 92.636,231.800 95.001 C 238.136 97.117,245.563 100.681,248.783 103.152 C 249.563 103.750,250.740 104.577,251.400 104.991 C 259.451 110.039,272.400 129.395,272.400 136.383 C 272.400 136.964,272.577 137.617,272.794 137.834 C 273.267 138.307,274.057 142.668,274.140 145.265 C 274.173 146.290,274.335 147.265,274.500 147.431 C 274.909 147.843,274.834 159.934,274.400 163.400 C 273.029 174.371,269.080 186.389,263.884 195.400 C 263.377 196.280,262.442 197.900,261.808 199.000 C 260.810 200.729,257.048 206.332,254.082 210.507 C 247.195 220.202,233.878 233.744,216.136 249.098 C 210.388 254.072,204.997 258.610,203.046 260.117 C 199.943 262.514,197.982 262.386,239.700 262.498 L 277.800 262.600 277.800 283.600 L 277.800 304.600 202.800 304.703 C 132.642 304.799,127.768 304.762,127.300 304.126 C 126.923 303.614,126.800 300.070,126.800 289.708 L 126.800 275.969 128.300 274.426 C 130.104 272.571,135.992 267.167,143.488 260.488 C 146.519 257.787,151.340 253.488,154.200 250.935 C 157.060 248.381,160.454 245.371,161.742 244.246 C 163.030 243.121,166.604 239.860,169.684 237.000 C 172.765 234.140,176.031 231.233,176.943 230.541 C 178.922 229.038,190.495 217.392,192.669 214.716 C 193.511 213.680,195.820 211.054,197.800 208.881 C 199.780 206.708,201.799 204.405,202.286 203.765 C 202.774 203.124,204.124 201.392,205.286 199.915 C 213.586 189.374,218.067 182.226,220.030 176.392 C 227.146 155.247,219.702 137.497,201.776 132.867 C 198.480 132.015,186.589 131.023,185.808 131.534 C 185.583 131.680,183.780 132.000,181.800 132.245 C 171.382 133.533,157.493 138.823,145.800 145.957 C 140.481 149.202,141.002 149.493,137.999 141.600 C 136.401 137.402,134.935 133.740,132.874 128.800 C 130.940 124.165,127.854 116.343,127.152 114.296 C 126.515 112.439,126.580 112.365,131.200 109.620 C 141.083 103.750,157.791 96.674,166.200 94.799 C 167.080 94.603,168.970 94.158,170.400 93.812 C 177.237 92.154,186.877 90.754,190.833 90.845 C 192.501 90.883,194.211 90.714,194.633 90.470 C 195.621 89.896,202.657 89.870,207.800 90.421 " stroke="none" fill="#2b9c04" fill-rule="evenodd" data-index="1" style="opacity: 1;"></path></g></svg>