<svg id="svg" xmlns="http://www.w3.org/2000/svg" xmlns:xlink="http://www.w3.org/1999/xlink" width="400" height="398.84726224783867" viewBox="0, 0, 400,398.84726224783867" version="1.1"><g id="svgg"><path id="path1" d="M188.015 0.568 C 187.759 0.824,186.234 0.956,184.238 0.894 C 182.374 0.837,180.783 0.963,180.650 1.180 C 180.517 1.394,179.346 1.502,178.047 1.421 C 176.369 1.315,175.551 1.433,175.224 1.827 C 174.948 2.159,174.019 2.377,172.911 2.370 C 170.525 2.355,167.234 2.631,166.467 2.910 C 165.348 3.319,163.477 3.682,162.076 3.763 C 161.307 3.808,159.654 4.150,158.401 4.523 C 157.148 4.896,155.981 5.169,155.806 5.130 C 155.367 5.031,153.225 5.568,152.480 5.963 C 152.142 6.142,151.064 6.421,150.084 6.583 C 149.105 6.744,148.124 7.013,147.904 7.181 C 147.685 7.348,146.966 7.575,146.307 7.686 C 143.944 8.084,138.316 9.648,137.944 10.010 C 137.736 10.213,137.149 10.379,136.641 10.379 C 136.133 10.379,135.406 10.541,135.025 10.740 C 134.643 10.938,133.523 11.325,132.535 11.601 C 131.547 11.877,130.379 12.316,129.940 12.577 C 129.501 12.838,128.154 13.357,126.946 13.732 C 125.739 14.106,123.493 14.973,121.956 15.659 C 120.419 16.344,118.443 17.209,117.565 17.582 C 113.869 19.149,105.943 22.924,105.389 23.381 C 105.060 23.653,103.263 24.642,101.397 25.579 C 99.531 26.516,97.141 27.888,96.086 28.629 C 95.031 29.370,93.711 30.150,93.151 30.363 C 92.130 30.751,87.798 33.478,87.425 33.967 C 87.315 34.111,85.955 35.048,84.402 36.050 C 82.849 37.052,81.334 38.166,81.036 38.526 C 80.737 38.886,79.852 39.509,79.069 39.910 C 78.285 40.312,77.209 41.107,76.677 41.678 C 76.145 42.248,75.511 42.715,75.269 42.715 C 75.026 42.715,74.536 43.029,74.180 43.413 C 73.823 43.797,72.993 44.561,72.335 45.110 C 68.671 48.168,62.113 54.239,58.371 58.037 C 50.199 66.334,48.703 67.938,48.703 68.398 C 48.703 68.653,48.157 69.401,47.491 70.060 C 45.592 71.937,41.517 76.779,41.517 77.157 C 41.517 77.505,39.846 79.889,38.738 81.122 C 37.611 82.376,36.733 83.608,34.674 86.826 C 33.551 88.583,31.882 91.188,30.965 92.615 C 30.049 94.042,29.085 95.659,28.824 96.208 C 28.563 96.756,28.123 97.560,27.847 97.994 C 25.578 101.559,24.307 103.885,22.068 108.567 C 20.646 111.540,19.253 114.242,18.973 114.571 C 18.693 114.900,18.247 115.888,17.981 116.766 C 17.716 117.645,17.167 119.082,16.762 119.960 C 15.267 123.202,13.946 126.525,13.170 128.997 C 12.731 130.394,12.210 131.896,12.013 132.335 C 11.816 132.774,11.264 134.301,10.785 135.729 C 10.307 137.156,9.751 138.635,9.549 139.017 C 9.347 139.398,9.182 140.071,9.182 140.514 C 9.182 140.956,9.002 141.317,8.782 141.317 C 8.563 141.317,8.375 141.811,8.366 142.415 C 8.345 143.712,7.481 147.143,7.072 147.552 C 6.915 147.709,6.786 148.336,6.786 148.945 C 6.786 149.554,6.624 150.153,6.425 150.276 C 6.226 150.399,6.152 150.839,6.260 151.253 C 6.368 151.667,6.261 152.126,6.023 152.274 C 5.784 152.421,5.589 152.970,5.589 153.493 C 5.589 154.016,5.391 154.566,5.149 154.715 C 4.893 154.874,4.810 155.488,4.951 156.193 C 5.084 156.857,5.036 157.599,4.845 157.842 C 4.227 158.629,3.582 162.293,3.576 165.055 C 3.575 165.705,3.333 166.604,3.039 167.053 C 2.738 167.512,2.588 168.436,2.695 169.167 C 2.800 169.882,2.692 170.701,2.454 170.987 C 2.214 171.276,2.124 172.138,2.252 172.925 C 2.392 173.787,2.271 174.714,1.942 175.295 C 1.416 176.222,1.347 177.306,1.256 186.028 C 1.226 188.937,1.027 190.570,0.606 191.363 C -0.242 192.962,-0.255 205.822,0.589 208.244 C 0.961 209.312,1.214 212.010,1.299 215.829 C 1.372 219.112,1.625 222.098,1.866 222.521 C 2.106 222.942,2.209 223.973,2.097 224.813 C 1.975 225.720,2.089 226.577,2.378 226.925 C 2.645 227.247,2.766 227.667,2.648 227.858 C 2.529 228.050,2.680 229.031,2.984 230.039 C 3.287 231.047,3.437 232.246,3.317 232.704 C 3.197 233.162,3.305 233.785,3.556 234.087 C 3.807 234.389,3.998 235.152,3.980 235.781 C 3.963 236.411,4.153 237.735,4.402 238.723 C 4.651 239.711,4.856 240.968,4.858 241.517 C 4.860 242.066,5.005 242.695,5.180 242.914 C 5.356 243.134,5.630 244.301,5.791 245.509 C 5.951 246.717,6.314 248.159,6.598 248.714 C 7.233 249.954,8.455 254.239,8.443 255.182 C 8.438 255.562,8.592 255.970,8.785 256.089 C 8.978 256.208,9.260 257.137,9.412 258.152 C 9.565 259.167,9.933 260.465,10.231 261.037 C 10.530 261.608,10.775 262.267,10.776 262.500 C 10.777 262.733,11.138 263.668,11.577 264.576 C 12.016 265.485,12.375 266.509,12.375 266.852 C 12.375 267.195,12.534 267.788,12.728 268.169 C 12.922 268.550,13.270 269.311,13.502 269.860 C 13.733 270.409,14.563 272.372,15.345 274.222 C 16.127 276.072,16.766 277.722,16.766 277.889 C 16.766 278.403,19.642 284.578,22.039 289.210 C 23.291 291.631,25.063 295.098,25.976 296.913 C 26.888 298.728,28.468 301.369,29.486 302.781 C 30.504 304.194,31.876 306.196,32.535 307.229 C 37.435 314.914,38.368 316.281,38.972 316.664 C 39.229 316.827,40.075 317.918,40.853 319.089 C 41.630 320.260,42.547 321.451,42.889 321.736 C 43.232 322.021,43.513 322.488,43.513 322.775 C 43.513 323.062,44.609 324.432,45.949 325.820 C 47.289 327.208,48.701 328.843,49.086 329.453 C 49.679 330.393,52.395 333.563,54.461 335.729 C 55.583 336.904,63.680 344.986,64.072 345.322 C 68.613 349.212,69.995 350.411,71.750 351.982 C 72.899 353.011,74.157 354.021,74.544 354.227 C 74.932 354.432,76.238 355.435,77.445 356.454 C 78.653 357.473,80.090 358.594,80.639 358.944 C 81.188 359.294,82.294 360.205,83.098 360.967 C 83.902 361.730,85.518 362.854,86.691 363.465 C 87.863 364.077,89.330 365.002,89.951 365.522 C 90.571 366.042,91.220 366.467,91.393 366.467 C 91.565 366.467,92.405 367.022,93.258 367.701 C 94.112 368.379,95.439 369.193,96.208 369.510 C 96.976 369.827,97.787 370.326,98.011 370.621 C 98.234 370.915,99.278 371.582,100.330 372.105 C 101.383 372.627,106.050 374.970,110.703 377.312 C 119.273 381.627,122.500 383.101,127.545 385.004 C 129.082 385.584,131.687 386.569,133.333 387.193 C 137.620 388.819,143.375 390.650,147.305 391.639 C 149.172 392.109,151.058 392.657,151.497 392.856 C 151.936 393.056,153.194 393.400,154.291 393.622 C 155.389 393.844,156.647 394.107,157.086 394.207 C 157.525 394.306,159.232 394.670,160.878 395.016 C 162.525 395.362,164.681 395.822,165.669 396.039 C 166.657 396.255,168.144 396.419,168.973 396.403 C 169.802 396.387,170.701 396.516,170.969 396.690 C 171.237 396.864,172.176 397.035,173.054 397.071 C 173.932 397.106,175.998 397.332,177.645 397.571 C 179.291 397.811,182.093 398.051,183.871 398.105 C 185.649 398.159,187.355 398.405,187.663 398.652 C 188.462 399.291,210.932 399.094,212.568 398.434 C 213.222 398.170,215.019 397.961,216.560 397.971 C 221.423 398.002,224.541 397.745,225.497 397.234 C 226.005 396.961,226.871 396.851,227.421 396.989 C 227.970 397.127,228.627 397.073,228.881 396.868 C 229.134 396.664,230.150 396.397,231.138 396.274 C 232.899 396.055,234.943 395.754,237.325 395.363 C 237.984 395.255,239.201 395.105,240.030 395.029 C 240.859 394.953,241.794 394.678,242.108 394.417 C 242.423 394.157,242.884 394.070,243.134 394.224 C 243.384 394.379,243.976 394.325,244.449 394.105 C 244.922 393.884,246.028 393.511,246.906 393.276 C 247.784 393.041,249.801 392.468,251.387 392.003 C 252.973 391.538,254.442 391.264,254.653 391.394 C 254.863 391.524,255.147 391.447,255.285 391.224 C 255.423 391.001,255.964 390.818,256.487 390.818 C 257.010 390.818,257.549 390.639,257.685 390.419 C 257.820 390.200,258.420 390.020,259.017 390.020 C 259.613 390.020,260.456 389.785,260.889 389.497 C 261.532 389.070,264.687 387.902,265.469 387.802 C 265.579 387.787,266.364 387.472,267.214 387.101 C 268.065 386.731,268.936 386.427,269.150 386.427 C 269.365 386.427,270.106 386.164,270.798 385.842 C 271.490 385.520,274.122 384.432,276.647 383.424 C 279.172 382.416,281.988 381.153,282.905 380.616 C 283.823 380.080,284.869 379.641,285.230 379.641 C 285.868 379.641,293.907 375.590,294.915 374.760 C 295.484 374.292,297.156 373.349,299.800 372.005 C 300.788 371.503,302.753 370.321,304.166 369.378 C 305.579 368.436,306.939 367.665,307.188 367.665 C 307.437 367.665,308.347 367.062,309.210 366.326 C 310.072 365.590,311.332 364.703,312.009 364.354 C 312.686 364.006,313.977 363.127,314.878 362.400 C 315.779 361.673,317.530 360.359,318.768 359.481 C 320.006 358.603,321.986 357.039,323.167 356.007 C 324.349 354.974,325.818 353.867,326.431 353.545 C 327.043 353.224,328.228 352.138,329.062 351.131 C 329.896 350.125,330.823 349.301,331.121 349.301 C 331.420 349.301,332.699 348.224,333.965 346.906 C 335.230 345.589,336.415 344.511,336.597 344.511 C 337.252 344.511,350.653 330.228,352.874 327.163 C 353.631 326.118,354.664 324.993,355.169 324.662 C 355.675 324.331,356.088 323.833,356.088 323.556 C 356.088 323.280,357.345 321.507,358.882 319.617 C 360.419 317.726,361.677 316.038,361.677 315.864 C 361.677 315.562,363.348 313.172,366.161 309.455 C 367.868 307.199,368.660 305.935,369.584 303.992 C 370.001 303.114,370.729 302.053,371.200 301.635 C 371.671 301.216,372.056 300.621,372.056 300.311 C 372.056 300.001,372.492 299.175,373.025 298.476 C 373.559 297.777,374.371 296.328,374.830 295.257 C 375.289 294.186,376.110 292.780,376.655 292.133 C 377.199 291.486,377.645 290.663,377.645 290.303 C 377.645 289.944,379.082 286.752,380.838 283.209 C 382.595 279.667,384.032 276.472,384.032 276.110 C 384.032 275.748,384.548 274.328,385.179 272.955 C 385.810 271.582,386.992 268.483,387.805 266.068 C 388.619 263.653,389.452 261.317,389.657 260.878 C 390.009 260.122,390.743 257.646,391.669 254.092 C 391.897 253.214,392.242 252.136,392.436 251.697 C 392.629 251.257,392.984 249.731,393.224 248.303 C 393.609 246.011,394.037 244.311,394.732 242.315 C 394.847 241.986,394.987 241.267,395.042 240.719 C 395.169 239.466,395.598 237.512,395.917 236.727 C 396.051 236.397,396.203 235.589,396.255 234.930 C 396.308 234.271,396.547 232.834,396.788 231.737 C 397.028 230.639,397.213 228.903,397.197 227.879 C 397.182 226.855,397.370 225.894,397.615 225.742 C 397.895 225.569,397.965 224.900,397.803 223.941 C 397.638 222.968,397.735 222.079,398.070 221.487 C 398.380 220.939,398.611 219.168,398.633 217.166 C 398.653 215.299,398.692 211.413,398.719 208.529 C 398.754 204.847,398.922 203.123,399.284 202.740 C 399.896 202.094,399.842 198.367,399.140 192.926 C 398.791 190.221,398.779 188.633,399.096 186.938 C 399.454 185.020,399.423 184.468,398.913 183.668 C 398.449 182.938,398.358 182.083,398.539 180.142 C 398.724 178.163,398.633 177.359,398.141 176.607 C 397.718 175.961,397.578 175.168,397.727 174.251 C 397.855 173.463,397.770 172.757,397.529 172.608 C 397.275 172.451,397.196 171.598,397.331 170.460 C 397.466 169.314,397.380 168.398,397.112 168.130 C 396.869 167.887,396.614 167.009,396.546 166.179 C 396.299 163.172,395.745 160.187,394.599 155.689 C 394.236 154.261,393.902 152.645,393.858 152.096 C 393.814 151.547,393.535 150.387,393.238 149.517 C 392.941 148.648,392.667 147.660,392.630 147.322 C 392.525 146.372,392.039 144.663,390.638 140.319 C 389.930 138.124,389.031 135.250,388.640 133.932 C 388.249 132.615,387.728 130.998,387.482 130.339 C 387.236 129.681,387.033 129.038,387.031 128.911 C 387.028 128.784,386.728 128.065,386.363 127.314 C 385.198 124.912,384.107 122.416,383.235 120.160 C 382.769 118.952,381.967 117.156,381.454 116.168 C 380.940 115.180,379.857 112.754,379.047 110.778 C 378.237 108.802,377.330 106.912,377.031 106.578 C 376.732 106.244,375.739 104.537,374.823 102.785 C 373.907 101.034,372.551 98.684,371.808 97.563 C 371.066 96.443,370.459 95.357,370.459 95.150 C 370.459 94.943,370.193 94.422,369.868 93.993 C 368.592 92.310,364.756 86.369,364.085 85.039 L 363.377 83.633 365.157 80.040 C 367.951 74.402,369.321 67.280,368.528 62.515 C 367.994 59.305,367.301 56.279,366.875 55.289 C 365.130 51.241,364.354 49.632,363.897 49.113 C 363.602 48.777,363.006 47.832,362.572 47.011 C 360.941 43.927,350.296 35.529,348.018 35.529 C 347.680 35.529,347.169 35.247,346.883 34.902 C 346.587 34.545,346.023 34.365,345.572 34.483 C 345.137 34.596,344.426 34.500,343.992 34.267 C 340.036 32.150,326.426 33.770,320.402 37.077 C 316.631 39.146,316.314 39.135,313.489 36.826 C 312.212 35.783,310.506 34.593,309.697 34.180 C 308.888 33.768,307.826 33.004,307.337 32.484 C 306.848 31.963,306.148 31.537,305.781 31.537 C 305.414 31.537,304.793 31.182,304.400 30.749 C 304.008 30.315,303.307 29.844,302.842 29.702 C 302.377 29.560,301.142 28.837,300.099 28.095 C 299.055 27.353,298.086 26.747,297.945 26.747 C 297.803 26.747,296.771 26.141,295.650 25.402 C 294.530 24.662,293.164 23.920,292.615 23.753 C 292.066 23.585,291.168 23.143,290.619 22.771 C 288.550 21.367,284.320 19.208,281.238 17.983 C 279.481 17.285,277.146 16.298,276.048 15.790 C 272.424 14.111,269.195 12.839,265.070 11.462 C 264.082 11.133,262.196 10.503,260.878 10.062 C 254.573 7.955,248.644 6.392,243.444 5.465 C 241.980 5.204,240.647 4.855,240.484 4.691 C 240.320 4.526,239.688 4.391,239.079 4.391 C 238.470 4.391,237.851 4.197,237.705 3.960 C 237.558 3.722,237.019 3.633,236.508 3.762 C 235.996 3.890,235.470 3.820,235.338 3.607 C 235.206 3.394,234.516 3.241,233.805 3.268 C 233.094 3.294,232.128 3.111,231.658 2.859 C 231.188 2.608,230.251 2.513,229.575 2.648 C 228.858 2.791,228.110 2.698,227.780 2.425 C 227.469 2.167,226.436 1.996,225.484 2.044 C 224.532 2.093,223.367 1.926,222.896 1.674 C 222.425 1.421,221.078 1.245,219.902 1.283 C 218.726 1.321,216.918 1.162,215.884 0.930 C 214.600 0.642,213.361 0.635,211.983 0.907 C 210.326 1.235,209.840 1.196,209.273 0.691 C 208.420 -0.069,188.766 -0.183,188.015 0.568 M219.361 16.374 C 222.216 16.578,225.112 16.932,225.797 17.162 C 226.482 17.391,227.321 17.472,227.662 17.342 C 228.002 17.211,228.699 17.336,229.210 17.620 C 229.721 17.903,230.589 18.176,231.138 18.227 C 233.297 18.424,237.767 19.233,238.523 19.563 C 238.962 19.755,240.632 20.133,242.234 20.403 C 243.835 20.672,245.238 21.042,245.351 21.225 C 245.464 21.407,246.074 21.557,246.707 21.557 C 247.339 21.557,247.976 21.749,248.121 21.983 C 248.266 22.218,248.630 22.316,248.929 22.200 C 249.554 21.961,252.873 22.878,254.554 23.755 C 255.178 24.080,256.005 24.347,256.393 24.349 C 256.780 24.350,257.409 24.522,257.790 24.730 C 258.171 24.939,260.100 25.642,262.076 26.293 C 267.249 27.997,269.640 29.038,279.725 33.980 C 283.284 35.724,286.446 37.401,286.752 37.707 C 287.058 38.014,287.919 38.537,288.664 38.871 C 289.410 39.204,290.469 39.736,291.018 40.051 C 291.567 40.367,292.514 40.858,293.122 41.143 C 293.730 41.428,294.886 42.246,295.690 42.961 C 296.494 43.676,297.598 44.374,298.145 44.511 C 298.692 44.648,299.961 45.386,300.967 46.151 C 301.972 46.916,303.561 48.076,304.497 48.728 C 306.386 50.044,306.434 50.580,304.933 53.577 C 304.525 54.392,304.192 55.384,304.192 55.783 C 304.192 56.183,303.925 56.889,303.599 57.354 C 303.274 57.819,302.887 59.521,302.739 61.136 C 302.591 62.751,302.209 64.475,301.890 64.967 C 301.283 65.903,301.495 67.864,302.203 67.864 C 302.419 67.864,302.595 68.671,302.595 69.656 C 302.595 76.451,310.382 90.399,315.411 92.612 C 315.937 92.844,317.086 93.469,317.964 94.002 C 318.842 94.536,319.830 95.080,320.160 95.211 C 321.007 95.551,324.220 97.019,325.034 97.439 C 325.410 97.633,325.975 97.692,326.291 97.571 C 326.607 97.450,326.984 97.543,327.129 97.777 C 327.274 98.012,327.820 98.204,328.343 98.204 C 328.866 98.204,329.383 98.347,329.491 98.522 C 329.816 99.048,339.288 98.658,341.800 98.014 C 343.087 97.684,344.268 97.441,344.425 97.474 C 344.839 97.561,346.821 96.738,349.004 95.572 C 351.958 93.995,352.514 94.466,357.285 102.595 C 358.252 104.242,359.366 106.017,359.761 106.541 C 360.156 107.064,360.479 107.790,360.479 108.153 C 360.479 108.516,361.011 109.435,361.660 110.195 C 362.310 110.955,362.849 111.719,362.858 111.894 C 362.872 112.169,368.392 123.689,369.909 126.608 C 370.211 127.191,370.459 127.957,370.459 128.311 C 370.459 128.985,370.600 129.329,371.955 131.959 C 372.414 132.849,372.914 134.243,373.067 135.057 C 373.219 135.870,373.488 136.625,373.663 136.733 C 373.839 136.842,374.104 137.647,374.251 138.523 C 374.399 139.399,374.667 140.206,374.845 140.316 C 375.023 140.426,375.383 141.460,375.644 142.614 C 375.905 143.767,376.374 145.281,376.686 145.977 C 376.998 146.674,377.339 147.752,377.442 148.373 C 377.887 151.044,378.667 154.330,378.968 154.794 C 379.147 155.070,379.184 155.639,379.051 156.058 C 378.919 156.476,378.997 156.935,379.225 157.076 C 379.454 157.217,379.641 157.760,379.641 158.283 C 379.641 158.806,379.835 159.354,380.072 159.501 C 380.313 159.650,380.394 160.207,380.255 160.760 C 380.118 161.306,380.173 161.960,380.377 162.214 C 380.747 162.673,381.171 165.011,381.365 167.665 C 381.421 168.433,381.615 169.378,381.796 169.765 C 381.977 170.152,382.041 171.044,381.938 171.747 C 381.822 172.533,381.965 173.239,382.308 173.583 C 382.637 173.911,382.872 174.984,382.880 176.192 C 382.920 182.314,383.095 184.784,383.585 186.180 C 383.972 187.284,384.052 188.661,383.863 190.971 C 383.374 196.949,383.306 203.775,383.715 205.803 C 384.006 207.247,383.984 208.598,383.634 210.594 C 383.367 212.122,383.088 214.721,383.016 216.367 C 382.754 222.296,382.275 226.632,381.735 227.944 C 381.600 228.273,381.448 229.172,381.398 229.940 C 381.245 232.302,380.442 236.486,379.988 237.287 C 379.492 238.161,379.181 239.677,379.200 241.118 C 379.207 241.667,379.051 242.475,378.852 242.914 C 378.653 243.353,378.312 244.521,378.094 245.509 C 377.547 247.989,376.821 250.780,376.535 251.497 C 376.404 251.826,376.283 252.365,376.266 252.695 C 376.187 254.267,373.213 262.883,371.169 267.465 C 369.880 270.353,369.342 271.686,369.073 272.655 C 368.829 273.535,367.308 276.968,366.420 278.643 C 366.245 278.972,365.206 281.038,364.110 283.234 C 360.967 289.529,358.519 293.844,356.840 296.045 C 355.987 297.163,355.289 298.316,355.289 298.606 C 355.289 298.897,355.016 299.419,354.681 299.767 C 354.346 300.115,353.176 301.747,352.080 303.393 C 346.204 312.220,327.252 334.132,325.492 334.132 C 325.272 334.132,323.219 335.940,320.931 338.150 C 318.642 340.361,315.870 342.766,314.772 343.496 C 313.673 344.226,312.432 345.202,312.014 345.665 C 311.596 346.128,311.057 346.510,310.816 346.514 C 310.576 346.518,309.977 346.946,309.484 347.465 C 308.992 347.984,307.959 348.708,307.189 349.073 C 306.419 349.439,305.788 349.904,305.788 350.106 C 305.788 350.309,304.835 351.064,303.669 351.784 C 300.505 353.740,300.462 353.767,297.872 355.489 C 296.551 356.367,294.783 357.494,293.943 357.993 C 286.939 362.151,285.646 362.874,285.217 362.874 C 284.948 362.874,284.523 363.122,284.271 363.425 C 284.020 363.728,283.262 364.086,282.588 364.221 C 281.913 364.356,279.946 365.262,278.216 366.235 C 276.487 367.207,274.663 368.125,274.163 368.275 C 273.663 368.425,271.681 369.247,269.760 370.102 C 267.838 370.957,266.078 371.657,265.848 371.657 C 265.619 371.657,264.727 371.996,263.868 372.412 C 263.008 372.827,261.355 373.392,260.194 373.666 C 259.034 373.941,257.729 374.410,257.296 374.708 C 256.863 375.006,256.120 375.250,255.645 375.250 C 255.170 375.250,254.267 375.518,253.638 375.846 C 253.010 376.174,252.046 376.450,251.497 376.459 C 250.948 376.468,250.050 376.732,249.501 377.046 C 248.952 377.360,248.007 377.623,247.400 377.631 C 246.793 377.638,245.985 377.803,245.603 377.997 C 244.421 378.598,241.374 379.320,240.148 379.291 C 239.505 379.275,238.786 379.415,238.551 379.601 C 238.136 379.930,236.584 380.297,234.132 380.645 C 233.473 380.739,231.228 381.102,229.142 381.454 C 224.941 382.161,221.864 382.468,217.964 382.568 C 216.537 382.605,215.100 382.813,214.770 383.030 C 213.784 383.681,181.827 383.246,180.728 382.566 C 180.501 382.426,178.529 382.259,176.345 382.193 C 173.730 382.115,172.073 381.877,171.493 381.497 C 170.998 381.173,170.139 381.010,169.535 381.126 C 168.943 381.239,168.214 381.129,167.916 380.881 C 167.618 380.634,166.765 380.452,166.022 380.478 C 165.279 380.503,163.952 380.307,163.074 380.041 C 162.196 379.775,161.028 379.529,160.479 379.493 C 159.930 379.458,159.301 379.318,159.082 379.182 C 158.862 379.046,157.874 378.811,156.886 378.659 C 155.898 378.508,154.371 378.059,153.493 377.663 C 152.615 377.266,151.447 376.933,150.898 376.923 C 150.349 376.912,148.194 376.336,146.108 375.643 C 144.022 374.949,142.046 374.326,141.717 374.257 C 141.387 374.189,140.040 373.742,138.723 373.265 C 137.405 372.787,135.359 372.051,134.175 371.629 C 132.991 371.207,131.823 370.705,131.580 370.513 C 131.337 370.321,130.419 369.936,129.541 369.658 C 128.663 369.380,127.137 368.728,126.151 368.209 C 125.165 367.690,124.228 367.265,124.069 367.265 C 123.710 367.265,115.806 363.347,113.373 361.963 C 112.385 361.401,110.948 360.620,110.180 360.227 C 109.411 359.834,107.626 358.742,106.213 357.800 C 104.800 356.858,103.435 356.088,103.179 356.088 C 102.924 356.088,101.926 355.504,100.963 354.790 C 99.999 354.077,98.740 353.224,98.164 352.894 C 97.589 352.565,96.329 351.723,95.365 351.023 C 94.401 350.323,92.735 349.156,91.663 348.428 C 90.591 347.701,88.575 346.163,87.184 345.010 C 85.793 343.857,84.541 342.914,84.402 342.914 C 82.717 342.914,60.363 320.533,55.806 314.284 C 54.510 312.507,52.365 309.671,50.490 307.257 C 48.434 304.611,43.980 297.877,42.323 294.910 C 41.618 293.648,40.879 292.514,40.680 292.392 C 40.482 292.269,40.319 291.925,40.319 291.628 C 40.319 291.331,39.689 290.130,38.918 288.960 C 38.148 287.790,37.219 286.023,36.855 285.033 C 36.490 284.043,35.959 282.956,35.674 282.617 C 35.081 281.914,31.936 275.315,31.936 274.777 C 31.936 274.581,31.235 273.075,30.378 271.429 C 29.521 269.783,28.609 267.634,28.351 266.653 C 28.093 265.673,27.443 263.930,26.906 262.781 C 26.370 261.631,25.819 260.105,25.684 259.388 C 25.548 258.670,25.305 257.904,25.145 257.685 C 24.985 257.465,24.629 256.297,24.354 255.090 C 24.079 253.882,23.706 252.535,23.524 252.096 C 23.114 251.104,21.922 246.521,21.655 244.910 C 21.546 244.251,21.303 243.519,21.116 243.283 C 20.929 243.047,20.727 241.969,20.668 240.888 C 20.608 239.807,20.350 238.743,20.094 238.523 C 19.640 238.133,18.738 232.467,18.767 230.193 C 18.776 229.563,18.617 228.844,18.416 228.596 C 17.867 227.918,17.229 222.554,17.008 216.766 C 16.937 214.900,16.712 212.962,16.508 212.458 C 16.293 211.927,16.269 210.088,16.450 208.067 C 16.656 205.781,16.615 204.226,16.330 203.525 C 16.051 202.837,15.987 200.786,16.149 197.737 C 16.288 195.139,16.379 191.179,16.352 188.936 C 16.325 186.693,16.452 184.627,16.635 184.345 C 16.817 184.063,17.006 182.575,17.056 181.038 C 17.221 175.860,17.470 173.649,17.953 173.067 C 18.249 172.711,18.330 172.013,18.164 171.257 C 18.015 170.581,18.066 169.810,18.278 169.545 C 18.489 169.279,18.786 167.581,18.939 165.771 C 19.091 163.960,19.386 161.895,19.593 161.180 C 19.800 160.465,20.155 158.727,20.382 157.317 C 20.610 155.907,20.921 154.560,21.075 154.323 C 21.229 154.086,21.556 152.994,21.802 151.896 C 22.471 148.915,24.358 142.485,24.970 141.101 C 25.266 140.433,25.681 139.176,25.892 138.307 C 26.274 136.736,26.845 135.026,27.750 132.735 C 28.011 132.076,28.466 130.908,28.762 130.140 C 29.058 129.371,29.623 128.204,30.018 127.545 C 30.413 126.886,30.739 125.988,30.744 125.549 C 30.749 125.110,31.289 123.779,31.943 122.591 C 32.598 121.403,33.134 120.160,33.134 119.828 C 33.134 119.496,33.374 118.941,33.667 118.594 C 33.960 118.248,34.443 117.335,34.740 116.567 C 35.037 115.798,35.740 114.469,36.303 113.613 C 37.826 111.293,37.781 111.374,39.121 108.583 C 41.130 104.398,42.495 102.002,44.153 99.750 C 45.810 97.499,46.448 96.495,47.044 95.201 C 47.248 94.757,48.244 93.377,49.257 92.134 C 50.269 90.891,51.098 89.760,51.098 89.621 C 51.098 89.360,54.116 85.495,55.505 83.976 C 55.936 83.506,56.287 82.962,56.287 82.768 C 56.287 82.573,57.725 80.908,59.481 79.067 C 61.238 77.226,62.675 75.551,62.675 75.345 C 62.675 75.140,65.337 72.339,68.590 69.122 C 74.887 62.896,76.153 61.731,80.240 58.396 C 81.667 57.232,83.373 55.742,84.032 55.085 C 84.691 54.429,85.376 53.892,85.556 53.892 C 85.735 53.892,86.845 53.129,88.021 52.196 C 89.197 51.262,91.078 49.870,92.200 49.102 C 93.322 48.333,95.120 47.076,96.195 46.307 C 99.166 44.184,103.256 41.711,106.636 39.995 C 108.310 39.145,110.197 38.088,110.828 37.647 C 112.260 36.645,121.192 32.339,121.862 32.326 C 122.133 32.322,122.804 31.966,123.353 31.537 C 123.902 31.108,124.716 30.752,125.161 30.747 C 125.606 30.743,126.344 30.477,126.800 30.157 C 127.603 29.594,131.065 28.293,135.852 26.753 C 137.127 26.343,138.384 25.838,138.646 25.631 C 139.163 25.223,143.086 23.879,144.091 23.766 C 144.432 23.727,145.070 23.556,145.509 23.386 C 148.271 22.313,149.346 22.002,151.113 21.765 C 152.202 21.618,154.531 21.084,156.287 20.578 C 158.044 20.071,159.840 19.651,160.279 19.643 C 160.719 19.636,161.796 19.415,162.675 19.152 C 163.553 18.890,164.810 18.640,165.469 18.596 C 166.128 18.552,166.936 18.406,167.265 18.272 C 168.371 17.823,176.626 16.921,182.435 16.615 C 183.862 16.540,185.424 16.318,185.905 16.123 C 186.992 15.682,212.315 15.872,219.361 16.374 M199.601 79.748 C 195.404 79.825,193.428 80.026,192.415 80.479 C 190.805 81.198,188.364 82.299,185.928 83.405 C 184.995 83.828,183.154 84.653,181.836 85.238 C 180.519 85.823,177.824 87.075,175.848 88.021 C 171.210 90.241,168.481 91.477,165.269 92.813 C 163.842 93.406,162.391 94.143,162.044 94.451 C 161.698 94.758,161.069 95.019,160.647 95.029 C 160.225 95.040,159.251 95.392,158.483 95.812 C 154.315 98.091,144.495 102.595,143.694 102.595 C 143.409 102.595,142.864 102.878,142.481 103.224 C 142.099 103.570,140.827 104.253,139.655 104.742 C 133.304 107.391,130.051 109.452,130.893 110.294 C 131.137 110.539,131.337 111.253,131.337 111.883 C 131.337 112.512,131.513 113.355,131.728 113.757 C 131.943 114.159,132.198 115.270,132.294 116.226 C 132.389 117.182,132.738 118.772,133.069 119.760 C 133.685 121.600,134.557 126.129,134.564 127.527 C 134.566 127.956,134.760 128.537,134.993 128.819 C 135.227 129.101,135.305 129.628,135.166 129.991 C 135.026 130.353,135.259 131.388,135.682 132.291 C 136.105 133.194,136.575 135.010,136.727 136.327 C 136.879 137.645,137.143 138.902,137.314 139.122 C 137.484 139.341,137.735 140.150,137.871 140.918 C 138.933 146.946,138.935 146.952,139.867 146.701 C 141.004 146.395,145.525 144.364,149.701 142.282 C 151.567 141.352,154.082 140.243,155.289 139.818 C 156.497 139.392,158.184 138.568,159.038 137.985 C 159.892 137.403,160.864 136.926,161.197 136.926 C 161.738 136.926,164.463 135.665,171.713 132.058 C 172.951 131.442,174.422 130.938,174.982 130.938 C 175.543 130.938,176.116 130.751,176.258 130.523 C 176.788 129.664,182.544 127.295,182.998 127.748 C 183.548 128.299,183.649 148.629,183.608 251.031 C 183.587 303.309,183.647 309.144,184.217 310.014 L 184.849 310.978 209.217 310.978 C 225.251 310.978,233.850 310.837,234.358 310.565 C 235.118 310.158,235.130 308.437,235.130 194.889 L 235.130 79.627 220.259 79.634 C 212.081 79.638,202.784 79.689,199.601 79.748 " stroke="none" fill="#fbfb4c" fill-rule="evenodd" data-index="1" style="opacity: 1;"></path></g></svg>