<svg id="svg" xmlns="http://www.w3.org/2000/svg" xmlns:xlink="http://www.w3.org/1999/xlink" width="400" height="258.1039755351682" viewBox="0, 0, 400,258.1039755351682" version="1.1"><g id="svgg"><path id="path0" d="M362.815 0.387 C 362.815 0.628,362.571 0.775,362.169 0.775 C 361.703 0.775,361.524 0.914,361.524 1.273 C 361.524 1.594,361.316 1.801,360.943 1.854 C 360.569 1.907,360.332 2.144,360.279 2.518 C 360.234 2.837,360.088 3.099,359.956 3.099 C 359.824 3.099,359.716 3.433,359.716 3.842 C 359.716 4.960,358.286 5.653,357.965 4.690 C 357.754 4.057,356.617 4.348,356.617 5.036 C 356.617 5.552,356.488 5.681,355.972 5.681 C 355.498 5.681,355.326 5.819,355.326 6.198 C 355.326 6.542,355.154 6.714,354.810 6.714 C 354.431 6.714,354.293 6.886,354.293 7.360 C 354.293 7.876,354.164 8.005,353.648 8.005 C 353.131 8.005,353.002 8.134,353.002 8.651 C 353.002 9.167,352.873 9.296,352.356 9.296 C 351.840 9.296,351.711 9.425,351.711 9.942 C 351.711 10.458,351.582 10.587,351.065 10.587 C 350.592 10.587,350.420 10.725,350.420 11.104 C 350.420 11.454,350.247 11.620,349.885 11.620 C 349.392 11.620,349.383 11.653,349.767 12.038 C 350.132 12.403,350.139 12.524,349.819 13.006 C 349.403 13.633,348.379 13.794,348.176 13.265 C 347.920 12.598,346.804 12.836,346.804 13.557 C 346.804 14.074,346.675 14.203,346.159 14.203 C 345.642 14.203,345.513 14.332,345.513 14.848 C 345.513 15.322,345.376 15.494,344.997 15.494 C 344.652 15.494,344.480 15.666,344.480 16.010 C 344.480 16.389,344.308 16.527,343.835 16.527 C 343.318 16.527,343.189 16.656,343.189 17.172 C 343.189 17.689,343.060 17.818,342.544 17.818 C 342.027 17.818,341.898 17.947,341.898 18.464 C 341.898 18.937,341.760 19.109,341.382 19.109 C 341.037 19.109,340.865 19.281,340.865 19.626 C 340.865 20.073,340.693 20.142,339.574 20.142 C 338.509 20.142,338.286 20.221,338.303 20.594 C 338.315 20.864,338.376 20.916,338.454 20.723 C 338.623 20.303,339.998 20.303,340.158 20.723 C 340.387 21.325,339.870 22.208,339.288 22.208 C 338.979 22.208,338.595 22.389,338.434 22.609 C 338.093 23.075,337.336 22.879,337.336 22.326 C 337.336 22.119,337.549 21.950,337.809 21.950 C 338.070 21.950,338.283 21.825,338.283 21.673 C 338.283 21.115,337.122 21.554,337.038 22.143 C 336.985 22.517,336.778 22.724,336.457 22.724 C 336.098 22.724,335.959 22.904,335.959 23.370 C 335.959 23.886,335.830 24.015,335.313 24.015 C 334.840 24.015,334.668 24.153,334.668 24.532 C 334.668 24.911,334.495 25.048,334.022 25.048 C 333.505 25.048,333.376 25.178,333.376 25.694 C 333.376 26.210,333.247 26.340,332.731 26.340 C 332.214 26.340,332.085 26.469,332.085 26.985 C 332.085 27.459,331.947 27.631,331.569 27.631 C 331.190 27.631,331.052 27.803,331.052 28.276 C 331.052 28.678,330.906 28.922,330.665 28.922 C 330.429 28.922,330.278 29.162,330.278 29.536 C 330.278 30.031,329.489 31.127,329.399 30.756 C 329.385 30.700,329.111 30.737,328.789 30.839 C 328.467 30.941,328.271 31.133,328.352 31.265 C 328.515 31.528,328.133 31.597,327.885 31.350 C 327.652 31.117,327.973 30.453,328.239 30.617 C 328.366 30.696,328.470 30.571,328.470 30.339 C 328.470 29.663,327.325 29.962,327.225 30.665 C 327.172 31.038,326.965 31.246,326.644 31.246 C 326.285 31.246,326.146 31.426,326.146 31.892 C 326.146 32.408,326.017 32.537,325.500 32.537 C 324.984 32.537,324.855 32.666,324.855 33.183 C 324.855 33.699,324.726 33.828,324.209 33.828 C 323.743 33.828,323.564 33.967,323.564 34.327 C 323.564 34.647,323.356 34.855,322.983 34.908 C 322.609 34.961,322.372 35.198,322.319 35.571 C 322.266 35.945,322.058 36.152,321.738 36.152 C 321.385 36.152,321.240 36.332,321.240 36.768 C 321.240 37.159,321.058 37.431,320.740 37.514 C 320.380 37.608,320.280 37.796,320.381 38.185 C 320.489 38.596,320.330 38.835,319.721 39.182 C 319.280 39.433,318.918 39.797,318.917 39.991 C 318.916 40.239,318.743 40.290,318.334 40.161 C 316.674 39.637,316.333 39.675,316.333 40.384 C 316.333 40.932,316.211 41.059,315.688 41.059 C 315.171 41.059,315.042 41.188,315.042 41.704 C 315.042 42.331,314.990 42.350,313.234 42.350 C 311.478 42.350,311.427 42.331,311.427 41.704 C 311.427 41.188,311.298 41.059,310.781 41.059 C 310.265 41.059,310.136 40.930,310.136 40.413 C 310.136 39.868,310.015 39.768,309.361 39.768 C 308.935 39.768,308.586 39.871,308.586 39.998 C 308.586 40.390,307.766 40.567,307.391 40.257 C 307.196 40.095,307.037 39.686,307.037 39.349 C 307.037 39.011,306.921 38.735,306.779 38.735 C 306.637 38.735,306.520 38.444,306.520 38.089 C 306.520 37.573,306.391 37.444,305.875 37.444 C 305.358 37.444,305.229 37.314,305.229 36.798 C 305.229 36.281,305.100 36.152,304.584 36.152 C 304.067 36.152,303.938 36.023,303.938 35.507 C 303.938 34.990,303.809 34.861,303.292 34.861 C 302.812 34.861,302.647 34.725,302.647 34.326 C 302.647 33.827,302.550 33.803,301.190 33.973 L 299.733 34.155 299.869 33.443 C 299.974 32.895,299.893 32.702,299.518 32.604 C 299.213 32.524,299.032 32.247,299.032 31.861 C 299.032 31.306,298.921 31.246,297.888 31.246 C 296.898 31.246,296.732 31.168,296.661 30.665 C 296.586 30.140,296.450 30.089,295.247 30.138 C 293.915 30.192,293.724 30.027,294.212 29.245 C 294.354 29.018,294.217 28.922,293.753 28.922 C 293.220 28.922,293.092 28.797,293.092 28.276 C 293.092 27.674,293.006 27.631,291.801 27.631 C 290.596 27.631,290.510 27.588,290.510 26.985 C 290.510 26.255,289.617 26.086,288.720 26.647 C 288.083 27.044,287.411 26.539,287.411 25.662 C 287.411 25.133,287.287 25.048,286.507 25.048 C 285.776 25.048,285.604 24.950,285.604 24.532 C 285.604 24.092,285.431 24.015,284.442 24.015 C 283.374 24.015,283.280 23.963,283.280 23.370 C 283.280 22.767,283.193 22.724,281.988 22.724 C 280.783 22.724,280.697 22.681,280.697 22.079 C 280.697 21.487,280.601 21.433,279.553 21.433 C 278.563 21.433,278.398 21.355,278.327 20.852 C 278.251 20.319,278.090 20.265,276.372 20.195 C 274.712 20.128,274.500 20.062,274.500 19.614 C 274.500 19.021,272.540 18.877,271.690 19.408 C 270.961 19.863,270.368 19.501,270.368 18.601 C 270.368 18.170,270.281 17.832,270.174 17.849 C 269.220 17.999,268.589 17.767,268.514 17.237 C 268.439 16.709,268.272 16.649,266.688 16.580 C 265.157 16.512,264.945 16.442,264.945 15.999 C 264.945 15.533,264.754 15.494,262.492 15.494 C 260.047 15.494,260.039 15.492,260.039 14.848 C 260.039 14.425,259.895 14.203,259.620 14.203 C 259.278 14.203,259.260 14.274,259.520 14.587 C 259.981 15.142,259.639 15.805,258.942 15.706 C 258.496 15.642,258.363 15.457,258.370 14.913 L 258.381 14.203 256.111 14.203 C 253.862 14.203,253.841 14.197,253.841 13.557 L 253.841 12.912 248.935 12.912 L 244.028 12.912 244.028 12.261 L 244.028 11.611 232.029 11.625 L 220.030 11.640 220.173 12.355 C 220.377 13.377,219.818 13.779,218.872 13.288 C 218.338 13.011,217.199 12.912,214.561 12.912 L 210.975 12.912 210.975 13.557 L 210.975 14.203 208.005 14.203 L 205.036 14.203 205.036 14.848 C 205.036 15.465,204.967 15.494,203.486 15.494 C 202.027 15.494,201.937 15.530,201.937 16.108 C 201.937 17.036,201.273 17.482,200.685 16.950 C 199.828 16.174,196.514 16.351,196.514 17.172 C 196.514 17.804,196.471 17.818,194.577 17.818 C 192.683 17.818,192.640 17.832,192.640 18.464 C 192.640 19.091,192.589 19.109,190.833 19.109 C 189.197 19.109,189.025 19.158,189.025 19.626 C 189.025 20.066,188.853 20.142,187.863 20.142 C 186.801 20.142,186.701 20.197,186.701 20.776 C 186.701 21.385,186.624 21.414,184.829 21.486 C 183.111 21.556,182.950 21.610,182.874 22.143 C 182.803 22.646,182.637 22.724,181.648 22.724 C 180.599 22.724,180.504 22.778,180.504 23.370 C 180.504 23.963,180.409 24.015,179.342 24.015 C 178.352 24.015,178.179 24.092,178.179 24.532 C 178.179 24.980,178.007 25.048,176.888 25.048 C 175.683 25.048,175.597 25.091,175.597 25.694 C 175.597 26.287,175.502 26.340,174.435 26.340 C 173.368 26.340,173.273 26.392,173.273 26.985 C 173.273 27.588,173.187 27.631,171.982 27.631 C 170.777 27.631,170.691 27.674,170.691 28.276 C 170.691 28.793,170.562 28.922,170.045 28.922 C 169.572 28.922,169.400 29.060,169.400 29.438 C 169.400 29.878,169.227 29.955,168.238 29.955 C 167.170 29.955,167.076 30.007,167.076 30.600 C 167.076 31.117,166.946 31.246,166.430 31.246 C 165.913 31.246,165.784 31.375,165.784 31.892 C 165.784 32.485,165.690 32.537,164.622 32.537 C 163.555 32.537,163.460 32.590,163.460 33.183 C 163.460 33.699,163.331 33.828,162.815 33.828 C 162.347 33.828,162.169 33.967,162.169 34.331 C 162.169 34.747,161.958 34.846,160.943 34.912 C 159.896 34.979,159.704 35.076,159.633 35.571 C 159.580 35.945,159.373 36.152,159.052 36.152 C 158.693 36.152,158.554 36.332,158.554 36.798 C 158.554 37.314,158.425 37.444,157.908 37.444 C 157.392 37.444,157.263 37.573,157.263 38.089 C 157.263 38.477,157.115 38.735,156.893 38.735 C 156.681 38.735,156.487 39.038,156.441 39.445 C 156.359 40.154,154.939 40.720,154.939 40.043 C 154.939 39.892,154.641 39.768,154.277 39.768 C 153.739 39.768,153.630 39.876,153.696 40.349 C 153.761 40.815,153.637 40.946,153.066 41.011 C 152.509 41.076,152.356 41.228,152.356 41.721 C 152.356 42.220,152.223 42.350,151.711 42.350 C 151.194 42.350,151.065 42.479,151.065 42.995 C 151.065 43.469,150.927 43.641,150.549 43.641 C 150.204 43.641,150.032 43.813,150.032 44.158 C 150.032 44.536,149.860 44.674,149.387 44.674 C 148.870 44.674,148.741 44.803,148.741 45.320 C 148.741 45.836,148.612 45.965,148.096 45.965 C 147.579 45.965,147.450 46.094,147.450 46.611 C 147.450 47.127,147.321 47.256,146.804 47.256 C 146.331 47.256,146.159 47.394,146.159 47.773 C 146.159 48.117,145.987 48.289,145.642 48.289 C 145.264 48.289,145.126 48.461,145.126 48.935 C 145.126 49.451,144.997 49.580,144.480 49.580 C 143.964 49.580,143.835 49.709,143.835 50.226 C 143.835 50.742,143.706 50.872,143.189 50.872 C 142.673 50.872,142.544 51.001,142.544 51.517 C 142.544 52.034,142.414 52.163,141.898 52.163 C 141.425 52.163,141.252 52.300,141.252 52.679 C 141.252 52.963,141.136 53.196,140.994 53.196 C 140.852 53.196,140.736 53.308,140.736 53.446 C 140.736 53.583,140.892 53.636,141.082 53.563 C 141.272 53.490,141.559 53.589,141.720 53.782 C 142.139 54.287,141.365 55.351,140.706 55.179 C 140.400 55.099,140.219 55.186,140.219 55.415 C 140.219 55.630,139.957 55.778,139.574 55.778 C 139.057 55.778,138.928 55.907,138.928 56.423 C 138.928 56.940,138.799 57.069,138.283 57.069 C 137.817 57.069,137.637 57.208,137.637 57.568 C 137.637 57.887,137.430 58.096,137.059 58.149 C 136.726 58.196,136.439 58.449,136.382 58.745 C 136.328 59.027,136.066 59.412,135.799 59.599 C 135.463 59.834,135.313 60.253,135.313 60.957 C 135.313 61.871,135.247 61.975,134.668 61.975 C 134.202 61.975,134.022 62.114,134.022 62.474 C 134.022 62.794,133.814 63.002,133.441 63.055 C 132.945 63.125,132.848 63.317,132.781 64.364 C 132.714 65.404,132.622 65.591,132.172 65.591 C 131.619 65.591,131.624 65.520,132.000 67.786 C 132.102 68.405,130.992 68.683,130.619 68.131 C 130.431 67.853,130.393 67.862,130.427 68.173 C 130.515 69.002,130.383 69.206,129.761 69.206 C 129.159 69.206,129.116 69.292,129.116 70.497 L 129.116 71.788 127.175 71.788 C 126.108 71.788,125.014 71.927,124.743 72.096 C 124.074 72.513,123.348 71.925,123.507 71.094 C 123.619 70.509,123.579 70.497,121.462 70.497 C 119.331 70.497,119.303 70.489,119.303 69.852 L 119.303 69.206 108.974 69.206 L 98.644 69.206 98.644 69.841 C 98.644 70.463,98.593 70.479,96.385 70.552 C 94.322 70.620,94.125 70.671,94.125 71.143 C 94.125 72.031,93.792 72.312,93.066 72.037 C 91.674 71.507,90.123 71.717,90.123 72.434 C 90.123 73.048,89.542 73.344,89.253 72.877 C 88.940 72.369,86.380 72.936,86.296 73.531 C 86.224 74.034,86.059 74.112,85.069 74.112 C 84.021 74.112,83.925 74.166,83.925 74.758 C 83.925 75.360,83.839 75.403,82.634 75.403 C 81.429 75.403,81.343 75.447,81.343 76.049 C 81.343 76.522,81.205 76.695,80.826 76.695 C 80.482 76.695,80.310 76.867,80.310 77.211 C 80.310 77.659,80.138 77.728,79.019 77.728 C 77.814 77.728,77.728 77.771,77.728 78.373 C 77.728 78.890,77.598 79.019,77.082 79.019 C 76.566 79.019,76.436 79.148,76.436 79.664 C 76.436 80.112,76.295 80.310,75.974 80.310 C 75.641 80.310,75.515 80.506,75.522 81.011 C 75.531 81.589,75.410 81.722,74.837 81.769 C 74.365 81.808,74.182 81.721,74.267 81.498 C 74.357 81.264,74.169 81.204,73.607 81.286 C 72.983 81.378,72.821 81.528,72.821 82.018 C 72.821 82.503,72.684 82.634,72.176 82.634 C 71.659 82.634,71.530 82.763,71.530 83.280 C 71.530 83.753,71.392 83.925,71.014 83.925 C 70.468 83.925,70.237 85.283,70.731 85.589 C 71.261 85.916,70.697 86.766,69.951 86.766 C 69.461 86.766,69.206 86.898,69.206 87.153 C 69.206 87.394,68.962 87.540,68.560 87.540 C 68.044 87.540,67.915 87.669,67.915 88.186 C 67.915 88.702,67.786 88.832,67.269 88.832 C 66.753 88.832,66.624 88.961,66.624 89.477 C 66.624 89.951,66.486 90.123,66.107 90.123 C 65.667 90.123,65.591 90.295,65.591 91.285 C 65.591 92.352,65.538 92.447,64.945 92.447 C 64.429 92.447,64.300 92.576,64.300 93.092 C 64.300 93.609,64.170 93.738,63.654 93.738 C 63.061 93.738,63.008 93.833,63.008 94.900 C 63.008 95.909,62.937 96.062,62.465 96.062 C 61.952 96.062,61.927 96.172,62.013 98.063 L 62.105 100.065 61.394 100.054 C 60.729 100.045,60.684 100.113,60.684 101.152 C 60.684 102.161,60.627 102.260,60.039 102.260 C 59.412 102.260,59.393 102.312,59.393 104.049 C 59.393 105.709,59.351 105.845,58.812 105.921 C 58.252 106.001,58.228 106.113,58.158 109.038 L 58.086 112.072 56.932 112.072 C 55.873 112.072,55.778 112.126,55.778 112.718 C 55.778 113.361,55.769 113.363,53.325 113.363 C 51.044 113.363,50.872 113.400,50.872 113.880 C 50.872 114.283,50.699 114.396,50.090 114.396 C 49.430 114.396,49.285 114.516,49.155 115.165 C 48.927 116.306,48.433 116.616,47.654 116.105 C 46.570 115.395,44.674 115.540,44.674 116.333 C 44.674 116.926,44.579 116.979,43.512 116.979 C 42.445 116.979,42.350 117.031,42.350 117.624 C 42.350 118.238,42.276 118.270,40.865 118.274 C 39.943 118.276,39.512 118.361,39.728 118.498 C 40.179 118.784,39.981 119.718,39.494 119.601 C 37.754 119.186,37.385 119.216,37.717 119.747 C 37.895 120.033,37.969 120.457,37.880 120.689 C 37.702 121.152,36.793 121.262,36.540 120.852 C 36.173 120.259,34.861 120.561,34.861 121.240 C 34.861 121.832,34.767 121.885,33.699 121.885 C 32.632 121.885,32.537 121.938,32.537 122.531 C 32.537 123.047,32.408 123.176,31.892 123.176 C 31.418 123.176,31.246 123.314,31.246 123.693 C 31.246 124.133,31.074 124.209,30.084 124.209 C 29.017 124.209,28.922 124.262,28.922 124.855 C 28.922 125.371,28.793 125.500,28.276 125.500 C 27.760 125.500,27.631 125.629,27.631 126.146 C 27.631 126.662,27.502 126.791,26.985 126.791 C 26.469 126.791,26.340 126.921,26.340 127.437 C 26.340 127.825,26.192 128.083,25.969 128.083 C 25.761 128.083,25.564 128.384,25.517 128.773 C 25.423 129.574,24.978 129.811,24.510 129.310 C 23.964 128.726,22.724 129.059,22.724 129.790 C 22.724 130.276,22.587 130.407,22.079 130.407 C 21.562 130.407,21.433 130.536,21.433 131.052 C 21.433 131.569,21.304 131.698,20.788 131.698 C 20.271 131.698,20.142 131.827,20.142 132.343 C 20.142 132.817,20.004 132.989,19.626 132.989 C 19.281 132.989,19.109 133.161,19.109 133.505 C 19.109 133.884,18.937 134.022,18.464 134.022 C 17.800 134.022,17.477 135.330,18.053 135.686 C 18.183 135.766,18.250 136.035,18.202 136.282 C 18.155 136.530,18.107 136.829,18.096 136.945 C 18.085 137.061,17.815 137.120,17.495 137.074 C 16.823 136.979,16.532 135.890,17.085 135.540 C 17.350 135.372,17.326 135.320,16.979 135.317 C 16.615 135.314,16.527 135.539,16.527 136.475 C 16.527 137.465,16.450 137.637,16.010 137.637 C 15.632 137.637,15.494 137.809,15.494 138.283 C 15.494 138.799,15.365 138.928,14.848 138.928 C 14.332 138.928,14.203 139.057,14.203 139.574 C 14.203 140.090,14.074 140.219,13.557 140.219 C 13.012 140.219,12.912 140.340,12.912 140.994 C 12.912 141.420,13.035 141.769,13.187 141.769 C 13.338 141.769,13.426 142.081,13.381 142.462 C 13.269 143.406,11.966 143.824,11.799 142.969 C 11.712 142.525,11.684 142.556,11.656 143.125 C 11.630 143.651,11.487 143.835,11.104 143.835 C 10.656 143.835,10.587 144.007,10.587 145.126 C 10.587 146.331,10.544 146.417,9.942 146.417 C 9.468 146.417,9.296 146.555,9.296 146.934 C 9.296 147.316,9.124 147.450,8.631 147.450 C 8.067 147.450,7.973 147.557,8.013 148.160 C 8.120 149.779,8.032 150.032,7.360 150.032 C 6.767 150.032,6.714 150.127,6.714 151.194 C 6.714 152.184,6.637 152.356,6.198 152.356 C 5.750 152.356,5.681 152.529,5.681 153.648 C 5.681 154.506,5.573 154.940,5.358 154.943 C 5.141 154.945,5.126 155.009,5.313 155.136 C 5.465 155.241,5.665 155.529,5.756 155.778 C 5.956 156.319,4.779 156.446,4.561 155.907 C 4.489 155.730,4.422 156.252,4.410 157.069 C 4.391 158.475,4.356 158.554,3.744 158.554 C 3.118 158.554,3.099 158.607,3.099 160.344 C 3.099 162.003,3.056 162.139,2.518 162.216 C 1.990 162.291,1.930 162.458,1.860 164.041 C 1.793 165.573,1.723 165.784,1.279 165.784 C 1.002 165.784,0.775 165.898,0.775 166.036 C 0.775 166.196,1.003 166.201,1.400 166.050 C 1.949 165.841,2.057 165.903,2.285 166.557 C 2.595 167.447,2.138 167.990,1.304 167.725 C 0.799 167.565,0.775 167.657,0.775 169.770 C 0.775 171.564,0.702 171.982,0.387 171.982 C 0.048 171.982,0.000 173.517,0.000 184.248 C 0.000 194.979,0.048 196.514,0.387 196.514 C 0.708 196.514,0.775 196.998,0.775 199.319 C 0.775 202.110,0.778 202.123,1.371 202.009 C 1.704 201.946,2.106 202.061,2.280 202.271 C 2.604 202.661,2.440 203.486,2.038 203.486 C 1.911 203.486,1.808 204.358,1.808 205.423 C 1.808 207.317,1.822 207.360,2.453 207.360 C 3.084 207.360,3.099 207.403,3.099 209.296 C 3.099 211.190,3.113 211.233,3.744 211.233 C 4.302 211.233,4.390 211.349,4.390 212.081 C 4.390 212.814,4.483 212.936,5.086 212.986 C 5.955 213.058,6.220 213.464,5.917 214.263 C 5.553 215.218,5.606 216.576,5.991 216.191 C 6.397 215.785,6.990 215.793,6.908 216.204 C 6.872 216.382,6.776 216.585,6.695 216.656 C 6.244 217.049,6.860 219.628,7.424 219.708 C 7.744 219.753,8.005 219.899,8.005 220.031 C 8.005 220.163,8.357 220.271,8.788 220.271 C 9.689 220.271,10.051 220.864,9.595 221.593 C 9.042 222.479,9.216 223.370,9.942 223.370 C 10.535 223.370,10.587 223.465,10.587 224.532 C 10.587 225.522,10.664 225.694,11.104 225.694 C 11.483 225.694,11.620 225.866,11.620 226.340 C 11.620 226.856,11.750 226.985,12.266 226.985 C 12.655 226.985,12.912 227.133,12.912 227.356 C 12.912 227.586,13.231 227.758,13.751 227.808 C 14.649 227.895,14.738 228.221,14.320 229.890 C 14.160 230.529,14.210 230.600,14.818 230.600 C 15.367 230.600,15.494 230.722,15.494 231.246 C 15.494 231.719,15.632 231.892,16.010 231.892 C 16.389 231.892,16.527 232.064,16.527 232.537 C 16.527 233.054,16.656 233.183,17.172 233.183 C 17.689 233.183,17.818 233.312,17.818 233.828 C 17.818 234.345,17.947 234.474,18.464 234.474 C 18.937 234.474,19.109 234.612,19.109 234.990 C 19.109 235.335,19.281 235.507,19.626 235.507 C 20.004 235.507,20.142 235.679,20.142 236.152 C 20.142 236.669,20.271 236.798,20.788 236.798 C 21.304 236.798,21.433 236.927,21.433 237.444 C 21.433 237.960,21.562 238.089,22.079 238.089 C 22.595 238.089,22.724 238.218,22.724 238.735 C 22.724 239.251,22.853 239.380,23.370 239.380 C 23.853 239.380,24.015 239.516,24.015 239.920 C 24.015 240.404,24.142 240.451,25.237 240.372 C 26.354 240.292,26.488 240.345,26.800 240.994 C 26.989 241.385,27.252 241.704,27.387 241.704 C 27.521 241.704,27.631 241.995,27.631 242.350 C 27.631 242.866,27.760 242.995,28.276 242.995 C 28.750 242.995,28.922 243.133,28.922 243.512 C 28.922 243.952,29.094 244.028,30.084 244.028 C 31.151 244.028,31.246 244.081,31.246 244.674 C 31.246 245.190,31.375 245.320,31.892 245.320 C 32.408 245.320,32.537 245.449,32.537 245.965 C 32.537 246.557,32.633 246.611,33.681 246.611 C 34.671 246.611,34.836 246.689,34.908 247.192 C 34.978 247.688,35.170 247.784,36.217 247.851 C 37.233 247.917,37.444 248.016,37.444 248.432 C 37.444 248.856,37.627 248.935,38.606 248.935 C 39.673 248.935,39.768 248.987,39.768 249.580 C 39.768 250.183,39.854 250.226,41.059 250.226 C 42.264 250.226,42.350 250.269,42.350 250.872 C 42.350 251.499,42.402 251.517,44.158 251.517 C 45.913 251.517,45.965 251.536,45.965 252.163 C 45.965 252.790,46.017 252.808,47.773 252.808 C 49.408 252.808,49.580 252.857,49.580 253.325 C 49.580 253.805,49.753 253.841,52.034 253.841 C 54.478 253.841,54.487 253.843,54.487 254.487 L 54.487 255.132 57.586 255.132 L 60.684 255.132 60.684 255.778 L 60.684 256.423 65.591 256.423 L 70.497 256.423 70.497 257.069 L 70.497 257.715 77.841 257.715 C 82.459 257.715,85.245 257.619,85.345 257.456 C 85.654 256.957,86.766 257.159,86.766 257.715 C 86.766 258.225,86.938 258.231,100.968 258.231 C 114.999 258.231,115.171 258.225,115.171 257.715 C 115.171 257.336,115.343 257.198,115.817 257.198 C 116.172 257.198,116.462 257.316,116.462 257.461 C 116.462 257.634,118.604 257.700,122.724 257.655 L 128.986 257.586 129.069 257.005 C 129.148 256.449,129.258 256.423,131.587 256.423 C 134.012 256.423,134.022 256.421,134.022 255.778 C 134.022 255.304,134.160 255.132,134.538 255.132 C 134.917 255.132,135.055 254.960,135.055 254.487 C 135.055 253.970,135.184 253.841,135.700 253.841 C 136.174 253.841,136.346 253.703,136.346 253.325 C 136.346 252.946,136.518 252.808,136.992 252.808 C 137.717 252.808,137.891 251.917,137.338 251.031 C 136.914 250.353,137.245 249.709,138.016 249.709 C 138.734 249.709,139.011 251.078,138.347 251.346 C 138.154 251.424,138.206 251.485,138.476 251.497 C 138.849 251.514,138.928 251.291,138.928 250.226 C 138.928 249.107,138.997 248.935,139.445 248.935 C 139.789 248.935,139.961 248.763,139.961 248.418 C 139.961 248.040,140.133 247.902,140.607 247.902 C 141.123 247.902,141.252 247.773,141.252 247.256 C 141.252 246.740,141.382 246.611,141.898 246.611 C 142.672 246.611,142.768 245.901,142.126 244.922 C 141.789 244.408,141.770 244.209,142.028 243.898 C 142.417 243.429,143.484 243.388,143.664 243.835 C 143.735 244.012,143.803 243.896,143.814 243.577 C 143.828 243.174,143.994 242.995,144.351 242.995 C 144.730 242.995,144.868 242.823,144.868 242.350 C 144.868 241.833,144.997 241.704,145.513 241.704 C 146.030 241.704,146.159 241.575,146.159 241.059 C 146.159 240.542,146.288 240.413,146.804 240.413 C 147.321 240.413,147.450 240.284,147.450 239.768 C 147.450 239.361,147.596 239.122,147.844 239.122 C 148.305 239.122,148.825 237.921,148.651 237.258 C 148.561 236.911,148.684 236.798,149.153 236.798 C 149.643 236.798,149.774 236.662,149.774 236.152 C 149.774 235.636,149.903 235.507,150.420 235.507 C 150.885 235.507,151.065 235.368,151.065 235.008 C 151.065 234.688,151.273 234.480,151.646 234.427 C 152.142 234.357,152.239 234.165,152.306 233.118 C 152.371 232.102,152.471 231.892,152.887 231.892 C 153.251 231.892,153.389 231.713,153.389 231.246 C 153.389 230.730,153.518 230.600,154.035 230.600 C 154.508 230.600,154.680 230.463,154.680 230.084 C 154.680 229.698,154.853 229.567,155.359 229.567 C 156.025 229.567,156.035 229.543,155.865 228.265 C 155.671 226.802,156.852 225.015,157.844 225.271 C 158.115 225.341,158.296 225.242,158.296 225.024 C 158.296 224.809,158.559 224.661,158.941 224.661 C 159.458 224.661,159.587 224.532,159.587 224.015 C 159.587 223.499,159.716 223.370,160.232 223.370 C 160.749 223.370,160.878 223.241,160.878 222.724 C 160.878 222.208,161.007 222.079,161.524 222.079 C 162.040 222.079,162.169 221.950,162.169 221.433 C 162.169 220.960,162.307 220.788,162.686 220.788 C 163.030 220.788,163.202 220.615,163.202 220.271 C 163.202 219.896,163.374 219.755,163.830 219.755 C 164.360 219.755,164.455 219.634,164.437 218.989 C 164.416 218.253,163.977 218.121,163.977 218.851 C 163.977 219.381,163.538 219.554,163.361 219.094 C 163.273 218.866,163.317 218.762,163.463 218.853 C 163.604 218.939,163.727 218.916,163.738 218.802 C 163.781 218.333,163.990 217.281,164.101 216.979 C 164.166 216.801,164.571 216.656,165.002 216.656 C 165.490 216.656,165.760 216.535,165.720 216.333 C 165.684 216.152,165.966 215.975,166.365 215.929 C 166.867 215.871,167.076 215.700,167.076 215.348 C 167.076 215.020,167.254 214.848,167.592 214.848 C 167.971 214.848,168.108 214.676,168.108 214.203 C 168.108 213.686,168.238 213.557,168.754 213.557 C 169.270 213.557,169.400 213.428,169.400 212.912 C 169.400 212.395,169.529 212.266,170.045 212.266 C 170.511 212.266,170.691 212.127,170.691 211.767 C 170.691 211.447,170.898 211.239,171.272 211.186 C 171.645 211.133,171.882 210.896,171.935 210.523 C 171.988 210.150,172.196 209.942,172.516 209.942 C 172.820 209.942,173.013 209.766,173.011 209.490 C 173.008 209.175,172.946 209.134,172.806 209.354 C 172.375 210.033,171.342 209.864,171.254 209.101 C 171.170 208.363,171.966 207.790,172.692 208.067 C 172.870 208.134,173.015 208.003,173.015 207.775 C 173.015 207.504,173.240 207.360,173.660 207.360 C 174.126 207.360,174.306 207.221,174.306 206.861 C 174.306 206.541,174.514 206.333,174.887 206.280 C 175.260 206.227,175.498 205.990,175.551 205.617 C 175.604 205.243,175.811 205.036,176.132 205.036 C 176.491 205.036,176.630 204.856,176.630 204.390 C 176.630 203.873,176.759 203.744,177.276 203.744 C 177.792 203.744,177.921 203.615,177.921 203.099 C 177.921 202.582,178.050 202.453,178.567 202.453 C 179.032 202.453,179.212 202.314,179.212 201.955 C 179.212 201.634,179.420 201.427,179.793 201.374 C 180.167 201.321,180.404 201.084,180.457 200.710 C 180.510 200.337,180.718 200.129,181.038 200.129 C 181.312 200.129,181.536 200.013,181.536 199.871 C 181.536 199.309,180.713 199.657,180.298 200.393 C 179.747 201.371,178.838 201.367,178.838 200.387 C 178.838 199.907,178.992 199.720,179.442 199.655 C 179.775 199.608,180.103 199.353,180.172 199.089 C 180.241 198.825,180.548 198.573,180.853 198.530 C 181.209 198.479,181.407 198.266,181.407 197.934 C 181.407 197.563,181.569 197.426,181.982 197.448 C 182.334 197.467,182.616 197.292,182.709 196.996 C 182.804 196.699,183.104 196.514,183.491 196.514 C 183.989 196.514,184.119 196.380,184.119 195.868 C 184.119 195.352,184.248 195.223,184.764 195.223 C 185.281 195.223,185.410 195.094,185.410 194.577 C 185.410 194.104,185.548 193.932,185.926 193.932 C 186.305 193.932,186.443 193.759,186.443 193.286 C 186.443 192.770,186.572 192.640,187.088 192.640 C 187.562 192.640,187.734 192.503,187.734 192.124 C 187.734 191.745,187.906 191.607,188.380 191.607 C 188.896 191.607,189.025 191.478,189.025 190.962 C 189.025 190.445,189.154 190.316,189.671 190.316 C 190.187 190.316,190.316 190.187,190.316 189.671 C 190.316 189.197,190.454 189.025,190.833 189.025 C 191.212 189.025,191.349 188.853,191.349 188.380 C 191.349 187.863,191.478 187.734,191.995 187.734 C 192.468 187.734,192.640 187.596,192.640 187.218 C 192.640 186.839,192.813 186.701,193.286 186.701 C 193.802 186.701,193.932 186.572,193.932 186.056 C 193.932 185.544,194.062 185.410,194.560 185.410 C 195.054 185.410,195.206 185.258,195.270 184.700 C 195.331 184.169,195.474 184.011,195.836 184.073 C 196.235 184.142,196.293 184.043,196.161 183.519 C 196.051 183.081,196.122 182.835,196.387 182.734 C 196.599 182.652,196.772 182.373,196.772 182.113 C 196.772 181.546,197.250 181.020,197.764 181.020 C 197.968 181.020,198.273 180.831,198.442 180.601 C 198.652 180.314,198.929 180.239,199.324 180.365 C 200.074 180.603,199.936 181.326,199.095 181.576 C 198.496 181.753,198.505 181.763,199.225 181.716 C 199.813 181.678,200.020 181.525,200.083 181.085 C 200.136 180.711,200.343 180.504,200.664 180.504 C 201.023 180.504,201.162 180.324,201.162 179.858 C 201.162 179.342,201.291 179.212,201.808 179.212 C 202.273 179.212,202.453 179.073,202.453 178.714 C 202.453 178.394,202.661 178.186,203.034 178.133 C 203.408 178.080,203.645 177.843,203.698 177.469 C 203.751 177.096,203.958 176.888,204.279 176.888 C 204.638 176.888,204.777 176.708,204.777 176.243 C 204.777 175.726,204.906 175.597,205.423 175.597 C 205.939 175.597,206.068 175.468,206.068 174.952 C 206.068 174.435,206.198 174.306,206.714 174.306 C 207.180 174.306,207.360 174.167,207.360 173.808 C 207.360 173.487,207.567 173.280,207.941 173.226 C 208.314 173.173,208.551 172.936,208.604 172.563 C 208.657 172.190,208.865 171.982,209.185 171.982 C 209.545 171.982,209.684 171.802,209.684 171.336 C 209.684 170.820,209.813 170.691,210.329 170.691 C 210.846 170.691,210.975 170.562,210.975 170.045 C 210.975 169.529,211.104 169.400,211.620 169.400 C 212.086 169.400,212.266 169.261,212.266 168.901 C 212.266 168.581,212.474 168.373,212.847 168.320 C 213.220 168.267,213.458 168.030,213.511 167.657 C 213.564 167.283,213.771 167.076,214.092 167.076 C 214.451 167.076,214.590 166.896,214.590 166.430 C 214.590 166.075,214.740 165.784,214.922 165.784 C 215.105 165.784,215.273 165.541,215.296 165.243 C 215.343 164.613,216.826 163.089,217.643 162.829 C 217.952 162.731,218.205 162.523,218.205 162.367 C 218.205 162.211,218.279 162.156,218.368 162.246 C 218.706 162.584,219.524 161.887,219.367 161.394 C 219.178 160.798,219.982 160.279,220.543 160.634 C 221.313 161.121,222.079 160.921,222.079 160.232 C 222.079 159.716,222.208 159.587,222.724 159.587 C 223.198 159.587,223.370 159.449,223.370 159.070 C 223.370 158.726,223.542 158.554,223.886 158.554 C 224.265 158.554,224.403 158.382,224.403 157.908 C 224.403 157.392,224.532 157.263,225.048 157.263 C 225.565 157.263,225.694 157.134,225.694 156.617 C 225.694 156.101,225.823 155.972,226.340 155.972 C 226.813 155.972,226.985 155.834,226.985 155.455 C 226.985 155.111,227.157 154.939,227.502 154.939 C 227.880 154.939,228.018 154.767,228.018 154.293 C 228.018 153.777,228.147 153.648,228.664 153.648 C 229.180 153.648,229.309 153.518,229.309 153.002 C 229.309 152.485,229.438 152.356,229.955 152.356 C 230.471 152.356,230.600 152.227,230.600 151.711 C 230.600 151.194,230.730 151.065,231.246 151.065 C 231.719 151.065,231.892 150.927,231.892 150.549 C 231.892 150.204,232.064 150.032,232.408 150.032 C 232.787 150.032,232.924 149.860,232.924 149.387 C 232.924 148.865,233.052 148.741,233.589 148.741 C 234.227 148.741,234.251 148.687,234.188 147.385 C 234.133 146.250,234.192 146.036,234.556 146.066 C 234.818 146.087,234.990 145.914,234.990 145.628 C 234.990 145.368,235.206 145.003,235.470 144.818 C 235.733 144.632,236.032 144.219,236.133 143.899 C 236.268 143.471,236.515 143.318,237.074 143.318 C 237.575 143.318,237.831 143.187,237.831 142.931 C 237.831 142.690,238.075 142.544,238.476 142.544 C 238.993 142.544,239.122 142.414,239.122 141.898 C 239.122 141.382,239.251 141.252,239.768 141.252 C 240.233 141.252,240.413 141.114,240.413 140.754 C 240.413 140.434,240.621 140.226,240.994 140.173 C 241.368 140.120,241.605 139.883,241.658 139.509 C 241.711 139.136,241.918 138.928,242.239 138.928 C 242.598 138.928,242.737 138.748,242.737 138.283 C 242.737 137.766,242.866 137.637,243.383 137.637 C 244.151 137.637,244.253 136.929,243.623 135.967 C 243.238 135.380,243.252 135.326,243.894 134.905 C 244.674 134.394,244.973 134.586,245.132 135.700 C 245.210 136.248,245.254 136.116,245.281 135.249 C 245.316 134.123,245.373 134.022,245.965 134.022 C 246.482 134.022,246.611 133.893,246.611 133.376 C 246.611 132.903,246.748 132.731,247.127 132.731 C 247.506 132.731,247.644 132.559,247.644 132.085 C 247.644 131.569,247.773 131.440,248.289 131.440 C 248.755 131.440,248.935 131.301,248.935 130.941 C 248.935 130.621,249.142 130.413,249.516 130.360 C 249.889 130.307,250.126 130.070,250.179 129.697 C 250.232 129.323,250.440 129.116,250.760 129.116 C 251.318 129.116,251.464 128.133,250.979 127.648 C 250.394 127.063,250.816 126.151,251.711 126.065 C 252.172 126.020,252.550 125.875,252.550 125.742 C 252.550 125.609,252.841 125.500,253.196 125.500 C 253.712 125.500,253.841 125.371,253.841 124.855 C 253.841 124.338,253.970 124.209,254.487 124.209 C 255.003 124.209,255.132 124.080,255.132 123.564 C 255.132 123.090,255.270 122.918,255.649 122.918 C 255.993 122.918,256.165 122.746,256.165 122.402 C 256.165 122.023,256.337 121.885,256.811 121.885 C 257.327 121.885,257.456 121.756,257.456 121.240 C 257.456 120.723,257.586 120.594,258.102 120.594 C 258.841 120.594,258.998 119.705,258.425 118.767 C 258.159 118.331,258.171 118.184,258.493 117.931 C 258.708 117.762,259.088 117.305,259.338 116.914 C 259.588 116.524,259.956 116.204,260.156 116.204 C 260.357 116.204,260.592 115.978,260.680 115.701 C 260.768 115.424,261.083 115.120,261.381 115.026 C 261.993 114.832,263.117 113.650,263.129 113.187 C 263.134 113.019,263.370 112.808,263.654 112.718 C 263.938 112.628,264.170 112.332,264.170 112.060 C 264.170 111.753,264.406 111.506,264.792 111.410 C 265.133 111.324,265.471 111.031,265.542 110.759 C 265.634 110.406,265.900 110.265,266.470 110.265 C 267.008 110.265,267.269 110.138,267.269 109.877 C 267.269 109.510,268.134 109.348,269.400 109.476 C 269.724 109.510,269.852 109.336,269.852 108.861 C 269.852 108.371,269.986 108.199,270.368 108.199 C 270.712 108.199,270.884 108.027,270.884 107.682 C 270.884 107.304,271.057 107.166,271.530 107.166 C 272.046 107.166,272.176 107.037,272.176 106.520 C 272.176 105.929,272.271 105.875,273.320 105.875 C 274.371 105.875,274.474 105.816,274.573 105.165 C 274.632 104.774,274.698 105.355,274.719 106.456 C 274.757 108.429,274.749 108.457,274.112 108.457 C 273.521 108.457,273.467 108.553,273.467 109.601 C 273.467 110.591,273.388 110.756,272.886 110.828 C 272.240 110.919,271.936 111.936,272.412 112.412 C 273.042 113.042,272.368 114.189,271.634 113.735 C 271.504 113.655,271.328 113.771,271.242 113.993 C 271.157 114.215,270.822 114.396,270.498 114.396 C 269.841 114.396,269.443 115.951,269.966 116.473 C 270.358 116.866,269.584 117.293,269.144 116.927 C 268.868 116.699,268.886 116.557,269.239 116.167 C 269.650 115.714,269.642 115.688,269.100 115.688 C 268.634 115.688,268.538 115.820,268.583 116.398 C 268.704 117.950,268.590 118.270,267.915 118.270 C 267.441 118.270,267.269 118.408,267.269 118.786 C 267.269 119.131,267.097 119.303,266.753 119.303 C 266.305 119.303,266.236 119.475,266.236 120.594 C 266.236 121.799,266.193 121.885,265.591 121.885 C 265.074 121.885,264.945 122.014,264.945 122.531 C 264.945 123.047,264.816 123.176,264.300 123.176 C 263.834 123.176,263.654 123.315,263.654 123.675 C 263.654 123.995,263.446 124.203,263.073 124.256 C 262.577 124.326,262.480 124.518,262.413 125.565 C 262.346 126.608,262.255 126.791,261.799 126.791 C 261.313 126.791,261.275 126.909,261.388 128.083 C 261.511 129.359,261.504 129.374,260.776 129.374 C 260.211 129.374,260.039 129.494,260.039 129.890 C 260.039 130.269,259.867 130.407,259.393 130.407 C 258.877 130.407,258.748 130.536,258.748 131.052 C 258.748 131.569,258.618 131.698,258.102 131.698 C 257.320 131.698,257.212 132.549,257.897 133.307 C 258.475 133.945,258.047 134.672,257.101 134.657 C 256.715 134.652,256.423 134.790,256.423 134.980 C 256.423 135.163,256.133 135.313,255.778 135.313 C 255.261 135.313,255.132 135.442,255.132 135.959 C 255.132 136.475,255.003 136.604,254.487 136.604 C 253.895 136.604,253.841 136.700,253.841 137.748 C 253.841 138.738,253.763 138.904,253.260 138.975 C 252.887 139.028,252.650 139.265,252.597 139.638 C 252.542 140.024,252.337 140.219,251.987 140.219 C 251.441 140.219,251.415 140.942,251.908 142.479 C 252.069 142.982,251.984 143.083,251.284 143.223 C 250.838 143.312,250.411 143.486,250.334 143.610 C 250.258 143.734,249.920 143.835,249.582 143.835 C 249.105 143.835,248.951 143.992,248.887 144.545 C 248.828 145.065,248.681 145.234,248.339 145.176 C 248.072 145.130,247.892 145.241,247.918 145.434 C 248.102 146.803,247.889 147.450,247.256 147.450 C 246.740 147.450,246.611 147.579,246.611 148.096 C 246.611 148.612,246.482 148.741,245.965 148.741 C 245.363 148.741,245.320 148.827,245.320 150.032 C 245.320 151.237,245.277 151.323,244.674 151.323 C 244.201 151.323,244.028 151.461,244.028 151.840 C 244.028 152.184,243.856 152.356,243.512 152.356 C 243.064 152.356,242.995 152.529,242.995 153.648 C 242.995 154.853,242.952 154.939,242.350 154.939 C 241.852 154.939,241.704 155.072,241.704 155.522 C 241.704 155.843,241.460 156.258,241.161 156.445 C 240.862 156.632,240.694 156.660,240.789 156.507 C 240.883 156.355,240.837 156.230,240.687 156.230 C 240.535 156.230,240.413 156.746,240.413 157.392 C 240.413 158.459,240.361 158.554,239.768 158.554 C 239.165 158.554,239.122 158.640,239.122 159.845 C 239.122 160.964,239.053 161.136,238.606 161.136 C 238.261 161.136,238.089 161.308,238.089 161.653 C 238.089 162.031,237.917 162.169,237.444 162.169 C 236.999 162.169,236.799 162.310,236.802 162.621 C 236.805 162.971,236.856 162.994,237.027 162.725 C 237.392 162.148,238.218 162.481,238.218 163.206 C 238.218 163.741,238.100 163.843,237.508 163.818 C 236.977 163.797,236.798 163.911,236.798 164.270 C 236.798 164.611,236.610 164.751,236.152 164.751 C 235.561 164.751,235.507 164.847,235.507 165.896 C 235.507 166.885,235.428 167.051,234.926 167.122 C 234.430 167.193,234.333 167.385,234.266 168.431 C 234.201 169.447,234.101 169.658,233.685 169.658 C 233.355 169.658,233.183 169.835,233.183 170.174 C 233.183 170.553,233.011 170.691,232.537 170.691 C 231.935 170.691,231.892 170.777,231.892 171.982 C 231.892 173.187,231.849 173.273,231.246 173.273 C 230.654 173.273,230.600 173.369,230.600 174.417 C 230.600 175.407,230.522 175.572,230.019 175.644 C 229.524 175.714,229.427 175.906,229.360 176.953 C 229.293 177.989,229.199 178.179,228.755 178.179 C 228.282 178.179,228.238 178.315,228.317 179.508 C 228.391 180.615,228.330 180.848,227.954 180.905 C 227.509 180.973,227.429 180.822,227.433 179.923 C 227.434 179.674,227.324 179.471,227.190 179.471 C 227.056 179.471,226.966 179.848,226.992 180.310 C 227.077 181.880,227.031 181.990,226.340 181.858 C 225.719 181.739,225.694 181.786,225.694 183.056 C 225.694 184.205,225.627 184.377,225.178 184.377 C 224.738 184.377,224.661 184.549,224.661 185.539 C 224.661 186.606,224.608 186.701,224.015 186.701 C 223.413 186.701,223.370 186.787,223.370 187.992 C 223.370 189.197,223.327 189.283,222.724 189.283 C 222.280 189.283,222.079 189.425,222.079 189.739 C 222.079 189.989,221.817 190.309,221.498 190.449 C 221.049 190.646,220.899 190.954,220.837 191.801 C 220.773 192.688,220.662 192.899,220.256 192.899 C 219.834 192.899,219.755 193.082,219.755 194.061 C 219.755 195.128,219.702 195.223,219.109 195.223 C 218.507 195.223,218.464 195.309,218.464 196.514 C 218.464 197.719,218.420 197.805,217.818 197.805 C 217.225 197.805,217.172 197.900,217.172 198.967 C 217.172 200.034,217.120 200.129,216.527 200.129 C 216.010 200.129,215.881 200.258,215.881 200.775 C 215.881 201.248,215.743 201.420,215.365 201.420 C 214.925 201.420,214.848 201.592,214.848 202.582 C 214.848 203.663,214.801 203.744,214.174 203.744 C 213.539 203.744,213.510 203.800,213.661 204.713 C 213.987 206.676,213.992 206.660,213.105 206.894 C 212.644 207.016,212.266 207.229,212.266 207.367 C 212.266 207.505,211.975 207.618,211.620 207.618 C 211.027 207.618,210.975 207.713,210.975 208.780 C 210.975 209.770,210.898 209.942,210.458 209.942 C 209.879 209.942,209.765 210.734,210.186 211.842 C 210.445 212.521,209.962 213.243,209.458 212.931 C 209.321 212.847,209.046 212.941,208.847 213.140 C 208.648 213.339,208.261 213.544,207.987 213.596 C 207.706 213.650,207.453 213.944,207.406 214.270 C 207.347 214.688,207.149 214.848,206.696 214.848 C 206.115 214.848,206.068 214.944,206.068 216.139 C 206.068 217.258,206.000 217.431,205.552 217.431 C 205.208 217.431,205.036 217.603,205.036 217.947 C 205.036 218.326,204.863 218.464,204.390 218.464 C 203.664 218.464,203.490 219.355,204.043 220.240 C 204.469 220.923,204.132 221.617,203.423 221.516 C 202.750 221.420,202.458 220.332,203.012 219.982 C 203.277 219.813,203.252 219.762,202.905 219.759 C 202.541 219.755,202.453 219.981,202.453 220.917 C 202.453 221.907,202.377 222.079,201.937 222.079 C 201.558 222.079,201.420 222.251,201.420 222.724 C 201.420 223.248,201.293 223.370,200.745 223.370 C 200.121 223.370,200.083 223.433,200.241 224.209 C 200.633 226.133,200.582 226.333,199.677 226.420 C 199.216 226.465,198.838 226.602,198.838 226.725 C 198.838 226.848,198.577 226.986,198.257 227.032 C 197.884 227.085,197.646 227.322,197.593 227.695 C 197.540 228.069,197.333 228.276,197.012 228.276 C 196.653 228.276,196.514 228.456,196.514 228.922 C 196.514 229.438,196.385 229.567,195.868 229.567 C 195.137 229.567,194.996 230.244,195.544 231.121 C 195.962 231.791,195.528 232.525,194.689 232.569 C 194.355 232.587,194.039 232.732,193.986 232.892 C 193.932 233.052,193.608 233.183,193.264 233.183 C 192.771 233.183,192.640 233.318,192.640 233.828 C 192.640 234.302,192.503 234.474,192.124 234.474 C 191.745 234.474,191.607 234.646,191.607 235.119 C 191.607 235.636,191.478 235.765,190.962 235.765 C 190.488 235.765,190.316 235.903,190.316 236.281 C 190.316 236.660,190.144 236.798,189.671 236.798 C 189.171 236.798,189.027 236.929,189.033 237.379 C 189.041 237.917,189.067 237.927,189.385 237.508 C 189.850 236.896,190.226 236.940,190.406 237.628 C 190.567 238.247,190.145 238.680,189.582 238.473 C 189.385 238.400,189.177 238.568,189.100 238.863 C 189.013 239.198,188.748 239.380,188.349 239.380 C 187.865 239.380,187.734 239.518,187.734 240.026 C 187.734 240.499,187.596 240.671,187.218 240.671 C 186.873 240.671,186.701 240.844,186.701 241.188 C 186.701 241.567,186.529 241.704,186.056 241.704 C 185.539 241.704,185.410 241.833,185.410 242.350 C 185.410 242.866,185.281 242.995,184.764 242.995 C 184.248 242.995,184.119 243.125,184.119 243.641 C 184.119 244.158,183.990 244.287,183.473 244.287 C 182.715 244.287,182.614 244.932,183.196 246.057 C 183.607 246.853,183.016 247.541,182.192 247.224 C 181.936 247.126,181.795 247.219,181.795 247.487 C 181.795 247.757,181.570 247.902,181.149 247.902 C 180.633 247.902,180.504 248.031,180.504 248.547 C 180.504 249.064,180.374 249.193,179.858 249.193 C 179.385 249.193,179.212 249.331,179.212 249.709 C 179.212 250.054,179.040 250.226,178.696 250.226 C 178.089 250.226,177.983 251.209,178.500 252.038 C 178.940 252.742,178.464 253.458,177.570 253.439 C 177.174 253.431,176.888 253.566,176.888 253.762 C 176.888 253.950,176.602 254.099,176.243 254.099 C 175.650 254.099,175.597 254.194,175.597 255.259 L 175.597 256.418 199.634 256.485 C 212.855 256.522,223.723 256.501,223.786 256.438 C 224.628 255.595,242.472 255.576,242.991 256.416 C 243.533 257.294,243.022 257.441,239.162 257.522 C 237.080 257.565,259.606 257.598,289.219 257.593 L 343.060 257.586 343.143 257.005 C 343.223 256.441,343.312 256.423,346.177 256.423 L 349.128 256.423 349.128 255.657 C 349.128 255.009,349.205 254.919,349.625 255.076 C 350.994 255.587,355.326 255.127,355.326 254.470 C 355.326 253.909,355.437 253.841,356.359 253.841 C 357.334 253.841,357.392 253.798,357.392 253.066 C 357.392 252.412,357.492 252.292,358.037 252.292 C 358.393 252.292,358.683 252.414,358.683 252.564 C 358.683 253.177,361.388 252.726,361.477 252.098 C 361.548 251.595,361.714 251.517,362.704 251.517 C 363.752 251.517,363.848 251.463,363.848 250.872 C 363.848 250.269,363.934 250.226,365.139 250.226 C 366.344 250.226,366.430 250.183,366.430 249.580 C 366.430 248.987,366.525 248.935,367.592 248.935 C 368.571 248.935,368.754 248.856,368.754 248.432 C 368.754 248.016,368.965 247.917,369.981 247.851 C 371.027 247.784,371.219 247.688,371.290 247.192 C 371.343 246.818,371.550 246.611,371.871 246.611 C 372.230 246.611,372.369 246.431,372.369 245.965 C 372.369 245.434,372.495 245.319,373.079 245.316 C 373.503 245.313,373.665 245.232,373.481 245.116 C 372.573 244.538,373.313 243.898,374.785 243.989 C 376.122 244.071,376.243 244.034,376.243 243.537 C 376.243 243.168,376.407 242.995,376.759 242.995 C 377.138 242.995,377.276 242.823,377.276 242.350 C 377.276 241.833,377.405 241.704,377.921 241.704 C 378.438 241.704,378.567 241.575,378.567 241.059 C 378.567 240.542,378.696 240.413,379.212 240.413 C 379.678 240.413,379.858 240.274,379.858 239.915 C 379.858 239.594,380.066 239.387,380.439 239.334 C 380.812 239.281,381.050 239.044,381.103 238.670 C 381.156 238.297,381.363 238.089,381.684 238.089 C 382.043 238.089,382.182 237.909,382.182 237.444 C 382.182 236.927,382.311 236.798,382.828 236.798 C 383.344 236.798,383.473 236.669,383.473 236.152 C 383.473 235.636,383.602 235.507,384.119 235.507 C 384.584 235.507,384.764 235.368,384.764 235.008 C 384.764 234.688,384.972 234.480,385.345 234.427 C 385.719 234.374,385.956 234.137,386.009 233.764 C 386.062 233.390,386.270 233.183,386.590 233.183 C 387.134 233.183,387.330 231.813,386.830 231.504 C 386.055 231.025,386.754 230.084,387.884 230.084 C 388.157 230.084,388.380 229.976,388.380 229.844 C 388.380 229.712,388.641 229.566,388.961 229.521 C 389.334 229.468,389.571 229.231,389.624 228.857 C 389.677 228.484,389.885 228.276,390.205 228.276 C 390.631 228.276,390.704 228.089,390.704 226.985 C 390.704 225.780,390.747 225.694,391.349 225.694 C 391.942 225.694,391.995 225.599,391.995 224.532 C 391.995 223.465,392.047 223.370,392.640 223.370 C 393.243 223.370,393.286 223.284,393.286 222.079 C 393.286 220.874,393.329 220.788,393.932 220.788 C 394.525 220.788,394.577 220.693,394.577 219.626 C 394.577 218.636,394.654 218.464,395.094 218.464 C 395.541 218.464,395.610 218.291,395.610 217.172 C 395.610 215.967,395.653 215.881,396.256 215.881 C 396.883 215.881,396.901 215.830,396.901 214.074 C 396.901 212.318,396.920 212.266,397.547 212.266 C 398.288 212.266,398.516 209.385,397.884 207.999 C 397.517 207.192,397.862 206.852,398.855 207.041 L 399.484 207.162 399.484 204.291 C 399.484 202.175,399.568 201.416,399.806 201.404 C 399.984 201.395,399.868 201.282,399.548 201.154 C 398.810 200.857,398.767 199.875,399.484 199.687 C 399.985 199.556,400.000 199.335,400.000 192.066 C 400.000 185.541,399.951 184.599,399.615 184.728 C 399.128 184.915,398.773 183.693,399.193 183.274 C 399.375 183.091,399.484 181.851,399.484 179.935 L 399.484 176.888 398.851 176.888 C 398.262 176.888,398.213 176.786,398.141 175.403 C 398.073 174.099,397.997 173.915,397.517 173.891 C 396.496 173.839,395.911 172.821,396.643 172.369 C 397.246 171.997,396.945 169.979,396.305 170.102 C 395.495 170.257,394.964 169.608,395.334 168.917 C 395.854 167.946,395.688 165.784,395.094 165.784 C 394.654 165.784,394.577 165.612,394.577 164.622 C 394.577 163.555,394.525 163.460,393.932 163.460 C 393.339 163.460,393.286 163.366,393.286 162.298 C 393.286 161.231,393.233 161.136,392.640 161.136 C 392.038 161.136,391.995 161.050,391.995 159.845 C 391.995 158.650,391.948 158.554,391.368 158.554 C 390.977 158.554,390.709 158.384,390.655 158.102 C 390.607 157.854,390.337 157.651,390.055 157.651 C 389.599 157.650,389.550 157.499,389.614 156.294 C 389.682 155.009,389.654 154.939,389.054 154.939 C 388.707 154.939,388.379 154.808,388.326 154.648 C 388.272 154.488,387.943 154.328,387.594 154.293 C 387.245 154.258,386.872 154.215,386.766 154.197 C 386.659 154.179,386.572 153.870,386.572 153.510 C 386.572 152.737,387.216 152.409,387.897 152.834 C 388.288 153.078,388.380 153.062,388.380 152.746 C 388.380 152.503,388.137 152.356,387.734 152.356 C 387.261 152.356,387.088 152.219,387.088 151.840 C 387.088 151.496,386.916 151.323,386.572 151.323 C 386.193 151.323,386.056 151.151,386.056 150.678 C 386.056 150.161,385.926 150.032,385.410 150.032 C 384.893 150.032,384.764 149.903,384.764 149.387 C 384.764 148.870,384.635 148.741,384.119 148.741 C 383.602 148.741,383.473 148.612,383.473 148.096 C 383.473 147.579,383.344 147.450,382.828 147.450 C 382.354 147.450,382.182 147.312,382.182 146.934 C 382.182 146.589,382.010 146.417,381.666 146.417 C 381.287 146.417,381.149 146.245,381.149 145.771 C 381.149 145.255,381.020 145.126,380.504 145.126 C 379.987 145.126,379.858 144.997,379.858 144.480 C 379.858 143.964,379.729 143.835,379.212 143.835 C 378.696 143.835,378.567 143.706,378.567 143.189 C 378.567 142.673,378.438 142.544,377.921 142.544 C 377.448 142.544,377.276 142.406,377.276 142.027 C 377.276 141.683,377.104 141.511,376.759 141.511 C 376.380 141.511,376.243 141.338,376.243 140.865 C 376.243 140.430,376.100 140.219,375.804 140.219 C 375.462 140.219,375.434 140.288,375.675 140.529 C 376.280 141.135,376.042 141.769,375.210 141.769 C 374.521 141.769,374.435 141.683,374.435 140.994 C 374.435 140.478,374.306 140.219,374.048 140.219 C 373.803 140.219,373.660 139.973,373.660 139.547 C 373.660 138.892,373.628 138.879,372.372 139.032 C 371.132 139.183,371.086 139.166,371.135 138.571 C 371.167 138.178,371.310 138.001,371.526 138.083 C 371.754 138.171,371.783 138.314,371.615 138.516 C 371.439 138.729,371.513 138.818,371.867 138.818 C 372.218 138.818,372.369 138.640,372.369 138.227 C 372.369 137.700,372.246 137.637,371.207 137.637 C 370.217 137.637,370.045 137.561,370.045 137.121 C 370.045 136.533,369.088 136.408,368.204 136.880 C 367.601 137.203,366.839 136.741,367.053 136.183 C 367.124 135.997,367.026 135.688,366.834 135.496 C 366.642 135.304,366.443 134.923,366.391 134.649 C 366.316 134.255,366.041 134.135,365.072 134.072 C 364.058 134.007,363.848 133.907,363.848 133.491 C 363.848 133.068,363.665 132.989,362.686 132.989 C 361.618 132.989,361.524 132.936,361.524 132.343 C 361.524 131.893,361.387 131.704,361.072 131.718 C 360.802 131.730,360.750 131.791,360.943 131.869 C 361.451 132.074,361.319 132.937,360.751 133.117 C 360.039 133.344,359.749 133.099,359.832 132.342 C 359.897 131.754,359.816 131.698,358.906 131.698 C 358.014 131.698,357.908 131.629,357.908 131.052 C 357.908 130.421,357.865 130.407,355.972 130.407 C 354.078 130.407,354.035 130.392,354.035 129.761 C 354.035 129.168,353.940 129.116,352.873 129.116 C 351.883 129.116,351.711 129.039,351.711 128.599 C 351.711 128.220,351.539 128.083,351.065 128.083 L 350.420 128.083 350.420 125.265 L 350.420 122.447 349.776 122.518 C 348.867 122.617,348.454 122.050,348.832 121.220 C 349.427 119.915,349.229 108.457,348.612 108.457 C 348.132 108.457,348.096 108.285,348.096 106.004 C 348.096 103.559,348.093 103.551,347.450 103.551 C 346.812 103.551,346.804 103.525,346.804 101.356 L 346.804 99.161 346.022 99.161 C 345.121 99.161,344.759 98.568,345.214 97.839 C 345.856 96.812,345.596 93.738,344.868 93.738 C 344.241 93.738,344.222 93.686,344.222 91.930 C 344.222 90.308,344.170 90.123,343.717 90.123 C 343.269 90.123,343.203 89.911,343.136 88.250 C 343.066 86.533,343.012 86.372,342.479 86.296 C 342.005 86.229,341.898 86.049,341.898 85.327 C 341.898 84.513,341.835 84.442,341.115 84.442 C 340.214 84.442,339.852 83.849,340.308 83.120 C 340.815 82.307,340.663 81.983,339.774 81.986 C 338.823 81.989,338.511 81.336,339.118 80.613 C 339.318 80.375,339.499 79.832,339.521 79.406 C 339.554 78.764,339.516 78.709,339.296 79.083 C 338.983 79.619,338.204 79.675,337.803 79.192 C 337.589 78.934,337.630 78.724,337.966 78.352 C 338.610 77.640,338.413 76.695,337.619 76.695 C 337.038 76.695,336.992 76.599,336.992 75.403 C 336.992 74.198,336.949 74.112,336.346 74.112 C 335.753 74.112,335.700 74.018,335.700 72.950 C 335.700 71.960,335.624 71.788,335.184 71.788 C 334.736 71.788,334.668 71.616,334.668 70.497 C 334.668 69.307,334.619 69.206,334.050 69.206 C 333.710 69.206,333.368 69.041,333.291 68.839 C 333.209 68.625,332.943 68.526,332.656 68.600 C 332.006 68.770,331.118 67.937,331.614 67.623 C 331.802 67.504,331.846 67.404,331.711 67.402 C 331.576 67.400,331.605 67.259,331.775 67.088 C 332.360 66.504,332.155 65.591,331.440 65.591 C 331.038 65.591,330.794 65.444,330.794 65.203 C 330.794 64.964,330.551 64.816,330.158 64.816 C 329.340 64.816,328.833 63.973,329.379 63.520 C 330.037 62.974,329.867 61.975,329.116 61.975 C 328.599 61.975,328.470 61.846,328.470 61.330 C 328.470 60.813,328.341 60.684,327.824 60.684 C 327.243 60.684,327.179 60.581,327.179 59.646 C 327.179 58.689,327.132 58.620,326.579 58.759 C 325.731 58.972,325.202 58.309,325.768 57.743 C 326.081 57.429,326.303 57.393,326.680 57.595 C 327.097 57.818,327.179 57.776,327.179 57.336 C 327.179 56.948,327.347 56.811,327.824 56.811 C 328.303 56.811,328.470 56.674,328.470 56.283 C 328.470 55.992,328.771 55.453,329.139 55.085 C 329.597 54.627,329.771 54.224,329.691 53.806 C 329.595 53.304,329.682 53.196,330.184 53.196 C 330.863 53.196,330.944 52.812,330.555 51.453 C 330.288 50.523,330.710 50.056,331.605 50.290 C 331.927 50.374,332.085 50.278,332.085 49.998 C 332.085 49.725,332.308 49.580,332.731 49.580 C 333.504 49.580,333.616 48.746,332.967 47.819 C 332.458 47.093,332.852 46.482,333.829 46.482 C 334.425 46.482,334.465 46.554,334.330 47.385 C 334.250 47.883,334.292 48.289,334.426 48.289 C 334.559 48.289,334.668 47.766,334.668 47.127 C 334.668 46.125,334.741 45.965,335.201 45.965 C 335.687 45.965,335.727 45.835,335.653 44.482 C 335.576 43.081,335.605 42.998,336.181 42.967 C 336.516 42.949,336.865 42.816,336.955 42.672 C 337.046 42.528,337.353 42.366,337.637 42.313 C 337.931 42.257,338.188 41.973,338.234 41.653 C 338.284 41.304,338.529 41.060,338.880 41.010 C 339.357 40.942,339.457 40.739,339.524 39.703 C 339.589 38.687,339.688 38.476,340.105 38.476 C 340.435 38.476,340.607 38.299,340.607 37.960 C 340.607 37.581,340.779 37.444,341.252 37.444 C 341.855 37.444,341.898 37.357,341.898 36.152 C 341.898 34.947,341.941 34.861,342.544 34.861 C 343.060 34.861,343.189 34.732,343.189 34.216 C 343.189 33.742,343.327 33.570,343.706 33.570 C 344.146 33.570,344.222 33.398,344.222 32.408 C 344.222 31.341,344.275 31.246,344.868 31.246 C 345.384 31.246,345.513 31.117,345.513 30.600 C 345.513 30.084,345.642 29.955,346.159 29.955 C 346.750 29.955,346.804 29.859,346.804 28.811 C 346.804 27.821,346.883 27.656,347.385 27.584 C 347.759 27.531,347.996 27.294,348.049 26.921 C 348.102 26.547,348.310 26.340,348.630 26.340 C 349.056 26.340,349.128 26.152,349.128 25.048 C 349.128 23.843,349.172 23.757,349.774 23.757 C 350.247 23.757,350.420 23.620,350.420 23.241 C 350.420 22.862,350.592 22.724,351.065 22.724 C 351.668 22.724,351.711 22.638,351.711 21.433 C 351.711 20.228,351.754 20.142,352.356 20.142 C 352.873 20.142,353.002 20.013,353.002 19.496 C 353.002 19.023,353.140 18.851,353.518 18.851 C 353.963 18.851,354.035 18.679,354.035 17.615 C 354.035 16.559,354.111 16.373,354.557 16.339 C 354.844 16.318,355.011 16.409,354.929 16.542 C 354.847 16.676,354.902 16.785,355.053 16.785 C 355.203 16.785,355.326 16.436,355.326 16.010 C 355.326 15.356,355.426 15.236,355.972 15.236 C 356.726 15.236,356.892 14.236,356.230 13.686 C 355.461 13.048,356.200 11.997,357.273 12.202 C 357.696 12.283,357.908 12.206,357.908 11.972 C 357.908 11.779,358.147 11.620,358.439 11.620 C 358.923 11.620,358.963 11.487,358.891 10.139 C 358.816 8.725,358.841 8.656,359.447 8.623 C 359.796 8.603,360.125 8.456,360.178 8.296 C 360.232 8.136,360.572 8.005,360.935 8.005 C 361.583 8.005,361.592 7.979,361.428 6.588 C 361.264 5.193,361.272 5.171,361.909 5.224 C 362.338 5.259,362.556 5.433,362.556 5.737 C 362.556 5.990,362.426 6.168,362.266 6.133 C 362.106 6.097,361.922 6.214,361.857 6.391 C 361.786 6.584,361.955 6.714,362.277 6.714 C 362.742 6.714,362.815 6.557,362.815 5.552 C 362.815 4.562,362.891 4.390,363.331 4.390 C 363.710 4.390,363.848 4.218,363.848 3.744 C 363.848 3.228,363.977 3.099,364.493 3.099 C 365.110 3.099,365.139 3.030,365.139 1.549 L 365.139 0.000 363.977 0.000 C 363.116 0.000,362.815 0.100,362.815 0.387 M348.096 11.879 C 348.096 12.202,348.370 12.202,348.870 11.879 C 349.183 11.676,349.146 11.628,348.677 11.624 C 348.357 11.622,348.096 11.737,348.096 11.879 M268.247 17.483 C 268.286 17.949,268.165 18.076,267.681 18.076 C 267.072 18.076,266.618 17.470,266.894 17.024 C 267.195 16.536,268.197 16.876,268.247 17.483 M294.788 29.153 C 294.709 29.280,294.818 29.451,295.031 29.532 C 295.265 29.622,295.416 29.531,295.416 29.301 C 295.416 28.883,295.013 28.788,294.788 29.153 M339.265 40.123 C 339.144 40.971,338.025 41.035,338.025 40.194 C 338.025 39.841,338.170 39.502,338.347 39.440 C 338.918 39.241,339.345 39.560,339.265 40.123 M336.733 44.009 C 336.733 44.212,336.530 44.431,336.281 44.496 C 335.941 44.585,335.973 44.621,336.411 44.644 C 336.829 44.666,336.992 44.530,336.992 44.158 C 336.992 43.873,336.934 43.641,336.862 43.641 C 336.791 43.641,336.733 43.807,336.733 44.009 M328.970 54.894 C 328.805 55.093,328.561 55.189,328.428 55.107 C 328.285 55.018,328.309 54.810,328.487 54.596 C 328.652 54.397,328.895 54.301,329.028 54.383 C 329.171 54.472,329.147 54.680,328.970 54.894 M136.698 60.555 C 136.533 60.984,136.193 61.063,135.981 60.720 C 135.808 60.441,136.070 60.168,136.510 60.168 C 136.703 60.168,136.783 60.333,136.698 60.555 M134.083 63.654 C 134.371 64.047,134.320 64.229,133.870 64.402 C 133.290 64.624,133.015 64.385,133.170 63.792 C 133.307 63.268,133.750 63.201,134.083 63.654 M74.112 80.584 C 74.112 80.878,74.806 80.908,74.983 80.622 C 75.053 80.509,74.885 80.400,74.611 80.380 C 74.337 80.359,74.112 80.451,74.112 80.584 M269.593 108.381 C 269.771 108.545,268.795 109.232,268.384 109.232 C 268.097 109.232,268.070 108.897,268.283 107.988 C 268.307 107.886,269.417 108.219,269.593 108.381 M264.314 114.030 C 263.895 114.336,263.882 114.396,264.235 114.396 C 264.467 114.396,264.733 114.272,264.827 114.121 C 265.100 113.678,264.855 113.635,264.314 114.030 M262.815 114.396 C 263.239 114.872,263.227 115.261,262.793 115.094 C 262.604 115.022,262.449 115.122,262.449 115.317 C 262.449 115.939,263.472 115.565,263.573 114.906 C 263.624 114.572,263.587 114.378,263.490 114.474 C 263.393 114.571,263.129 114.511,262.903 114.342 C 262.559 114.084,262.544 114.093,262.815 114.396 M259.611 118.659 C 259.369 119.182,259.381 119.303,259.676 119.303 C 259.891 119.303,260.039 119.040,260.039 118.657 C 260.039 117.853,259.985 117.854,259.611 118.659 M263.981 124.962 C 264.134 125.547,263.736 126.017,263.086 126.017 C 262.742 126.017,262.621 125.816,262.621 125.242 C 262.621 124.313,263.751 124.080,263.981 124.962 M260.039 128.462 C 260.039 128.692,260.190 128.783,260.425 128.693 C 260.637 128.612,260.746 128.441,260.668 128.314 C 260.442 127.949,260.039 128.044,260.039 128.462 M237.573 144.548 C 237.573 144.657,237.324 144.860,237.021 145.000 C 236.717 145.140,236.495 145.358,236.526 145.484 C 236.558 145.611,236.429 145.812,236.239 145.932 C 235.975 146.100,236.000 146.152,236.346 146.155 C 236.627 146.157,236.798 145.964,236.798 145.642 C 236.798 145.298,236.970 145.126,237.314 145.126 C 237.601 145.126,237.831 144.954,237.831 144.739 C 237.831 144.526,237.773 144.351,237.702 144.351 C 237.631 144.351,237.573 144.440,237.573 144.548 M235.107 146.914 C 235.188 147.045,235.050 147.206,234.800 147.271 C 234.454 147.362,234.484 147.397,234.926 147.420 C 235.283 147.438,235.507 147.301,235.507 147.063 C 235.507 146.850,235.384 146.675,235.233 146.675 C 235.083 146.675,235.026 146.783,235.107 146.914 M9.296 148.009 C 9.296 148.128,9.151 148.234,8.974 148.245 C 8.717 148.261,8.717 148.292,8.975 148.396 C 9.154 148.468,9.237 148.628,9.161 148.752 C 8.918 149.145,8.316 148.727,8.440 148.251 C 8.558 147.800,9.296 147.592,9.296 148.009 M220.529 161.539 C 220.529 161.760,220.421 161.875,220.289 161.793 C 220.157 161.711,219.976 161.762,219.886 161.907 C 219.797 162.052,219.962 162.169,220.256 162.169 C 220.615 162.169,220.788 162.002,220.788 161.653 C 220.788 161.369,220.730 161.136,220.658 161.136 C 220.587 161.136,220.529 161.317,220.529 161.539 M219.109 162.367 C 218.890 162.527,218.650 162.950,218.009 164.300 C 217.958 164.406,218.040 164.493,218.190 164.493 C 218.340 164.493,218.464 164.261,218.464 163.977 C 218.464 163.633,218.636 163.460,218.977 163.460 C 219.367 163.460,219.478 163.305,219.437 162.815 C 219.408 162.460,219.380 162.171,219.376 162.173 C 219.371 162.175,219.251 162.262,219.109 162.367 M227.132 182.598 C 227.384 183.006,226.685 183.373,226.287 183.042 C 226.106 182.892,226.022 182.666,226.099 182.540 C 226.298 182.220,226.920 182.255,227.132 182.598 M197.095 183.179 C 196.461 183.493,196.305 184.119,196.860 184.119 C 197.050 184.119,197.338 183.828,197.500 183.473 C 197.662 183.118,197.767 182.842,197.735 182.859 C 197.702 182.877,197.414 183.021,197.095 183.179 M222.256 191.356 C 222.318 191.759,222.186 191.865,221.625 191.862 C 221.130 191.859,221.022 191.791,221.267 191.636 C 221.551 191.456,221.554 191.374,221.284 191.208 C 221.034 191.053,221.076 190.957,221.450 190.821 C 222.042 190.606,222.153 190.679,222.256 191.356 M181.897 198.623 C 181.824 198.741,182.003 198.838,182.296 198.838 C 182.588 198.838,182.828 198.741,182.828 198.623 C 182.828 198.504,182.648 198.408,182.429 198.408 C 182.210 198.408,181.970 198.504,181.897 198.623 M207.252 215.529 C 207.225 215.715,207.112 215.957,207.001 216.067 C 206.891 216.178,206.839 216.094,206.886 215.881 C 206.934 215.667,206.820 215.526,206.630 215.565 C 206.442 215.604,206.350 215.536,206.425 215.414 C 206.642 215.064,207.307 215.157,207.252 215.529 M7.855 218.104 C 8.336 218.289,8.411 219.498,7.941 219.492 C 7.425 219.486,7.107 219.153,7.021 218.528 C 6.938 217.932,7.140 217.829,7.855 218.104 M156.974 227.308 C 156.957 227.485,156.960 227.727,156.980 227.844 C 157.001 227.961,156.906 227.988,156.771 227.904 C 156.635 227.820,156.451 227.870,156.362 228.014 C 156.272 228.159,156.437 228.276,156.731 228.276 C 157.126 228.276,157.263 228.110,157.263 227.631 C 157.263 226.976,157.030 226.716,156.974 227.308 M148.225 238.347 C 148.225 238.844,147.720 239.047,147.366 238.694 C 147.171 238.498,147.659 237.831,147.998 237.831 C 148.123 237.831,148.225 238.063,148.225 238.347 M143.378 244.803 C 143.109 245.234,143.120 245.320,143.445 245.320 C 143.663 245.320,143.835 245.091,143.835 244.803 C 143.835 244.519,143.805 244.287,143.768 244.287 C 143.731 244.287,143.556 244.519,143.378 244.803 M176.892 251.969 C 176.895 252.248,176.969 252.312,177.086 252.137 C 177.190 251.981,177.450 251.786,177.663 251.705 C 177.922 251.607,177.858 251.551,177.469 251.537 C 177.079 251.524,176.890 251.665,176.892 251.969 M224.769 257.491 C 224.693 257.614,224.986 257.715,225.421 257.715 C 225.855 257.715,226.210 257.670,226.210 257.616 C 226.210 257.397,224.897 257.283,224.769 257.491 " stroke="none" fill="#fcfcfc" fill-rule="evenodd"></path><path id="path1" d="M358.159 3.629 C 357.770 4.356,357.936 4.972,358.545 5.061 C 359.270 5.167,359.716 4.702,359.716 3.842 C 359.716 2.917,358.620 2.767,358.159 3.629 M361.269 5.619 C 361.276 6.365,361.678 6.840,361.873 6.332 C 361.963 6.098,362.153 5.979,362.296 6.067 C 362.439 6.156,362.556 6.014,362.556 5.753 C 362.556 5.432,362.346 5.260,361.911 5.224 C 361.448 5.186,361.266 5.298,361.269 5.619 M358.823 8.726 C 358.525 9.024,358.703 10.095,359.074 10.237 C 359.611 10.443,360.232 9.870,360.232 9.168 C 360.232 8.616,359.243 8.306,358.823 8.726 M218.578 11.850 C 218.222 12.206,218.522 13.209,219.045 13.411 C 219.840 13.718,220.392 13.169,220.171 12.291 C 220.018 11.681,219.022 11.406,218.578 11.850 M348.664 11.959 C 348.235 12.153,348.091 12.405,348.147 12.868 C 348.250 13.720,349.220 13.883,349.742 13.137 C 350.410 12.184,349.754 11.468,348.664 11.959 M356.165 12.516 C 355.725 13.026,355.758 13.272,356.337 13.796 C 357.052 14.442,357.959 13.936,357.831 12.963 C 357.725 12.158,356.709 11.885,356.165 12.516 M258.325 14.590 C 258.093 15.194,258.420 15.752,259.006 15.752 C 259.663 15.752,259.949 15.104,259.520 14.587 C 259.109 14.093,258.515 14.094,258.325 14.590 M200.452 15.665 C 199.978 15.856,200.058 16.382,200.641 16.910 C 201.271 17.480,201.937 17.068,201.937 16.108 C 201.937 15.497,201.322 15.314,200.452 15.665 M354.035 17.113 C 354.035 17.546,354.143 17.782,354.297 17.686 C 354.442 17.597,354.481 17.396,354.384 17.240 C 354.272 17.058,354.360 17.014,354.630 17.117 C 354.862 17.206,355.120 17.168,355.204 17.032 C 355.288 16.896,355.227 16.785,355.068 16.785 C 354.909 16.785,354.847 16.676,354.929 16.542 C 355.011 16.409,354.844 16.318,354.557 16.339 C 354.164 16.369,354.035 16.561,354.035 17.113 M266.894 17.024 C 266.618 17.470,267.072 18.076,267.681 18.076 C 268.165 18.076,268.286 17.949,268.247 17.483 C 268.197 16.876,267.195 16.536,266.894 17.024 M270.416 18.657 C 270.508 19.610,271.499 19.866,272.003 19.066 C 272.367 18.490,271.808 17.818,270.966 17.818 C 270.410 17.818,270.345 17.917,270.416 18.657 M338.373 21.175 C 338.274 21.673,338.061 21.950,337.777 21.950 C 337.534 21.950,337.336 22.119,337.336 22.326 C 337.336 22.879,338.093 23.075,338.434 22.609 C 338.595 22.389,338.979 22.208,339.288 22.208 C 339.870 22.208,340.387 21.325,340.158 20.723 C 339.886 20.009,338.538 20.350,338.373 21.175 M287.411 25.662 C 287.411 26.806,288.733 27.234,289.123 26.216 C 289.327 25.685,288.998 24.828,288.746 25.236 C 288.624 25.434,288.429 25.455,288.179 25.297 C 287.582 24.920,287.411 25.001,287.411 25.662 M294.212 29.245 C 293.670 30.113,294.233 30.545,295.151 29.965 C 295.477 29.759,295.468 29.700,295.088 29.554 C 294.844 29.461,294.709 29.280,294.788 29.153 C 294.866 29.026,294.814 28.922,294.672 28.922 C 294.530 28.922,294.323 29.067,294.212 29.245 M328.771 29.148 C 328.581 29.269,328.436 29.441,328.448 29.532 C 328.536 30.193,328.432 30.736,328.239 30.617 C 327.973 30.453,327.652 31.117,327.885 31.350 C 328.133 31.597,328.515 31.528,328.352 31.265 C 328.271 31.133,328.467 30.941,328.789 30.839 C 329.111 30.737,329.385 30.700,329.399 30.756 C 329.489 31.127,330.278 30.031,330.278 29.536 C 330.278 28.889,329.497 28.688,328.771 29.148 M299.757 32.672 C 299.683 32.747,299.677 33.095,299.744 33.447 C 299.887 34.193,301.257 34.385,301.522 33.696 C 301.809 32.947,300.337 32.093,299.757 32.672 M318.987 37.766 C 318.850 37.944,318.664 38.294,318.575 38.543 C 318.486 38.793,318.280 38.968,318.118 38.931 C 317.713 38.839,317.578 39.836,317.961 40.080 C 318.445 40.388,318.915 40.318,318.915 39.938 C 318.915 39.748,319.209 39.458,319.569 39.295 C 320.202 39.006,320.779 38.030,320.548 37.637 C 320.364 37.324,319.259 37.415,318.987 37.766 M154.939 39.527 C 154.939 40.645,156.311 40.570,156.441 39.445 C 156.514 38.807,156.442 38.735,155.731 38.735 C 155.019 38.735,154.939 38.815,154.939 39.527 M307.037 39.349 C 307.037 40.565,308.371 40.851,308.733 39.711 C 308.923 39.113,308.500 38.745,307.618 38.739 C 307.177 38.736,307.037 38.883,307.037 39.349 M338.347 39.440 C 338.170 39.502,338.025 39.841,338.025 40.194 C 338.025 41.035,339.144 40.971,339.265 40.123 C 339.345 39.560,338.918 39.241,338.347 39.440 M335.557 43.221 C 335.327 43.870,335.633 44.544,336.117 44.456 C 336.719 44.346,336.659 44.414,336.861 43.608 C 337.040 42.895,335.802 42.528,335.557 43.221 M332.877 46.849 C 332.641 47.132,332.648 47.338,332.907 47.753 C 333.531 48.752,334.409 48.298,334.409 46.977 C 334.409 46.376,333.343 46.287,332.877 46.849 M330.736 50.382 C 330.027 50.779,330.473 51.904,331.341 51.904 C 331.989 51.904,332.085 51.808,332.085 51.160 C 332.085 50.356,331.444 49.986,330.736 50.382 M140.408 53.352 C 140.042 53.717,140.212 55.017,140.647 55.184 C 141.267 55.421,142.146 54.296,141.731 53.796 C 141.564 53.595,141.280 53.487,141.099 53.557 C 140.918 53.626,140.730 53.566,140.683 53.423 C 140.635 53.280,140.511 53.248,140.408 53.352 M328.487 54.596 C 328.309 54.810,328.285 55.018,328.428 55.107 C 328.561 55.189,328.805 55.093,328.970 54.894 C 329.147 54.680,329.171 54.472,329.028 54.383 C 328.895 54.301,328.652 54.397,328.487 54.596 M325.758 57.752 C 325.387 58.124,325.381 58.222,325.711 58.553 C 326.155 58.997,327.179 58.767,327.179 58.223 C 327.179 57.583,326.239 57.271,325.758 57.752 M136.009 60.333 C 135.811 60.531,136.030 60.943,136.334 60.943 C 136.452 60.943,136.616 60.768,136.698 60.555 C 136.845 60.171,136.335 60.007,136.009 60.333 M329.438 63.454 C 328.892 64.057,329.296 64.816,330.161 64.816 C 330.828 64.816,331.122 63.500,330.536 63.138 C 330.394 63.050,330.276 63.130,330.274 63.316 C 330.270 63.587,330.228 63.589,330.061 63.325 C 329.899 63.070,329.759 63.099,329.438 63.454 M133.170 63.792 C 133.015 64.385,133.290 64.624,133.870 64.402 C 134.320 64.229,134.371 64.047,134.083 63.654 C 133.750 63.201,133.307 63.268,133.170 63.792 M130.632 67.076 C 130.414 68.340,130.520 68.583,131.238 68.478 C 132.136 68.346,132.318 68.075,131.959 67.404 C 131.694 66.908,130.703 66.663,130.632 67.076 M331.698 67.140 C 331.610 67.282,331.632 67.400,331.747 67.402 C 331.862 67.404,331.817 67.495,331.647 67.603 C 331.140 67.925,331.711 68.523,332.582 68.583 C 333.402 68.640,333.591 68.258,333.220 67.290 C 333.047 66.840,331.950 66.732,331.698 67.140 M92.577 71.011 C 92.374 71.648,92.545 71.945,93.217 72.120 C 93.808 72.275,94.116 71.925,94.136 71.078 C 94.154 70.292,92.823 70.235,92.577 71.011 M123.619 70.657 C 123.304 70.972,123.416 71.709,123.831 72.054 C 124.408 72.533,125.515 71.909,125.404 71.168 C 125.322 70.619,124.027 70.249,123.619 70.657 M89.292 72.141 C 88.955 72.397,88.921 72.549,89.150 72.779 C 89.655 73.283,90.123 73.117,90.123 72.434 C 90.123 71.712,89.942 71.648,89.292 72.141 M338.039 78.288 C 337.454 78.916,337.714 79.535,338.564 79.535 C 339.284 79.535,339.671 78.636,339.168 78.133 C 338.655 77.620,338.662 77.619,338.039 78.288 M74.772 80.591 C 74.852 80.720,74.761 80.826,74.570 80.826 C 74.379 80.826,74.223 81.050,74.223 81.323 C 74.223 81.696,74.386 81.807,74.878 81.769 C 75.671 81.709,75.846 80.534,75.079 80.422 C 74.830 80.385,74.692 80.461,74.772 80.591 M339.078 80.672 C 338.530 81.333,338.843 81.988,339.707 81.988 C 340.391 81.988,340.478 81.902,340.478 81.214 C 340.478 80.326,339.635 80.001,339.078 80.672 M340.339 83.033 C 339.816 83.663,340.158 84.306,341.061 84.393 C 341.933 84.478,342.048 84.271,341.668 83.301 C 341.431 82.698,340.734 82.557,340.339 83.033 M69.489 85.553 C 69.333 85.709,69.206 86.045,69.206 86.301 C 69.206 86.993,70.648 86.947,70.830 86.249 C 71.028 85.494,70.054 84.988,69.489 85.553 M345.245 97.753 C 344.719 98.386,345.064 99.025,345.978 99.113 C 346.754 99.188,346.819 99.139,346.739 98.542 C 346.599 97.492,345.808 97.074,345.245 97.753 M60.987 99.010 C 60.638 99.486,60.790 100.053,61.293 100.150 C 61.933 100.273,62.322 99.845,62.126 99.230 C 61.954 98.686,61.315 98.563,60.987 99.010 M268.283 107.988 C 268.053 108.972,268.103 109.187,268.592 109.315 C 268.887 109.392,269.060 109.387,268.977 109.304 C 268.894 109.222,269.028 109.006,269.274 108.827 C 269.520 108.647,269.664 108.446,269.593 108.381 C 269.417 108.219,268.307 107.886,268.283 107.988 M265.542 110.759 C 265.471 111.031,265.133 111.324,264.792 111.410 C 264.406 111.506,264.170 111.753,264.170 112.060 C 264.170 112.332,263.938 112.628,263.654 112.718 C 263.370 112.808,263.134 113.019,263.129 113.187 C 263.117 113.650,261.993 114.832,261.381 115.026 C 261.083 115.120,260.768 115.424,260.680 115.701 C 260.592 115.978,260.357 116.204,260.156 116.204 C 259.956 116.204,259.588 116.524,259.338 116.914 C 259.088 117.305,258.708 117.763,258.493 117.932 C 258.190 118.170,258.167 118.345,258.388 118.707 C 258.779 119.344,259.341 119.293,259.648 118.593 C 259.788 118.273,260.111 118.012,260.365 118.012 C 260.622 118.012,260.937 117.720,261.078 117.351 C 261.216 116.987,261.432 116.753,261.558 116.831 C 261.891 117.037,262.354 116.386,262.416 115.626 C 262.451 115.210,262.593 115.017,262.804 115.098 C 263.229 115.261,263.235 114.867,262.815 114.396 C 262.546 114.094,262.559 114.084,262.893 114.334 C 263.327 114.658,264.945 113.896,264.945 113.367 C 264.945 113.223,265.122 113.105,265.339 113.105 C 265.555 113.105,265.837 112.831,265.965 112.495 C 266.092 112.159,266.438 111.822,266.733 111.744 C 267.102 111.648,267.269 111.395,267.269 110.934 C 267.269 110.073,265.762 109.920,265.542 110.759 M271.453 112.382 C 270.599 113.236,271.133 113.887,272.498 113.655 C 273.011 113.567,272.462 112.072,271.917 112.072 C 271.832 112.072,271.623 112.212,271.453 112.382 M47.373 114.624 C 47.046 114.951,47.318 115.960,47.803 116.220 C 48.449 116.566,48.910 116.204,49.152 115.162 C 49.294 114.551,47.875 114.122,47.373 114.624 M269.078 116.332 C 268.745 116.687,268.550 117.055,268.645 117.150 C 268.741 117.245,268.819 117.173,268.819 116.990 C 268.819 116.748,268.909 116.733,269.150 116.932 C 269.645 117.343,270.300 116.874,269.902 116.394 C 269.735 116.192,269.674 115.951,269.768 115.857 C 269.861 115.764,269.880 115.688,269.810 115.688 C 269.741 115.688,269.411 115.978,269.078 116.332 M39.251 118.551 C 39.251 118.697,39.159 118.760,39.047 118.690 C 38.934 118.621,38.826 118.777,38.806 119.037 C 38.772 119.489,39.576 119.924,39.882 119.619 C 40.170 119.331,40.016 118.580,39.638 118.435 C 39.425 118.353,39.251 118.405,39.251 118.551 M36.669 119.705 C 36.669 119.927,36.553 120.036,36.411 119.948 C 36.005 119.698,36.109 120.495,36.527 120.842 C 37.034 121.263,37.805 121.081,37.914 120.514 C 38.019 119.970,37.529 119.303,37.025 119.303 C 36.829 119.303,36.669 119.484,36.669 119.705 M348.827 121.232 C 348.466 122.024,348.851 122.593,349.706 122.532 C 350.742 122.458,350.524 120.594,349.479 120.594 C 349.280 120.594,348.987 120.881,348.827 121.232 M262.621 125.242 C 262.621 126.058,263.252 126.316,263.831 125.737 C 264.296 125.271,263.920 124.467,263.237 124.467 C 262.725 124.467,262.621 124.598,262.621 125.242 M250.842 126.389 C 250.538 127.179,250.858 127.695,251.650 127.695 C 252.331 127.695,252.430 127.597,252.502 126.856 C 252.590 125.939,251.168 125.539,250.842 126.389 M24.162 128.518 C 24.009 128.916,24.740 129.691,25.143 129.559 C 25.304 129.506,25.472 129.153,25.517 128.774 C 25.605 128.030,24.434 127.809,24.162 128.518 M260.668 128.314 C 260.746 128.441,260.637 128.612,260.425 128.693 C 259.750 128.952,260.009 129.374,260.841 129.374 C 261.467 129.374,261.609 129.284,261.487 128.965 C 261.400 128.741,261.330 128.450,261.330 128.320 C 261.330 128.189,261.149 128.083,260.927 128.083 C 260.706 128.083,260.589 128.187,260.668 128.314 M359.876 131.906 C 359.718 132.162,359.815 132.916,360.033 133.134 C 360.340 133.441,361.265 132.951,361.265 132.483 C 361.265 131.861,360.182 131.412,359.876 131.906 M256.523 133.361 C 256.248 134.078,256.541 134.668,257.174 134.668 C 257.988 134.668,258.450 133.951,257.991 133.398 C 257.567 132.887,256.713 132.866,256.523 133.361 M243.829 134.939 C 243.082 135.463,243.466 136.346,244.441 136.346 C 245.019 136.346,245.085 136.252,245.013 135.527 C 244.917 134.549,244.606 134.395,243.829 134.939 M17.085 135.540 C 16.532 135.890,16.823 136.979,17.495 137.074 C 17.815 137.120,18.091 137.032,18.108 136.880 C 18.126 136.729,18.162 136.459,18.189 136.281 C 18.295 135.567,17.687 135.158,17.085 135.540 M367.011 135.954 C 367.011 136.838,367.537 137.237,368.221 136.871 C 369.143 136.378,368.700 135.313,367.573 135.313 C 367.147 135.313,367.011 135.468,367.011 135.954 M371.135 138.567 C 371.094 139.069,371.197 139.171,371.708 139.129 C 372.051 139.100,372.271 138.978,372.195 138.856 C 372.120 138.734,371.880 138.704,371.661 138.788 C 371.344 138.909,371.325 138.866,371.565 138.577 C 371.797 138.297,371.788 138.184,371.526 138.083 C 371.310 138.001,371.167 138.177,371.135 138.567 M374.435 140.994 C 374.435 141.683,374.521 141.769,375.210 141.769 C 376.042 141.769,376.280 141.135,375.675 140.529 C 375.069 139.924,374.435 140.162,374.435 140.994 M11.940 141.725 C 11.731 141.858,11.671 142.215,11.773 142.725 C 11.972 143.722,13.236 143.589,13.386 142.555 C 13.509 141.712,12.696 141.245,11.940 141.725 M250.405 141.704 C 249.905 142.582,250.287 143.523,251.054 143.303 C 252.108 143.001,252.167 142.913,251.823 142.157 C 251.545 141.549,250.655 141.264,250.405 141.704 M236.133 143.899 C 236.032 144.219,235.733 144.632,235.470 144.818 C 235.206 145.003,234.990 145.368,234.990 145.628 C 234.990 145.889,234.823 146.085,234.618 146.066 C 234.235 146.029,234.216 146.070,234.216 146.909 C 234.216 147.274,234.349 147.367,234.729 147.267 C 235.012 147.193,235.179 147.030,235.101 146.904 C 235.023 146.778,235.083 146.675,235.233 146.675 C 235.384 146.675,235.507 146.501,235.507 146.288 C 235.507 146.075,235.594 145.914,235.700 145.931 C 236.199 146.010,236.534 145.875,236.475 145.618 C 236.440 145.463,236.643 145.202,236.927 145.037 C 237.593 144.652,237.822 144.330,237.827 143.770 C 237.833 143.044,236.368 143.156,236.133 143.899 M8.360 148.350 C 8.103 148.895,8.260 148.963,9.296 148.759 C 9.367 148.745,9.251 148.621,9.038 148.483 C 8.780 148.316,8.758 148.231,8.974 148.229 C 9.151 148.226,9.296 148.128,9.296 148.009 C 9.296 147.566,8.613 147.815,8.360 148.350 M386.744 152.787 C 386.508 153.022,386.526 154.157,386.766 154.193 C 388.238 154.417,388.380 154.384,388.380 153.813 C 388.380 152.885,387.314 152.216,386.744 152.787 M4.700 155.249 C 4.287 155.661,4.633 156.230,5.297 156.230 C 5.757 156.230,5.861 156.117,5.761 155.731 C 5.602 155.125,5.067 154.882,4.700 155.249 M389.460 156.939 C 389.521 157.471,389.689 157.658,390.127 157.680 C 390.959 157.722,390.801 156.445,389.958 156.316 C 389.461 156.240,389.390 156.329,389.460 156.939 M219.663 160.666 C 219.378 160.825,219.271 161.091,219.368 161.398 C 219.524 161.887,218.704 162.582,218.368 162.246 C 218.279 162.156,218.205 162.211,218.205 162.367 C 218.205 162.523,217.952 162.731,217.643 162.829 C 216.876 163.073,215.437 164.508,215.326 165.140 C 215.188 165.926,216.691 165.869,217.040 165.074 C 217.180 164.755,217.442 164.493,217.622 164.493 C 217.802 164.493,218.151 164.027,218.398 163.457 C 218.676 162.814,218.975 162.469,219.185 162.550 C 219.371 162.621,219.460 162.577,219.382 162.451 C 219.243 162.227,219.959 161.790,220.336 161.870 C 220.442 161.892,220.529 161.804,220.529 161.674 C 220.529 161.543,220.594 161.268,220.673 161.062 C 220.858 160.581,220.244 160.341,219.663 160.666 M236.933 162.926 C 236.709 163.632,236.911 163.901,237.626 163.848 C 238.068 163.816,238.218 163.647,238.218 163.181 C 238.218 162.353,237.180 162.147,236.933 162.926 M1.356 166.062 C 0.581 166.358,0.557 167.488,1.320 167.730 C 2.153 167.995,2.621 167.380,2.240 166.522 C 1.987 165.953,1.841 165.876,1.356 166.062 M395.343 168.900 C 395.130 169.298,395.138 169.529,395.376 169.816 C 395.855 170.393,396.756 170.157,396.859 169.429 C 397.007 168.386,395.837 167.977,395.343 168.900 M396.668 172.318 C 396.308 172.679,396.302 173.450,396.658 173.670 C 397.267 174.046,398.193 173.980,398.174 173.560 C 398.122 172.361,397.302 171.685,396.668 172.318 M227.436 179.664 C 227.382 179.771,227.361 180.003,227.388 180.181 C 227.415 180.358,227.452 180.609,227.469 180.739 C 227.504 180.992,228.157 180.967,228.422 180.703 C 228.687 180.437,228.268 179.471,227.887 179.471 C 227.692 179.471,227.489 179.558,227.436 179.664 M198.415 180.633 C 198.333 180.846,198.070 181.020,197.829 181.020 C 197.264 181.020,196.772 181.518,196.772 182.092 C 196.772 182.340,196.593 182.644,196.375 182.766 C 196.068 182.938,196.035 183.132,196.230 183.618 C 196.388 184.015,196.487 184.092,196.498 183.826 C 196.510 183.498,197.284 183.033,197.617 183.152 C 197.993 183.287,198.862 182.432,198.757 182.031 C 198.663 181.669,198.763 181.536,199.128 181.536 C 199.750 181.536,200.074 180.790,199.586 180.481 C 199.045 180.139,198.581 180.199,198.415 180.633 M226.099 182.540 C 226.022 182.666,226.106 182.892,226.287 183.042 C 226.685 183.373,227.384 183.006,227.132 182.598 C 226.920 182.255,226.298 182.220,226.099 182.540 M399.087 183.359 C 398.994 183.509,398.989 183.911,399.075 184.253 C 399.292 185.120,400.000 184.798,400.000 183.833 C 400.000 183.083,399.438 182.791,399.087 183.359 M221.450 190.821 C 221.076 190.957,221.034 191.053,221.284 191.208 C 221.554 191.374,221.551 191.456,221.267 191.636 C 221.022 191.791,221.130 191.859,221.625 191.862 C 222.186 191.865,222.318 191.759,222.256 191.356 C 222.153 190.679,222.042 190.606,221.450 190.821 M182.569 197.255 C 182.569 197.378,182.308 197.466,181.988 197.449 C 181.569 197.426,181.407 197.562,181.407 197.934 C 181.407 198.266,181.209 198.479,180.853 198.530 C 180.548 198.573,180.241 198.825,180.172 199.089 C 180.103 199.353,179.775 199.608,179.442 199.655 C 178.992 199.720,178.838 199.907,178.838 200.387 C 178.838 201.367,179.747 201.371,180.298 200.393 C 180.540 199.964,180.930 199.613,181.165 199.613 C 181.427 199.613,181.538 199.472,181.451 199.247 C 181.324 198.916,181.806 198.531,182.419 198.473 C 182.665 198.450,182.949 197.030,182.707 197.030 C 182.631 197.030,182.569 197.131,182.569 197.255 M399.060 200.000 C 398.850 200.548,399.138 201.162,399.605 201.162 C 399.872 201.162,400.000 200.911,400.000 200.387 C 400.000 199.556,399.336 199.282,399.060 200.000 M0.947 202.109 C 0.681 202.375,0.743 203.436,1.035 203.617 C 1.424 203.857,2.254 203.524,2.434 203.056 C 2.721 202.307,1.516 201.539,0.947 202.109 M212.576 205.345 C 211.911 206.010,212.191 207.129,212.976 206.944 C 214.018 206.698,214.205 206.434,213.866 205.688 C 213.544 204.981,213.067 204.855,212.576 205.345 M397.901 207.122 C 397.507 207.366,397.994 208.651,398.481 208.651 C 398.827 208.651,399.463 207.885,399.475 207.454 C 399.486 207.091,398.342 206.849,397.901 207.122 M171.771 208.166 C 170.885 208.496,171.056 209.844,171.971 209.742 C 172.655 209.665,173.005 209.287,173.011 208.614 C 173.016 208.064,172.523 207.887,171.771 208.166 M208.961 211.543 C 208.385 212.119,208.582 212.976,209.291 212.976 C 210.126 212.976,210.456 212.545,210.179 211.814 C 209.936 211.175,209.440 211.064,208.961 211.543 M4.534 212.983 C 4.001 213.515,4.616 214.769,5.393 214.735 C 5.812 214.716,6.228 213.758,5.980 213.382 C 5.774 213.069,4.734 212.782,4.534 212.983 M206.425 215.414 C 206.350 215.536,206.442 215.604,206.630 215.565 C 206.820 215.526,206.934 215.667,206.886 215.881 C 206.839 216.094,206.891 216.178,207.001 216.067 C 207.355 215.714,207.314 215.193,206.932 215.193 C 206.728 215.193,206.501 215.292,206.425 215.414 M5.997 216.204 C 5.638 216.642,6.228 217.229,6.594 216.798 C 6.992 216.332,7.002 215.881,6.617 215.881 C 6.421 215.881,6.142 216.026,5.997 216.204 M164.101 216.979 C 163.990 217.281,163.781 218.333,163.738 218.802 C 163.727 218.916,163.604 218.939,163.463 218.853 C 163.317 218.762,163.274 218.866,163.362 219.096 C 163.570 219.638,163.697 219.601,163.946 218.926 C 164.096 218.521,164.375 218.352,164.906 218.345 C 165.560 218.336,165.666 218.228,165.736 217.495 C 165.821 216.614,164.398 216.164,164.101 216.979 M7.021 218.528 C 7.107 219.153,7.425 219.486,7.941 219.492 C 8.411 219.498,8.336 218.289,7.855 218.104 C 7.140 217.829,6.938 217.932,7.021 218.528 M203.012 219.982 C 202.405 220.366,202.752 221.433,203.483 221.433 C 204.213 221.433,204.489 220.728,203.992 220.130 C 203.635 219.699,203.491 219.678,203.012 219.982 M8.005 220.869 C 8.005 221.711,8.677 222.270,9.253 221.907 C 10.053 221.402,9.797 220.411,8.844 220.319 C 8.105 220.248,8.005 220.313,8.005 220.869 M199.148 225.040 C 198.633 225.859,198.821 226.469,199.589 226.469 C 200.493 226.469,200.752 226.153,200.540 225.308 C 200.380 224.672,199.487 224.500,199.148 225.040 M156.551 226.052 C 155.734 226.919,155.470 227.837,155.954 228.136 C 156.086 228.218,156.268 228.165,156.359 228.018 C 156.450 227.871,156.635 227.820,156.771 227.904 C 156.906 227.988,157.001 227.961,156.980 227.844 C 156.887 227.306,157.053 227.046,157.668 226.766 C 158.142 226.550,158.308 226.300,158.249 225.888 C 158.123 225.007,157.478 225.070,156.551 226.052 M12.912 228.395 C 12.912 229.190,14.123 229.843,14.506 229.255 C 14.965 228.548,14.623 227.892,13.751 227.808 C 12.999 227.736,12.912 227.797,12.912 228.395 M386.895 230.255 C 386.148 230.556,386.747 231.892,387.629 231.892 C 388.094 231.892,388.380 231.392,388.380 230.579 C 388.380 230.090,387.681 229.938,386.895 230.255 M194.318 231.056 C 194.175 231.161,194.023 231.559,193.979 231.942 C 193.885 232.753,195.076 232.885,195.561 232.117 C 196.093 231.272,195.137 230.456,194.318 231.056 M189.346 237.569 C 188.868 238.334,188.953 238.568,189.679 238.488 C 190.517 238.396,190.585 238.315,190.405 237.626 C 190.220 236.918,189.767 236.894,189.346 237.569 M147.453 238.215 C 147.192 238.529,147.221 238.631,147.615 238.771 C 147.879 238.866,148.166 238.980,148.252 239.025 C 148.338 239.070,148.353 238.819,148.286 238.469 C 148.147 237.738,147.908 237.666,147.453 238.215 M25.513 240.332 C 25.150 240.427,25.123 240.552,25.356 241.065 C 25.579 241.554,25.734 241.632,26.097 241.438 C 26.417 241.267,26.591 241.289,26.671 241.513 C 26.734 241.689,26.854 241.771,26.937 241.696 C 27.138 241.513,26.540 240.340,26.210 240.271 C 26.068 240.242,25.755 240.269,25.513 240.332 M142.041 243.883 C 141.668 244.332,142.098 245.320,142.667 245.320 C 143.150 245.320,143.832 244.322,143.659 243.870 C 143.479 243.401,142.433 243.410,142.041 243.883 M373.382 243.807 C 373.143 244.927,373.324 245.306,374.103 245.316 C 374.403 245.319,375.086 244.335,374.907 244.156 C 374.769 244.018,373.404 243.705,373.382 243.807 M181.795 246.357 C 181.795 247.186,182.373 247.513,183.070 247.077 C 183.741 246.658,183.276 245.642,182.414 245.642 C 181.910 245.642,181.795 245.775,181.795 246.357 M137.293 249.882 C 136.719 250.456,137.493 251.655,138.250 251.365 C 138.958 251.093,138.805 249.709,138.068 249.709 C 137.736 249.709,137.388 249.787,137.293 249.882 M177.599 251.711 C 177.116 251.820,176.730 252.860,177.006 253.306 C 177.363 253.884,178.696 253.300,178.696 252.566 C 178.696 251.975,178.187 251.579,177.599 251.711 M357.392 253.066 C 357.392 253.716,357.494 253.841,358.022 253.841 C 358.776 253.841,359.033 253.504,358.811 252.806 C 358.528 251.912,357.392 252.121,357.392 253.066 M349.128 255.657 C 349.128 256.079,349.245 256.423,349.387 256.423 C 349.529 256.423,349.645 256.307,349.645 256.165 C 349.645 256.023,349.790 255.936,349.968 255.972 C 350.538 256.086,350.312 255.328,349.709 255.106 C 349.189 254.913,349.128 254.971,349.128 255.657 M230.553 255.776 C 230.508 255.817,229.193 255.916,227.631 255.994 C 224.580 256.147,224.193 256.198,223.688 256.513 C 223.265 256.777,223.568 257.276,224.042 257.095 C 224.262 257.010,224.403 257.124,224.403 257.387 C 224.403 257.701,224.480 257.741,224.687 257.534 C 224.863 257.358,225.241 257.326,225.675 257.451 C 226.837 257.784,242.798 257.517,243.019 257.161 C 243.368 256.595,242.953 256.191,241.875 256.044 C 240.724 255.888,230.689 255.650,230.553 255.776 M85.388 257.370 C 84.960 257.799,85.262 258.231,85.991 258.231 C 86.594 258.231,86.766 258.116,86.766 257.715 C 86.766 257.204,85.797 256.961,85.388 257.370 M115.171 257.715 C 115.171 258.120,115.343 258.231,115.973 258.231 C 116.599 258.231,116.741 258.141,116.619 257.823 C 116.533 257.598,116.462 257.366,116.462 257.306 C 116.462 257.247,116.172 257.198,115.817 257.198 C 115.343 257.198,115.171 257.336,115.171 257.715 " stroke="none" fill="#f4f4f4" fill-rule="evenodd"></path></g></svg>